<svg width="320" height="239" viewBox="0 0 320 239" fill="none" xmlns="http://www.w3.org/2000/svg">
<path d="M320 210.029H0V210.19H320V210.029Z" fill="#EDEDED"/>
<path d="M287.936 220.352H266.739V220.512H287.936V220.352Z" fill="#EDEDED"/>
<path d="M211.981 222.097H206.419V222.257H211.981V222.097Z" fill="#EDEDED"/>
<path d="M266.099 214.398H253.817V214.559H266.099V214.398Z" fill="#EDEDED"/>
<path d="M61.2158 215.476H33.5742V215.636H61.2158V215.476Z" fill="#EDEDED"/>
<path d="M70.9692 215.476H66.918V215.636H70.9692V215.476Z" fill="#EDEDED"/>
<path d="M144.096 218.183H84.1406V218.343H144.096V218.183Z" fill="#EDEDED"/>
<path d="M151.68 181.418H28.1021C27.134 181.417 26.2061 181.03 25.5222 180.343C24.8382 179.656 24.4541 178.726 24.4541 177.755V3.63093C24.4625 2.66612 24.8504 1.7436 25.5334 1.06376C26.2165 0.383915 27.1395 0.00165277 28.1021 0H151.68C152.649 0 153.578 0.385923 154.264 1.07287C154.949 1.75982 155.334 2.69152 155.334 3.66301V177.755C155.334 178.727 154.949 179.658 154.264 180.345C153.578 181.032 152.649 181.418 151.68 181.418ZM28.1021 0.128302C27.1764 0.130001 26.2893 0.499776 25.6353 1.15646C24.9814 1.81315 24.6141 2.70309 24.6141 3.63093V177.755C24.6141 178.683 24.9814 179.573 25.6353 180.23C26.2893 180.886 27.1764 181.256 28.1021 181.258H151.68C152.606 181.256 153.494 180.887 154.149 180.23C154.804 179.574 155.172 178.684 155.174 177.755V3.63093C155.172 2.7025 154.804 1.81257 154.149 1.15607C153.494 0.499568 152.606 0.129998 151.68 0.128302H28.1021Z" fill="#EDEDED"/>
<path d="M290.118 181.418H166.534C165.566 181.417 164.637 181.03 163.952 180.344C163.267 179.657 162.882 178.726 162.88 177.755V3.63093C162.89 2.66554 163.279 1.74302 163.963 1.06336C164.647 0.383691 165.571 0.00163475 166.534 0H290.118C291.08 0.00333872 292.001 0.386347 292.683 1.06601C293.365 1.74567 293.751 2.66723 293.76 3.63093V177.755C293.76 178.725 293.377 179.654 292.694 180.341C292.012 181.027 291.085 181.415 290.118 181.418ZM166.534 0.128302C165.608 0.129998 164.72 0.499568 164.065 1.15607C163.41 1.81257 163.042 2.7025 163.04 3.63093V177.755C163.042 178.684 163.41 179.574 164.065 180.23C164.72 180.887 165.608 181.256 166.534 181.258H290.118C291.045 181.256 291.932 180.887 292.587 180.23C293.242 179.574 293.611 178.684 293.613 177.755V3.63093C293.611 2.7025 293.242 1.81257 292.587 1.15607C291.932 0.499568 291.045 0.129998 290.118 0.128302H166.534Z" fill="#EDEDED"/>
<path d="M105.274 6.89648H59.6738V161.955H105.274V6.89648Z" fill="#F9F9F9"/>
<path d="M98.4834 6.89648H95.821L79.917 161.955H82.5794L98.4834 6.89648Z" fill="#F9F9F9"/>
<path d="M104.467 7.49316H59.3789V8.85957H104.467V7.49316Z" fill="#EDEDED"/>
<path d="M104.467 160.595H59.3789V163.52H104.467V160.595Z" fill="#EDEDED"/>
<path d="M103.718 163.392H61.1133V163.52H103.718V163.392Z" fill="#EDEDED"/>
<path d="M61.1132 7.49233H103.718V163.391H106.272V5.57422H58.5596V163.391H61.1132V7.49233Z" fill="#EDEDED"/>
<path d="M156.019 6.89648H110.419V161.955H156.019V6.89648Z" fill="#F9F9F9"/>
<path d="M143.366 6.89648H128.832L112.928 161.955H127.462L143.366 6.89648Z" fill="#F9F9F9"/>
<path d="M156.493 7.49316H110.125V8.85957H156.493V7.49316Z" fill="#EDEDED"/>
<path d="M156.493 160.595H110.125V163.52H156.493V160.595Z" fill="#EDEDED"/>
<path d="M154.464 163.392H111.859V163.52H154.464V163.392Z" fill="#EDEDED"/>
<path d="M111.859 7.49233H154.464V163.391H157.011V5.57422H109.306V163.391H111.859V7.49233Z" fill="#EDEDED"/>
<path d="M205.478 6.89648H161.158V161.955H205.478V6.89648Z" fill="#F9F9F9"/>
<path d="M186.272 6.89648H183.61L167.706 161.955H170.368L186.272 6.89648Z" fill="#F9F9F9"/>
<path d="M205.958 7.49316H160.87V8.85957H205.958V7.49316Z" fill="#EDEDED"/>
<path d="M205.958 160.595H160.87V163.52H205.958V160.595Z" fill="#EDEDED"/>
<path d="M205.209 163.392H162.604V163.52H205.209V163.392Z" fill="#EDEDED"/>
<path d="M162.604 7.49233H205.203V163.391H207.756V5.57422H160.051V163.391H162.604V7.49233Z" fill="#EDEDED"/>
<path d="M257.504 6.89648H211.904V161.955H257.504V6.89648Z" fill="#F9F9F9"/>
<path d="M253.043 6.89648H238.509L222.599 161.955H237.139L253.043 6.89648Z" fill="#F9F9F9"/>
<path d="M256.697 7.49316H211.609V8.85957H256.697V7.49316Z" fill="#EDEDED"/>
<path d="M256.697 160.595H211.609V163.52H256.697V160.595Z" fill="#EDEDED"/>
<path d="M213.344 7.49233H255.949V163.391H258.502V5.57422H210.797V163.391H213.344V7.49233Z" fill="#EDEDED"/>
<path d="M255.949 163.392H213.344V163.52H255.949V163.392Z" fill="#EDEDED"/>
<path d="M94.3616 126.287H74.5664V160.601H94.3616V126.287Z" fill="#EDEDED"/>
<path d="M90.5602 121.488V130.097H89.005H79.9298H78.3682V121.488H90.5602Z" fill="#EDEDED"/>
<path d="M90.5603 130.098H93.0947V127.557H90.5603V130.098Z" fill="#F9F9F9"/>
<path d="M85.658 130.098H88.1924V127.557H85.658V130.098Z" fill="#F9F9F9"/>
<path d="M80.7488 130.098H83.2832V127.557H80.7488V130.098Z" fill="#F9F9F9"/>
<path d="M75.8396 130.098H78.374V127.557H75.8396V130.098Z" fill="#DBDBDB"/>
<path d="M90.5603 134.71H93.0947V132.17H90.5603V134.71Z" fill="#DBDBDB"/>
<path d="M85.658 134.71H88.1924V132.17H85.658V134.71Z" fill="#DBDBDB"/>
<path d="M80.7488 134.71H83.2832V132.17H80.7488V134.71Z" fill="#F9F9F9"/>
<path d="M75.8396 134.71H78.374V132.17H75.8396V134.71Z" fill="#F9F9F9"/>
<path d="M90.5603 139.329H93.0947V136.789H90.5603V139.329Z" fill="#DBDBDB"/>
<path d="M85.658 139.329H88.1924V136.789H85.658V139.329Z" fill="#F9F9F9"/>
<path d="M80.7488 139.329H83.2832V136.789H80.7488V139.329Z" fill="#F9F9F9"/>
<path d="M85.658 126.107H88.1924V123.567H85.658V126.107Z" fill="#F9F9F9"/>
<path d="M80.7488 126.107H83.2832V123.567H80.7488V126.107Z" fill="#DBDBDB"/>
<path d="M75.8396 139.329H78.374V136.789H75.8396V139.329Z" fill="#DBDBDB"/>
<path d="M90.5603 143.947H93.0947V141.407H90.5603V143.947Z" fill="#F9F9F9"/>
<path d="M85.658 143.947H88.1924V141.407H85.658V143.947Z" fill="#DBDBDB"/>
<path d="M80.7488 143.947H83.2832V141.407H80.7488V143.947Z" fill="#DBDBDB"/>
<path d="M75.8396 143.947H78.374V141.407H75.8396V143.947Z" fill="#F9F9F9"/>
<path d="M90.5603 148.566H93.0947V146.026H90.5603V148.566Z" fill="#DBDBDB"/>
<path d="M85.658 148.566H88.1924V146.026H85.658V148.566Z" fill="#F9F9F9"/>
<path d="M80.7488 148.566H83.2832V146.026H80.7488V148.566Z" fill="#F9F9F9"/>
<path d="M75.8396 148.566H78.374V146.026H75.8396V148.566Z" fill="#DBDBDB"/>
<path d="M90.5603 153.179H93.0947V150.638H90.5603V153.179Z" fill="#DBDBDB"/>
<path d="M85.658 153.179H88.1924V150.638H85.658V153.179Z" fill="#F9F9F9"/>
<path d="M80.7488 153.179H83.2832V150.638H80.7488V153.179Z" fill="#DBDBDB"/>
<path d="M75.8396 153.179H78.374V150.638H75.8396V153.179Z" fill="#F9F9F9"/>
<path d="M90.5603 157.798H93.0947V155.257H90.5603V157.798Z" fill="#F9F9F9"/>
<path d="M85.658 157.798H88.1924V155.257H85.658V157.798Z" fill="#F9F9F9"/>
<path d="M80.7488 157.798H83.2832V155.257H80.7488V157.798Z" fill="#DBDBDB"/>
<path d="M75.8396 157.798H78.374V155.257H75.8396V157.798Z" fill="#DBDBDB"/>
<path d="M233.817 138.783H216.083V160.594H233.817V138.783Z" fill="#DBDBDB"/>
<path d="M217.626 141.209H221.748H222.887H224.02V143.48H222.887H221.748H217.626V141.209Z" fill="#EDEDED"/>
<path d="M217.626 145.615H221.748H222.887H224.02V147.893H222.887H221.748H217.626V145.615Z" fill="#F9F9F9"/>
<path d="M217.626 150.023H221.748H222.887H224.02V152.301H222.887H221.748H217.626V150.023Z" fill="#EDEDED"/>
<path d="M217.626 154.43H221.748H223.501H224.02V156.707H223.501H221.748H217.626V154.43Z" fill="#F9F9F9"/>
<path d="M225.875 141.209H230.003H231.136H232.269V143.48H231.136H230.003H225.875V141.209Z" fill="#F9F9F9"/>
<path d="M225.875 145.615H230.003H231.603H232.269V147.893H231.603H230.003H225.875V145.615Z" fill="#F9F9F9"/>
<path d="M225.875 150.023H230.003H231.136H232.269V152.301H231.136H230.003H225.875V150.023Z" fill="#EDEDED"/>
<path d="M225.875 154.43H230.003H231.136H232.269V156.707H231.136H230.003H225.875V154.43Z" fill="#F9F9F9"/>
<path d="M148.358 147.047H132.243V160.602H148.358V147.047Z" fill="#DBDBDB"/>
<path d="M145.267 150.806H147.328V148.74H145.267V150.806Z" fill="#F9F9F9"/>
<path d="M141.273 150.806H143.334V148.74H141.273V150.806Z" fill="#F9F9F9"/>
<path d="M137.273 150.806H139.334V148.74H137.273V150.806Z" fill="#F9F9F9"/>
<path d="M133.28 150.806H135.341V148.74H133.28V150.806Z" fill="#F9F9F9"/>
<path d="M145.267 154.559H147.328V152.493H145.267V154.559Z" fill="#F9F9F9"/>
<path d="M141.273 154.559H143.334V152.493H141.273V154.559Z" fill="#F9F9F9"/>
<path d="M137.273 154.559H139.334V152.493H137.273V154.559Z" fill="#F9F9F9"/>
<path d="M133.28 154.559H135.341V152.493H133.28V154.559Z" fill="#EDEDED"/>
<path d="M145.267 158.317H147.328V156.252H145.267V158.317Z" fill="#EDEDED"/>
<path d="M141.273 158.317H143.334V156.252H141.273V158.317Z" fill="#EDEDED"/>
<path d="M137.273 158.317H139.334V156.252H137.273V158.317Z" fill="#F9F9F9"/>
<path d="M133.28 158.317H135.341V156.252H133.28V158.317Z" fill="#EDEDED"/>
<path d="M130.061 137.026H113.945V160.602H130.061V137.026Z" fill="#DBDBDB"/>
<path d="M129.031 138.059H122.97V143.883H129.031V138.059Z" fill="#F9F9F9"/>
<path d="M121.036 138.059H114.976V143.883H121.036V138.059Z" fill="#F9F9F9"/>
<path d="M129.031 145.57H122.97V151.395H129.031V145.57Z" fill="#F9F9F9"/>
<path d="M121.036 145.57H114.976V151.395H121.036V145.57Z" fill="#F9F9F9"/>
<path d="M129.031 153.083H122.97V158.908H129.031V153.083Z" fill="#F9F9F9"/>
<path d="M121.036 153.083H114.976V158.908H121.036V153.083Z" fill="#F9F9F9"/>
<path d="M160 239C228.533 239 284.089 235.749 284.089 231.738C284.089 227.728 228.533 224.477 160 224.477C91.467 224.477 35.9102 227.728 35.9102 231.738C35.9102 235.749 91.467 239 160 239Z" fill="#F9F9F9"/>
<path d="M284.525 15.7871V157.073L267.565 174.073H169.383V15.7871H284.525Z" fill="#4674EA"/>
<path opacity="0.8" d="M284.525 15.7871V157.073L267.565 174.073H169.383V15.7871H284.525Z" fill="white"/>
<path opacity="0.2" d="M267.565 174.073V157.573H284.525L267.898 174.24" fill="black"/>
<path opacity="0.1" d="M212.954 29.5087H181.197C180.75 29.5087 180.322 29.3309 180.007 29.0145C179.691 28.6981 179.514 28.269 179.514 27.8215C179.513 27.5994 179.556 27.3793 179.64 27.1739C179.724 26.9685 179.848 26.7817 180.004 26.6244C180.161 26.467 180.347 26.3422 180.551 26.257C180.756 26.1718 180.975 26.1279 181.197 26.1279H212.954C213.401 26.1296 213.829 26.3088 214.144 26.6262C214.46 26.9437 214.637 27.3735 214.637 27.8215C214.637 28.269 214.46 28.6981 214.144 29.0145C213.828 29.3309 213.4 29.5087 212.954 29.5087Z" fill="black"/>
<path opacity="0.1" d="M270.553 43.1991H193.997C193.775 43.1991 193.556 43.1553 193.351 43.0701C193.146 42.9849 192.961 42.86 192.804 42.7027C192.648 42.5453 192.524 42.3586 192.44 42.1531C192.356 41.9477 192.313 41.7276 192.313 41.5055C192.313 41.0581 192.491 40.6289 192.806 40.3125C193.122 39.9961 193.55 39.8184 193.997 39.8184H270.553C271 39.8184 271.428 39.9961 271.744 40.3125C272.059 40.6289 272.237 41.0581 272.237 41.5055C272.237 41.9536 272.06 42.3834 271.744 42.7008C271.429 43.0182 271 43.1974 270.553 43.1991Z" fill="black"/>
<path opacity="0.1" d="M270.554 49.8514H181.197C180.75 49.8514 180.322 49.6737 180.007 49.3573C179.691 49.0409 179.514 48.6117 179.514 48.1643C179.513 47.9422 179.556 47.7221 179.64 47.5167C179.724 47.3112 179.848 47.1245 180.004 46.9671C180.161 46.8098 180.347 46.6849 180.551 46.5997C180.756 46.5146 180.975 46.4707 181.197 46.4707H270.554C271.001 46.4724 271.429 46.6516 271.744 46.969C272.06 47.2864 272.237 47.7162 272.237 48.1643C272.237 48.6117 272.06 49.0409 271.744 49.3573C271.428 49.6737 271 49.8514 270.554 49.8514Z" fill="black"/>
<path opacity="0.1" d="M270.554 57.37H181.197C180.975 57.37 180.756 57.3262 180.551 57.241C180.347 57.1558 180.161 57.0309 180.004 56.8736C179.848 56.7162 179.724 56.5295 179.64 56.324C179.556 56.1186 179.513 55.8985 179.514 55.6764C179.514 55.229 179.691 54.7998 180.007 54.4834C180.322 54.167 180.75 53.9893 181.197 53.9893H270.554C271 53.9893 271.428 54.167 271.744 54.4834C272.06 54.7998 272.237 55.229 272.237 55.6764C272.237 56.1245 272.06 56.5543 271.744 56.8717C271.429 57.1891 271.001 57.3683 270.554 57.37Z" fill="black"/>
<path opacity="0.1" d="M270.554 64.8821H181.197C180.75 64.8821 180.322 64.7044 180.007 64.388C179.691 64.0716 179.514 63.6424 179.514 63.195C179.514 62.7475 179.691 62.3184 180.007 62.002C180.322 61.6856 180.75 61.5078 181.197 61.5078H270.554C271 61.5078 271.428 61.6856 271.744 62.002C272.06 62.3184 272.237 62.7475 272.237 63.195C272.237 63.6424 272.06 64.0716 271.744 64.388C271.428 64.7044 271 64.8821 270.554 64.8821Z" fill="black"/>
<path opacity="0.1" d="M270.554 72.3997H181.197C180.75 72.3997 180.322 72.222 180.007 71.9056C179.691 71.5892 179.514 71.16 179.514 70.7126C179.513 70.4908 179.556 70.271 179.64 70.0659C179.724 69.8608 179.848 69.6745 180.005 69.5177C180.161 69.3608 180.347 69.2366 180.552 69.1521C180.756 69.0676 180.976 69.0246 181.197 69.0254H270.554C271 69.0254 271.428 69.2032 271.744 69.5196C272.06 69.836 272.237 70.2651 272.237 70.7126C272.237 71.16 272.06 71.5892 271.744 71.9056C271.428 72.222 271 72.3997 270.554 72.3997Z" fill="black"/>
<path opacity="0.1" d="M270.554 79.9188H181.197C180.75 79.9188 180.322 79.7411 180.007 79.4247C179.691 79.1083 179.514 78.6791 179.514 78.2317C179.513 78.0096 179.556 77.7895 179.64 77.584C179.724 77.3786 179.848 77.1919 180.004 77.0345C180.161 76.8772 180.347 76.7523 180.551 76.6671C180.756 76.5819 180.975 76.5381 181.197 76.5381H270.554C271.001 76.5398 271.429 76.719 271.744 77.0364C272.06 77.3538 272.237 77.7836 272.237 78.2317C272.237 78.6791 272.06 79.1083 271.744 79.4247C271.428 79.7411 271 79.9188 270.554 79.9188Z" fill="black"/>
<path opacity="0.1" d="M270.56 84.0566H181.197C180.267 84.0566 179.514 84.812 179.514 85.7438V85.7502C179.514 86.682 180.267 87.4374 181.197 87.4374H270.56C271.49 87.4374 272.243 86.682 272.243 85.7502V85.7438C272.243 84.812 271.49 84.0566 270.56 84.0566Z" fill="black"/>
<path opacity="0.1" d="M270.554 94.9427H181.197C180.75 94.9427 180.322 94.7649 180.007 94.4485C179.691 94.1321 179.514 93.703 179.514 93.2555C179.514 92.8081 179.691 92.3789 180.007 92.0625C180.322 91.7461 180.75 91.5684 181.197 91.5684H270.554C271 91.5684 271.428 91.7461 271.744 92.0625C272.06 92.3789 272.237 92.8081 272.237 93.2555C272.237 93.703 272.06 94.1321 271.744 94.4485C271.428 94.7649 271 94.9427 270.554 94.9427Z" fill="black"/>
<path opacity="0.1" d="M270.554 102.468H181.197C180.75 102.468 180.322 102.29 180.007 101.974C179.691 101.658 179.514 101.228 179.514 100.781C179.513 100.559 179.556 100.339 179.64 100.134C179.724 99.9292 179.848 99.7429 180.005 99.586C180.161 99.4292 180.347 99.305 180.552 99.2205C180.756 99.136 180.976 99.0929 181.197 99.0938H270.554C271 99.0938 271.428 99.2715 271.744 99.5879C272.06 99.9043 272.237 100.333 272.237 100.781C272.237 101.228 272.06 101.658 271.744 101.974C271.428 102.29 271 102.468 270.554 102.468Z" fill="black"/>
<path opacity="0.1" d="M270.554 109.986H181.197C180.75 109.986 180.322 109.808 180.007 109.492C179.691 109.176 179.514 108.747 179.514 108.299C179.513 108.077 179.556 107.857 179.64 107.651C179.724 107.446 179.848 107.259 180.004 107.102C180.161 106.945 180.347 106.82 180.551 106.735C180.756 106.649 180.975 106.605 181.197 106.605H270.554C271.001 106.607 271.429 106.786 271.744 107.104C272.06 107.421 272.237 107.851 272.237 108.299C272.237 108.747 272.06 109.176 271.744 109.492C271.428 109.808 271 109.986 270.554 109.986Z" fill="black"/>
<path opacity="0.1" d="M270.554 117.505H181.197C180.975 117.505 180.756 117.461 180.551 117.376C180.347 117.291 180.161 117.166 180.004 117.008C179.848 116.851 179.724 116.664 179.64 116.459C179.556 116.253 179.513 116.033 179.514 115.811C179.514 115.364 179.691 114.935 180.007 114.618C180.322 114.302 180.75 114.124 181.197 114.124H270.554C271 114.124 271.428 114.302 271.744 114.618C272.06 114.935 272.237 115.364 272.237 115.811C272.237 116.259 272.06 116.689 271.744 117.006C271.429 117.324 271.001 117.503 270.554 117.505Z" fill="black"/>
<path opacity="0.1" d="M219.354 125.017H181.197C180.75 125.017 180.322 124.839 180.007 124.523C179.691 124.206 179.514 123.777 179.514 123.33C179.514 122.882 179.691 122.453 180.007 122.137C180.322 121.82 180.75 121.643 181.197 121.643H219.354C219.8 121.643 220.228 121.82 220.544 122.137C220.86 122.453 221.037 122.882 221.037 123.33C221.037 123.777 220.86 124.206 220.544 124.523C220.228 124.839 219.8 125.017 219.354 125.017Z" fill="black"/>
<path d="M263.68 50.4093L263.559 50.3066C263.213 50.0436 263.015 50.1334 262.855 49.6266C262.739 49.261 262.855 48.8504 262.72 48.4719C262.415 47.8204 262.067 47.1903 261.677 46.5859L260.103 43.744C259.751 43.1147 259.165 42.6507 258.473 42.4535C257.781 42.2563 257.039 42.342 256.41 42.6919L241.914 50.7877C241.856 51.2753 241.453 51.6089 241.37 52.0708C241.341 52.2072 241.349 52.3488 241.391 52.4816C241.434 52.6143 241.51 52.7337 241.613 52.8277C241.45 52.8245 241.293 52.7682 241.165 52.6674C240.301 52.1862 240.071 51.8013 239.181 52.2889C238.797 52.4941 238.419 52.7123 238.042 52.9304L234.202 55.0794L222.17 61.796L208.09 69.6737L196.359 76.2235C194.759 77.1152 192.819 77.8978 191.392 79.0333C191.789 79.2386 191.859 79.5529 191.507 79.8609L190.867 80.4446C190.867 80.605 191.098 80.605 191.245 80.5409L192.039 80.2009C191.487 80.9026 190.823 81.5074 190.074 81.9907C188.815 82.723 187.463 83.2798 186.055 83.6458L186.733 82.7925C186.784 82.722 186.848 82.6322 186.803 82.5488C186.759 82.4654 186.675 82.459 186.599 82.4525C186.259 82.4141 185.92 82.4525 185.671 82.2024C183.482 83.4854 181.191 84.7042 178.963 85.9488C178.336 86.3011 177.873 86.8885 177.676 87.5822C177.479 88.276 177.565 89.0196 177.914 89.6503L192.531 115.952C192.704 116.264 192.937 116.539 193.216 116.761C193.495 116.982 193.814 117.147 194.157 117.245C194.499 117.342 194.858 117.371 195.211 117.33C195.565 117.289 195.907 117.178 196.218 117.004L200.064 114.829C200.064 114.374 200.423 113.867 200.154 113.45C200.116 113.4 200.091 113.34 200.083 113.277C200.083 113.194 200.16 113.129 200.231 113.085C200.625 112.834 201.076 112.688 201.543 112.661C201.703 112.661 201.914 112.732 201.888 112.886C201.888 112.745 202.714 112.449 202.848 112.405C202.912 112.751 202.675 113.123 203.079 113.194C203.482 113.264 204.096 112.552 204.359 112.424L208.199 110.275L220.359 103.494L233.696 96.0461L242.56 91.0937C242.88 90.9076 243.258 90.6895 243.565 90.5355C243.676 89.9473 243.962 89.4062 244.384 88.9831C245.024 88.5405 246.035 89.028 246.567 88.3993C246.669 88.2774 246.733 88.1299 246.823 88.0016C247.001 87.7929 247.219 87.6209 247.463 87.4948C247.617 87.373 247.804 87.2994 248 87.2831C248.192 87.2831 248.397 87.4435 248.371 87.6359C249.69 87.328 250.88 86.4363 252.045 85.7756C252.467 85.5382 256.173 83.7933 256.16 83.5175C256.109 82.6642 256.627 81.9329 256.602 81.0541C256.602 80.8873 256.275 79.771 256.423 79.6877C253.095 81.6763 249.639 83.4854 246.247 85.3714C246.131 85.442 245.696 85.5895 245.607 85.7178C245.607 85.7178 245.575 85.7756 245.562 85.8076L245.466 86.0193V86.0707C245.328 86.5072 245.166 86.9356 244.979 87.3537C244.979 87.4114 244.256 88.3095 244.199 88.0978C243.917 87.065 243.559 86.9046 242.771 87.328L241.645 87.9695L238.067 89.9646L226.016 96.7004L211.815 104.629L199.981 111.237L195.021 114.002C194.031 112.206 193.035 110.412 192.032 108.62L190.112 105.162C189.918 104.683 189.631 104.246 189.267 103.879C188.992 103.674 188.525 103.725 188.282 103.539C187.687 103.083 187.258 102.256 186.695 101.723C186.311 101.364 185.728 100.286 185.888 99.6899C186.08 99.7668 186.272 99.8502 186.464 99.908C186.364 99.513 186.386 99.0967 186.528 98.7148C184.608 95.4752 182.842 92.088 181.005 88.7778L180.883 88.5661L185.363 86.0642L188.634 84.2359C189.306 83.9461 189.949 83.5916 190.554 83.1775C190.97 82.8182 191.392 82.3692 191.834 81.9843C192.13 81.7583 192.452 81.5688 192.794 81.4197L194.003 80.8295C194.066 80.7921 194.136 80.7701 194.208 80.7654C194.28 80.7733 194.351 80.7906 194.419 80.8167C195.059 80.9514 196.647 79.7646 197.223 79.4439L200.947 77.3654L212.186 71.085L226.189 63.2715L240.205 55.4387L251.482 49.1455L257.242 45.9379L257.511 45.7904L263.738 56.9975C264.123 57.753 264.74 58.3646 265.498 58.7424C265.754 58.8258 266.042 59.0055 266.01 59.2685C265.978 59.5315 265.594 59.7496 265.683 60.019C265.773 60.2885 266.266 60.1858 266.381 60.4296C266.496 60.6734 266.183 61.0711 266.221 61.4047C266.353 61.8041 266.55 62.179 266.803 62.5145L268.615 65.7798C269.626 67.5888 270.631 69.4043 271.648 71.2326L260.576 77.4167C260.631 77.461 260.677 77.5154 260.711 77.5771L260.768 77.7246C260.988 77.8027 261.202 77.8971 261.408 78.0069C261.496 78.0563 261.569 78.1292 261.619 78.2174C261.669 78.3057 261.693 78.406 261.69 78.5073C261.688 78.6074 261.66 78.7053 261.608 78.791C261.557 78.8767 261.483 78.947 261.395 78.9948L260.717 79.3797C260.693 79.5285 260.624 79.6664 260.52 79.7752C260.416 79.884 260.282 79.9586 260.135 79.9892C260.056 79.9958 259.977 79.9958 259.898 79.9892C259.83 80.0386 259.753 80.0729 259.672 80.0895C259.59 80.1061 259.505 80.1047 259.424 80.0854C259.279 80.0407 259.157 79.9417 259.083 79.8091C259.009 79.6765 258.989 79.5204 259.027 79.3733C259.054 79.3073 259.088 79.2448 259.13 79.1873C259.081 79.0938 259.059 78.9888 259.066 78.8836C259.073 78.7784 259.108 78.6771 259.168 78.5907H258.963C258.848 78.5907 258.746 78.5265 258.637 78.4944C258.061 78.8508 257.613 79.3808 257.357 80.0084C257.329 80.0426 257.315 80.0862 257.319 80.1303C257.319 80.2201 257.459 80.2265 257.543 80.265C257.735 80.3548 257.69 80.6371 257.594 80.8231C257.498 81.0092 257.383 81.2465 257.511 81.4133C257.559 81.4695 257.613 81.521 257.671 81.5673C257.946 81.8816 257.523 82.7925 258.195 82.4205C258.148 82.2224 258.178 82.0136 258.279 81.8367C258.392 81.6581 258.568 81.5279 258.771 81.471C259.269 81.35 259.777 81.277 260.288 81.2529L273.632 73.773C274.26 73.4206 274.723 72.8332 274.92 72.1395C275.116 71.4457 275.031 70.7021 274.682 70.0715L274.605 69.9367L268.576 59.0889L265.095 52.8149C264.755 52.2183 264.455 51.596 264.083 51.0059C263.981 50.7868 263.845 50.5855 263.68 50.4093Z" fill="#4674EA"/>
<path d="M202.023 85.8524C201.582 85.3136 201.716 85.3007 201.633 84.7234C201.633 84.7234 201.633 84.7234 201.633 84.6849L201.582 84.6271L201.505 84.5373C201.204 84.672 200.903 84.8196 200.602 84.9864L194.708 88.2773L197.082 92.5433C196.75 91.9532 197.927 92.1264 197.972 92.12C198.097 92.083 198.226 92.0615 198.356 92.0558C198.484 92.0831 198.596 92.1589 198.67 92.2675C198.916 92.6989 198.989 93.2081 198.874 93.6916C198.804 94.3331 199.143 94.9747 198.778 95.6162C199.092 96.1294 201.927 101.3 201.94 101.293L207.834 98.0026C208.174 97.8101 208.98 97.4701 209.178 97.1301C209.377 96.7901 209.063 96.2577 209.415 96.0973C209.548 96.0486 209.69 96.0302 209.83 96.0435C209.971 96.0568 210.107 96.1015 210.228 96.1743C211.351 95.0601 212.072 93.6038 212.28 92.0339C212.487 90.4641 212.168 88.8697 211.374 87.5011C209.716 84.5181 205.953 82.7411 202.657 84.1268C202.426 84.223 202.734 85.2558 202.183 85.3713C202.288 85.1644 202.439 84.9845 202.625 84.8452L202.023 85.8524ZM206.298 95.5841L203.553 97.1173C203.329 96.7131 203.111 96.309 202.881 95.9177C203.169 96.4052 202.375 96.2513 202.209 96.1422C201.806 95.8728 201.697 95.0965 201.684 94.6603C201.674 93.9122 201.452 93.1824 201.044 92.5562C200.4 91.3886 199.76 90.2211 199.124 89.0535L201.87 87.5203C204.43 86.0834 206.99 86.68 208.372 89.169C209.754 91.6581 208.878 94.1664 206.298 95.5841Z" fill="#4674EA"/>
<path d="M221.511 74.928C221.651 75.2327 221.691 75.574 221.626 75.9031C221.594 76.0827 221.306 76.5446 221.344 76.6601C221.447 76.9167 221.549 77.1733 221.645 77.4299C221.662 77.4718 221.686 77.5108 221.715 77.5453C221.765 77.5785 221.822 77.5964 221.882 77.5967C222.899 77.6865 222.855 77.7891 222.919 78.6487C222.976 79.3865 223.61 79.8099 223.968 80.4514C224.449 81.2942 224.659 82.2658 224.567 83.2326C224.475 84.1994 224.087 85.1141 223.456 85.8508C222.824 86.5876 221.981 87.1104 221.041 87.3474C220.102 87.5844 219.112 87.5239 218.208 87.1744C218.184 87.1976 218.158 87.2191 218.131 87.2385C217.997 87.3064 217.843 87.3246 217.696 87.2898C217.363 87.1954 217.062 87.0126 216.825 86.7608C216.587 86.509 216.421 86.1975 216.346 85.8593C216.336 85.8084 216.336 85.7562 216.346 85.7053C216.165 85.4807 216.004 85.2402 215.866 84.9868C215.537 84.4567 215.321 83.8643 215.231 83.2467C215.141 82.629 215.179 81.9994 215.343 81.3972C215.507 80.795 215.793 80.2333 216.184 79.7471C216.574 79.2609 217.061 78.8608 217.613 78.5717C218.413 78.1142 219.331 77.9044 220.25 77.9687L220.199 77.8917C219.648 77.1604 221.632 76.8653 220.736 76.3714C220.359 76.1661 220.423 75.2359 220.327 74.8574C218.873 74.8903 217.45 75.2849 216.186 76.0057C212.09 78.2959 210.675 82.8314 212.826 86.6996C213.731 88.3639 215.227 89.6258 217.018 90.2344C217.439 90.4181 217.89 90.5225 218.349 90.5423C218.874 90.4974 218.618 90.5423 218.842 90.2279C219.066 89.9136 218.931 89.7789 219.271 89.4453C219.61 89.1117 220.007 88.9129 220.077 88.3996C220.077 88.6306 220.333 88.7974 220.333 89.0412C220.333 89.1117 220.333 89.1823 220.333 89.2464C220.347 89.3303 220.384 89.4083 220.442 89.471C220.659 89.7661 221.024 90.1125 221.031 90.4525C221.967 90.2968 222.866 89.966 223.68 89.4774C227.757 87.2 229.203 82.671 227.04 78.7899C225.92 76.8076 223.815 75.0563 221.511 74.928Z" fill="#4674EA"/>
<path d="M234.598 65.9981L238.989 73.8951L228.147 69.597L225.664 70.9891C227.341 74.0042 229.12 76.9872 230.694 80.06C230.803 79.7264 231.059 79.6622 231.366 79.6173C231.942 79.5404 231.923 79.829 232.237 80.4C232.275 80.4705 232.32 80.5411 232.39 80.5539C232.461 80.5668 232.602 80.4513 232.717 80.4641C232.832 80.477 232.877 80.6181 232.845 80.7271C232.804 80.834 232.751 80.9353 232.685 81.0287C232.499 81.3815 232.806 81.606 232.768 81.9268C232.768 82.0936 232.211 82.7736 232.275 82.889L232.915 83.9924L235.885 82.3373L235.091 80.9132H234.944C234.08 81.0287 234.464 79.8932 234.272 79.4249C233.961 78.7615 233.609 78.1187 233.216 77.5004L231.469 74.4147L240.282 77.8917C240.259 77.638 240.289 77.3823 240.371 77.1411C240.442 77.0064 241.011 76.7562 241.011 76.6279C241.044 77.0416 241.237 77.4261 241.549 77.6992C241.888 78.0007 241.888 77.9558 241.824 78.4883L242.349 78.7L244.819 77.3207L237.587 64.3174L234.598 65.9981Z" fill="#4674EA"/>
<path d="M249.517 71.5473L247.841 68.5387L253.869 65.1708L252.589 62.8293L246.567 66.1972L244.999 63.3681L249.069 61.0972C249.241 60.875 249.46 60.6932 249.709 60.5647C249.836 60.4997 249.982 60.4837 250.119 60.5198L251.841 59.564C251.841 59.564 250.618 57.3765 250.503 57.1455C249.914 57.4149 250.503 58.1591 249.908 58.5183C250.029 58.6466 250.209 59.1021 249.908 59.1598C249.735 59.1598 249.607 58.9417 249.434 58.961C249.261 58.9802 249.255 59.0636 249.165 59.038C249.138 59.0303 249.113 59.0164 249.092 58.9975C249.071 58.9786 249.054 58.9552 249.044 58.9289C248.961 58.7354 248.856 58.5524 248.73 58.3836C248.327 57.9923 244.647 60.4493 244.135 60.7379L240.711 62.6625L247.937 75.6658L250.823 74.0556L250.881 73.9787C251.092 73.7092 251.297 73.4334 251.521 73.1832C251.611 73.0965 251.728 73.0416 251.852 73.0266C251.977 73.0115 252.103 73.0372 252.212 73.0998C252.263 73.1268 252.309 73.1639 252.346 73.2088L257.985 70.0591L256.641 67.6406L249.517 71.5473Z" fill="#4674EA"/>
<path d="M257.216 209.908C257.216 209.908 253.005 200.708 257.811 191.631C262.618 182.554 264.019 180.418 260.954 178.564C257.888 176.71 256.474 185.819 256.474 185.819C256.474 185.819 253.914 179.545 256.019 172.989C258.125 166.433 259.495 155.732 256.583 154.584C253.671 153.436 256.026 167.921 253.498 172.861C252.209 169.393 251.376 165.773 251.021 162.09C250.675 156.816 251.219 148.4 248.915 146.238C246.611 144.076 245.146 145.597 247.405 157.208C248.763 164.162 249.515 171.222 249.651 178.307C249.651 178.307 244.653 163.039 241.331 162.596C238.01 162.154 237.984 167.087 240.858 171.379C243.731 175.67 249.235 183.343 250.138 187.32C250.138 187.32 244.659 175.837 239.725 179.353C234.791 182.868 244.019 189.816 248.128 192.324C252.237 194.832 255.098 210.543 255.098 210.543L257.216 209.908Z" fill="#4674EA"/>
<path opacity="0.2" d="M257.216 209.908C257.216 209.908 253.005 200.708 257.811 191.631C262.618 182.554 264.019 180.418 260.954 178.564C257.888 176.71 256.474 185.819 256.474 185.819C256.474 185.819 253.914 179.545 256.019 172.989C258.125 166.433 259.495 155.732 256.583 154.584C253.671 153.436 256.026 167.921 253.498 172.861C252.209 169.393 251.376 165.773 251.021 162.09C250.675 156.816 251.219 148.4 248.915 146.238C246.611 144.076 245.146 145.597 247.405 157.208C248.763 164.162 249.515 171.222 249.651 178.307C249.651 178.307 244.653 163.039 241.331 162.596C238.01 162.154 237.984 167.087 240.858 171.379C243.731 175.67 249.235 183.343 250.138 187.32C250.138 187.32 244.659 175.837 239.725 179.353C234.791 182.868 244.019 189.816 248.128 192.324C252.237 194.832 255.098 210.543 255.098 210.543L257.216 209.908Z" fill="black"/>
<path d="M253.889 213.686C253.889 213.686 257.991 204.416 253.076 195.416C248.161 186.415 246.733 184.298 249.78 182.393C252.826 180.488 254.337 189.584 254.337 189.584C254.337 189.584 256.845 183.278 254.637 176.754C252.429 170.23 250.957 159.549 253.857 158.362C256.756 157.175 254.573 171.693 257.159 176.587C258.407 173.105 259.195 169.473 259.501 165.784C259.789 160.505 259.143 152.095 261.421 149.901C263.7 147.707 265.191 149.182 263.066 160.851C261.792 167.822 261.126 174.89 261.076 181.976C261.076 181.976 265.889 166.638 269.236 166.144C272.583 165.65 272.634 170.589 269.818 174.92C267.002 179.25 261.562 187.012 260.698 190.957C260.698 190.957 266.042 179.41 271.015 182.842C275.988 186.274 266.849 193.363 262.772 195.929C258.695 198.495 256.001 214.263 256.001 214.263L253.889 213.686Z" fill="#4674EA"/>
<path d="M272.793 207.078H238.938L241.677 231.366H270.054L272.793 207.078Z" fill="#535353"/>
<path d="M99.6028 54.3682H77.2604C76.3999 54.3682 75.5745 54.7108 74.966 55.3208C74.3575 55.9307 74.0156 56.758 74.0156 57.6206V79.3934C74.0156 80.256 74.3575 81.0832 74.966 81.6932C75.5745 82.3031 76.3999 82.6458 77.2604 82.6458H84.4092L79.5964 89.202L87.9164 82.6458H99.5964C100.457 82.6458 101.282 82.3031 101.891 81.6932C102.499 81.0832 102.841 80.256 102.841 79.3934V57.6206C102.841 56.7591 102.5 55.9328 101.893 55.323C101.286 54.7133 100.462 54.3699 99.6028 54.3682Z" fill="#4674EA"/>
<path opacity="0.6" d="M99.6028 54.3682H77.2604C76.3999 54.3682 75.5745 54.7108 74.966 55.3208C74.3575 55.9307 74.0156 56.758 74.0156 57.6206V79.3934C74.0156 80.256 74.3575 81.0832 74.966 81.6932C75.5745 82.3031 76.3999 82.6458 77.2604 82.6458H84.4092L79.5964 89.202L87.9164 82.6458H99.5964C100.457 82.6458 101.282 82.3031 101.891 81.6932C102.499 81.0832 102.841 80.256 102.841 79.3934V57.6206C102.841 56.7591 102.5 55.9328 101.893 55.323C101.286 54.7133 100.462 54.3699 99.6028 54.3682Z" fill="white"/>
<path d="M88.435 78.6747C94.0374 78.6747 98.579 74.1223 98.579 68.5068C98.579 62.8912 94.0374 58.3389 88.435 58.3389C82.8326 58.3389 78.291 62.8912 78.291 68.5068C78.291 74.1223 82.8326 78.6747 88.435 78.6747Z" fill="#4674EA"/>
<path opacity="0.2" d="M96.8967 70.5027C98.0001 65.8166 95.1047 61.1212 90.4296 60.0151C85.7545 58.9091 81.0701 61.8114 79.9667 66.4975C78.8633 71.1836 81.7587 75.879 86.4338 76.9851C91.1089 78.0911 95.7933 75.1888 96.8967 70.5027Z" fill="black"/>
<path d="M87.3536 72.6705C87.2358 72.673 87.1186 72.6522 87.0088 72.6093C86.8989 72.5663 86.7986 72.5021 86.7136 72.4203L83.0208 68.7958C82.8511 68.6307 82.7537 68.4049 82.7501 68.1678C82.7465 67.9308 82.837 67.7021 83.0016 67.532C83.1663 67.3618 83.3916 67.2642 83.6281 67.2606C83.8645 67.257 84.0927 67.3477 84.2624 67.5127L87.2896 70.4829L92.5248 64.626C92.6854 64.4638 92.9018 64.3696 93.1297 64.3627C93.3575 64.3559 93.5792 64.4369 93.7491 64.5891C93.9191 64.7414 94.0242 64.9532 94.0429 65.1808C94.0616 65.4085 93.9924 65.6347 93.8496 65.8127L87.9936 72.3625C87.9129 72.4531 87.8143 72.526 87.7042 72.5768C87.5941 72.6276 87.4748 72.6551 87.3536 72.6576V72.6705Z" fill="white"/>
<path d="M59.4562 216.779L77.8946 214.957V194.114H85.2034V214.95L103.719 216.779C104.606 216.865 105.429 217.279 106.028 217.941C106.627 218.603 106.958 219.465 106.957 220.358V223.136H56.2178V220.358C56.2168 219.465 56.548 218.603 57.1468 217.941C57.7456 217.279 58.569 216.865 59.4562 216.779Z" fill="#535353"/>
<path opacity="0.1" d="M59.4562 216.779L77.8946 214.957V194.114H85.2034V214.95L103.719 216.779C104.606 216.865 105.429 217.279 106.028 217.941C106.627 218.603 106.958 219.465 106.957 220.358V223.136H56.2178V220.358C56.2168 219.465 56.548 218.603 57.1468 217.941C57.7456 217.279 58.569 216.865 59.4562 216.779Z" fill="white"/>
<path d="M105.005 231.366C107.646 231.366 109.786 229.221 109.786 226.574C109.786 223.928 107.646 221.782 105.005 221.782C102.365 221.782 100.225 223.928 100.225 226.574C100.225 229.221 102.365 231.366 105.005 231.366Z" fill="#535353"/>
<path d="M58.1695 231.366C60.8098 231.366 62.9503 229.221 62.9503 226.574C62.9503 223.928 60.8098 221.782 58.1695 221.782C55.5291 221.782 53.3887 223.928 53.3887 226.574C53.3887 229.221 55.5291 231.366 58.1695 231.366Z" fill="#535353"/>
<path d="M83.8148 199.695H79.258C78.557 199.695 77.8847 199.416 77.389 198.919C76.8933 198.422 76.6148 197.749 76.6148 197.046V176.556H86.458V197.046C86.458 197.749 86.1795 198.422 85.6838 198.919C85.1881 199.416 84.5158 199.695 83.8148 199.695Z" fill="#535353"/>
<path opacity="0.2" d="M83.8148 199.695H79.258C78.557 199.695 77.8847 199.416 77.389 198.919C76.8933 198.422 76.6148 197.749 76.6148 197.046V176.556H86.458V197.046C86.458 197.749 86.1795 198.422 85.6838 198.919C85.1881 199.416 84.5158 199.695 83.8148 199.695Z" fill="white"/>
<path d="M56.0256 136.397C56.0256 136.397 61.504 170.641 72.32 176.562H61.3248C61.3248 176.562 50.4448 164.887 47.168 136.397H56.0256Z" fill="#535353"/>
<path opacity="0.1" d="M56.0256 136.397C56.0256 136.397 61.504 170.641 72.32 176.562H61.3248C61.3248 176.562 50.4448 164.887 47.168 136.397H56.0256Z" fill="white"/>
<path d="M60.7996 171.719H103.628C104.477 171.719 105.291 172.057 105.891 172.658C106.491 173.26 106.828 174.076 106.828 174.926V179.218H57.5996V174.926C57.5996 174.076 57.9367 173.26 58.5369 172.658C59.137 172.057 59.9509 171.719 60.7996 171.719Z" fill="#4674EA"/>
<path d="M107.571 175.466H56.8128C56.1023 175.466 55.5264 176.043 55.5264 176.755V177.923C55.5264 178.635 56.1023 179.212 56.8128 179.212H107.571C108.282 179.212 108.858 178.635 108.858 177.923V176.755C108.858 176.043 108.282 175.466 107.571 175.466Z" fill="#535353"/>
<path opacity="0.6" d="M107.571 175.466H56.8128C56.1023 175.466 55.5264 176.043 55.5264 176.755V177.923C55.5264 178.635 56.1023 179.212 56.8128 179.212H107.571C108.282 179.212 108.858 178.635 108.858 177.923V176.755C108.858 176.043 108.282 175.466 107.571 175.466Z" fill="white"/>
<path d="M45.869 143.364H63.4626C68.621 143.364 71.9682 139.22 70.9442 134.107L69.5746 127.282C68.5506 122.15 63.5394 118.031 58.3874 118.031H40.7938C35.6354 118.031 32.2882 122.175 33.3122 127.282L34.6818 134.107C35.7058 139.207 40.7106 143.364 45.869 143.364Z" fill="#4674EA"/>
<path d="M139.226 200.722L135.194 202.307L132.295 196.828L129.658 191.844L134.125 189.162L136.826 195.276L139.226 200.722Z" fill="#FFF1E5"/>
<path opacity="0.2" d="M136.826 195.276L132.295 196.828L129.658 191.844L134.125 189.162L136.826 195.276Z" fill="black"/>
<path d="M135.987 192.286L130.502 195.237C130.502 195.237 109.773 158.703 106.586 159.011C103.398 159.319 73.1585 178.628 63.9361 171.495C54.7137 164.361 63.6865 142.884 63.6865 142.884C63.6865 142.884 82.7648 137.418 84.8064 141.601C85.3445 142.853 85.802 144.139 86.176 145.45C86.5792 146.765 86.8864 147.874 86.8864 147.874C87.4688 147.637 106.31 139.894 114.72 144.025C123.302 148.272 135.987 192.286 135.987 192.286Z" fill="#535353"/>
<path opacity="0.3" d="M135.987 192.286L130.502 195.237C130.502 195.237 109.773 158.703 106.586 159.011C103.398 159.319 73.1585 178.628 63.9361 171.495C54.7137 164.361 63.6865 142.884 63.6865 142.884C63.6865 142.884 82.7648 137.418 84.8064 141.601C85.3445 142.853 85.802 144.139 86.176 145.45C86.5792 146.765 86.8864 147.874 86.8864 147.874C87.4688 147.637 106.31 139.894 114.72 144.025C123.302 148.272 135.987 192.286 135.987 192.286Z" fill="white"/>
<path d="M106.189 222.077L101.888 221.583L101.863 215.502L101.856 209.921L107.06 209.677L106.599 216.239L106.189 222.077Z" fill="#FFF1E5"/>
<path opacity="0.2" d="M106.586 216.375L101.85 215.618V209.979L107.053 209.703L106.586 216.375Z" fill="black"/>
<path d="M127.821 193.421L135.847 189.393L136.685 192.805L130.605 195.949L127.821 193.421Z" fill="#4674EA"/>
<path d="M78.1826 171.552C78.1826 171.552 79.501 171.404 99.7826 167.639C99.7826 167.639 100.243 193.633 101.203 213.013L107.45 213.211C107.45 213.211 116.41 170.23 115.354 163.713C114.298 157.195 106.592 156.342 106.592 156.342C106.592 156.342 93.2098 166.792 78.1826 171.552Z" fill="#535353"/>
<path opacity="0.4" d="M78.1826 171.552C78.1826 171.552 79.501 171.404 99.7826 167.639C99.7826 167.639 100.243 193.633 101.203 213.013L107.45 213.211C107.45 213.211 116.41 170.23 115.354 163.713C114.298 157.195 106.592 156.342 106.592 156.342C106.592 156.342 93.2098 166.792 78.1826 171.552Z" fill="white"/>
<path opacity="0.3" d="M78.1826 171.552C78.1826 171.552 79.501 171.404 99.7826 167.639C99.7826 167.639 100.243 193.633 101.203 213.013L107.45 213.211C107.45 213.211 116.41 170.23 115.354 163.713C114.298 157.195 106.592 156.342 106.592 156.342C106.592 156.342 93.2098 166.792 78.1826 171.552Z" fill="black"/>
<path d="M100.058 211.281L108.576 211.082L107.411 214.597L100.499 214.662L100.058 211.281Z" fill="#4674EA"/>
<path opacity="0.3" d="M86.9122 147.887L75.8594 151.832C75.8594 151.832 81.6706 147.483 86.2018 145.462C86.605 146.777 86.9122 147.887 86.9122 147.887Z" fill="black"/>
<path d="M62.4062 141.562L62.8158 144.635L83.5327 140.228L83.0527 136.597L62.4062 141.562Z" fill="#535353"/>
<path opacity="0.2" d="M62.4062 141.562L62.8158 144.635L83.5327 140.228L83.0527 136.597L62.4062 141.562Z" fill="black"/>
<path d="M69.2712 139.33L68.2393 139.521L69.214 144.788L70.246 144.596L69.2712 139.33Z" fill="#535353"/>
<path d="M78.3044 137.996L73.7842 139.018L74.5566 142.453L79.0769 141.432L78.3044 137.996Z" fill="white"/>
<path d="M81.2112 135.851L80.1826 136.04L81.1445 141.289L82.1731 141.1L81.2112 135.851Z" fill="#535353"/>
<path opacity="0.3" d="M69.2712 139.33L68.2393 139.521L69.214 144.788L70.246 144.596L69.2712 139.33Z" fill="white"/>
<path opacity="0.3" d="M81.2112 135.851L80.1826 136.04L81.1445 141.289L82.1731 141.1L81.2112 135.851Z" fill="white"/>
<path d="M147.238 207.894C146.566 207.687 145.86 207.606 145.158 207.656C145.158 207.656 142.554 206.566 139.398 201.376L136.71 201.729C136.258 201.797 135.837 202.003 135.505 202.318C135.174 202.634 134.946 203.044 134.854 203.493C134.835 203.621 134.835 203.75 134.854 203.878C134.97 204.529 135.128 205.172 135.328 205.802C136.017 207.888 136.831 209.929 137.766 211.916L138.202 211.736L136.813 207.849C136.352 206.521 137.958 207.643 138.81 208.927C139.661 210.21 140.87 211.454 143.744 210.364C147.085 209.055 148.41 208.362 147.238 207.894Z" fill="#535353"/>
<path d="M138.727 199.997C138.727 199.997 143.04 206.566 145.159 207.657C145.159 207.657 142.784 209.581 139.616 206.489C135.527 202.518 134.842 203.878 134.842 203.878C134.805 203.1 134.842 202.321 134.951 201.55C135.277 200.042 138.727 199.997 138.727 199.997Z" fill="#FFF1E5"/>
<path d="M112.64 229.724C112.027 229.37 111.355 229.131 110.656 229.019C110.656 229.019 108.384 227.344 106.56 221.558L103.866 221.263C103.408 221.219 102.949 221.32 102.551 221.549C102.153 221.779 101.837 222.128 101.645 222.546C101.587 222.661 101.549 222.784 101.53 222.911C101.485 223.567 101.485 224.225 101.53 224.881C101.703 227.07 102.011 229.247 102.451 231.399L102.918 231.328L102.502 227.21C102.368 225.811 103.667 227.287 104.192 228.736C104.717 230.186 105.594 231.681 108.64 231.302C112.198 230.821 113.645 230.462 112.64 229.724Z" fill="#535353"/>
<path d="M106.24 220.038C106.24 220.038 108.877 227.447 110.675 229.019C110.675 229.019 107.917 230.302 105.555 226.568C102.515 221.738 101.536 222.899 101.536 222.899C101.679 222.136 101.894 221.389 102.176 220.666C102.855 219.255 106.24 220.038 106.24 220.038Z" fill="#FFF1E5"/>
<path d="M57.8947 89.1694L52.4803 90.26C52.2687 90.4386 52.0189 90.5657 51.7502 90.6313C51.4815 90.697 51.2012 90.6994 50.9315 90.6385C49.3187 89.9969 46.9955 88.1173 46.7011 87.4309C46.2659 86.4622 46.7011 83.6204 47.8403 83.1072C48.9795 82.594 52.9027 87.3411 52.9027 87.3411L58.7203 86.026L57.8947 89.1694Z" fill="#FFF1E5"/>
<path d="M74.9697 107.209C74.9697 107.209 74.4769 89.6256 72.4481 88.8751C70.4193 88.1245 55.1681 90.2222 55.1681 90.2222L54.7969 86.2064C54.7969 86.2064 72.5441 83.4672 75.9809 85.0902C79.4177 86.7132 80.5505 112.919 79.9233 117.967L74.9697 107.209Z" fill="#4674EA"/>
<path opacity="0.6" d="M74.9697 107.209C74.9697 107.209 74.4769 89.6256 72.4481 88.8751C70.4193 88.1245 55.1681 90.2222 55.1681 90.2222L54.7969 86.2064C54.7969 86.2064 72.5441 83.4672 75.9809 85.0902C79.4177 86.7132 80.5505 112.919 79.9233 117.967L74.9697 107.209Z" fill="white"/>
<path d="M55.4306 90.6069L54.3682 86.1933L55.8914 85.6416L56.8578 90.7416L55.4306 90.6069Z" fill="#4674EA"/>
<path opacity="0.7" d="M55.4306 90.6069L54.3682 86.1933L55.8914 85.6416L56.8578 90.7416L55.4306 90.6069Z" fill="white"/>
<path d="M74.8801 105.016C74.8801 105.016 73.5169 110.366 66.9505 112.072C60.3841 113.779 53.1201 109.32 53.1201 109.32L54.5665 122.086L62.6049 142.197L83.1489 136.828C83.1489 136.828 81.9201 113.432 74.8801 105.016Z" fill="#4674EA"/>
<path opacity="0.7" d="M74.8801 105.016C74.8801 105.016 73.5169 110.366 66.9505 112.072C60.3841 113.779 53.1201 109.32 53.1201 109.32L54.5665 122.086L62.6049 142.197L83.1489 136.828C83.1489 136.828 81.9201 113.432 74.8801 105.016Z" fill="white"/>
<path opacity="0.6" d="M78.451 126.229L80.8557 125.469C81.122 125.385 81.2698 125.1 81.1858 124.833L79.7531 120.281C79.6691 120.015 79.3851 119.866 79.1188 119.951L76.7141 120.711C76.4478 120.795 76.3 121.08 76.384 121.347L77.8167 125.899C77.9007 126.165 78.1847 126.314 78.451 126.229Z" fill="#4674EA"/>
<path opacity="0.2" d="M77.961 124.842L80.6953 123.978L79.5149 120.227L76.7806 121.092L77.961 124.842Z" fill="black"/>
<path d="M77.8689 118.871L77.2646 119.062L77.9598 121.271L78.564 121.08L77.8689 118.871Z" fill="#535353"/>
<path d="M60.9153 85.0322C55.8529 85.0322 52.5121 90.4081 53.6961 98.9337C54.8801 107.459 59.6225 109.916 59.6225 109.916L59.3217 107.857C64.5864 109.055 70.0143 109.358 75.3793 108.755C75.3793 108.755 72.9345 101.801 73.7281 94.6998C73.7281 94.6998 75.3345 85.0194 60.9153 85.0322Z" fill="#535353"/>
<path opacity="0.2" d="M70.9694 110.34L73.0366 118.038L69.4014 115.26C69.4014 115.26 72.9406 123.369 73.8814 128.09C73.8814 128.09 70.8222 120.052 68.1854 115.645L66.643 120.058L60.4414 113.727C60.4414 113.727 65.9198 109.519 70.9694 110.34Z" fill="black"/>
<path d="M67.9495 112.823L61.6391 113.015C64.4359 109.429 59.3799 103.181 59.3799 103.181L65.6135 104.534C67.0983 110.718 69.6647 110.904 69.6647 110.904L67.9495 112.823Z" fill="#FFF1E5"/>
<path opacity="0.2" d="M67.3543 108.973C64.9464 108.771 62.7068 107.654 61.0951 105.849C60.5971 104.922 60.0234 104.038 59.3799 103.206L65.6135 104.566C65.9436 106.122 66.532 107.612 67.3543 108.973Z" fill="black"/>
<path d="M65.6064 87.6427C71.04 88.0982 72.5504 91.1582 72.48 96.8099C72.3968 103.866 70.4256 108.723 63.7568 106.657C54.6944 103.854 56.576 86.8858 65.6064 87.6427Z" fill="#FFF1E5"/>
<path d="M68.9919 96.2266C69.3599 97.0772 69.8283 97.8806 70.3871 98.6194C70.2082 98.8297 69.9753 98.987 69.7135 99.0741C69.4518 99.1612 69.1712 99.1747 68.9023 99.1133L68.9919 96.2266Z" fill="#FFF1E5"/>
<path d="M65.3125 95.3156L66.4901 94.9307C66.4901 94.9307 65.8629 95.8673 65.3125 95.3156Z" fill="#535353"/>
<path d="M65.7214 95.1814C65.5025 95.0735 65.2518 95.0492 65.0163 95.1129C64.7808 95.1767 64.5764 95.3241 64.4414 95.5278C64.6423 95.436 64.8606 95.3884 65.0814 95.3884C65.3022 95.3884 65.5205 95.436 65.7214 95.5278V95.1814Z" fill="#535353"/>
<path d="M63.5333 92.5829C63.4728 92.5813 63.4153 92.556 63.3733 92.5123C63.351 92.4913 63.3333 92.4659 63.3211 92.4378C63.309 92.4097 63.3027 92.3794 63.3027 92.3487C63.3027 92.3181 63.309 92.2877 63.3211 92.2596C63.3333 92.2315 63.351 92.2061 63.3733 92.1851C63.7302 91.8722 64.1547 91.6468 64.6135 91.5265C65.0722 91.4063 65.5525 91.3946 66.0165 91.4923C66.0768 91.5051 66.1295 91.5413 66.1631 91.593C66.1967 91.6447 66.2084 91.7077 66.1957 91.7681C66.183 91.8285 66.1468 91.8814 66.0952 91.9151C66.0436 91.9488 65.9808 91.9605 65.9205 91.9478C65.5333 91.8685 65.1332 91.8775 64.7499 91.9741C64.3666 92.0707 64.0099 92.2524 63.7061 92.5059C63.6846 92.5306 63.6581 92.5502 63.6282 92.5635C63.5984 92.5768 63.566 92.5834 63.5333 92.5829Z" fill="#535353"/>
<path d="M72.0578 92.6792C72.0071 92.6812 71.9573 92.6653 71.917 92.6343C71.6609 92.399 71.3556 92.224 71.0235 92.1219C70.6914 92.0198 70.3407 91.9932 69.997 92.0441C69.9676 92.0521 69.9369 92.0543 69.9067 92.0504C69.8764 92.0465 69.8473 92.0366 69.8208 92.0215C69.7944 92.0063 69.7712 91.986 69.7525 91.9618C69.7339 91.9377 69.7202 91.91 69.7122 91.8806C69.7042 91.8511 69.7021 91.8203 69.706 91.79C69.7099 91.7597 69.7197 91.7304 69.7348 91.7039C69.75 91.6774 69.7702 91.6542 69.7943 91.6355C69.8184 91.6168 69.846 91.6031 69.8754 91.5951C70.2902 91.5215 70.7164 91.544 71.1212 91.6607C71.5261 91.7775 71.899 91.9854 72.2114 92.2687C72.2588 92.3076 72.2893 92.3635 72.2964 92.4245C72.3036 92.4855 72.2869 92.5469 72.2498 92.5958C72.2266 92.6239 72.1972 92.6461 72.1638 92.6606C72.1304 92.6751 72.0941 92.6815 72.0578 92.6792Z" fill="#535353"/>
<path d="M58.8803 96.3291C58.8803 96.3291 61.7923 92.0695 61.6963 88.5797C61.6963 88.5797 72.8387 85.0642 72.4611 96.0725C72.4611 96.0725 74.3171 86.4499 64.9923 85.4299C55.6675 84.4099 54.5859 98.151 59.0723 102.642C59.0723 102.642 57.0947 98.9978 58.8803 96.3291Z" fill="#535353"/>
<path d="M59.6927 97.5545C59.6927 96.9193 59.4414 96.31 58.9939 95.8603C58.5464 95.4105 57.9392 95.157 57.3055 95.1553C55.6031 95.2002 54.5151 98.6002 58.6367 99.787C59.2255 99.9538 59.6159 99.3956 59.6927 97.5545Z" fill="#FFF1E5"/>
<path d="M68.9476 100.718C68.549 101.254 68.1917 101.82 67.8788 102.411C67.77 102.373 67.6548 102.341 67.546 102.296C66.042 101.763 65.5172 101.013 65.3956 100.371C65.3382 100.045 65.3624 99.7102 65.466 99.396C65.5193 99.2153 65.5968 99.0427 65.6964 98.8828C66.4784 99.6278 67.4132 100.193 68.4356 100.538C68.7428 100.653 68.9476 100.718 68.9476 100.718Z" fill="#535353"/>
<path d="M68.4354 100.524L68.109 101.018C66.6882 100.511 65.7602 99.9661 65.4658 99.3823C65.5191 99.2016 65.5966 99.029 65.6962 98.8691C66.4782 99.6141 67.4131 100.179 68.4354 100.524Z" fill="white"/>
<path d="M67.5459 102.296C66.0419 101.763 65.5171 101.013 65.3955 100.371C65.9645 100.581 66.4912 100.892 66.9507 101.288C67.2486 101.554 67.4567 101.906 67.5459 102.296Z" fill="#FFF1E5"/>
<path d="M65.4595 88.047C65.4595 88.047 62.5219 96.8292 56.9027 96.2262C51.2835 95.6232 60.9155 85.0126 60.9155 85.0126C60.9155 85.0126 70.3939 82.2991 74.5219 87.5787C78.6499 92.8583 72.4803 96.0594 72.4803 96.0594C72.4803 96.0594 73.4019 89.1696 65.4595 88.047Z" fill="#535353"/>
<path d="M60.9788 95.5207C60.9463 95.5192 60.9149 95.5088 60.8878 95.4908C60.8608 95.4727 60.8391 95.4476 60.8252 95.4181C60.8106 95.3772 60.8124 95.3322 60.8303 95.2927C60.8483 95.2532 60.8809 95.2222 60.9212 95.2064C65.4012 93.4936 65.2988 87.4698 65.2988 87.4057C65.297 87.3847 65.2996 87.3635 65.3066 87.3437C65.3136 87.3238 65.3247 87.3057 65.3393 87.2905C65.3538 87.2753 65.3714 87.2634 65.391 87.2556C65.4105 87.2478 65.4314 87.2443 65.4524 87.2453C65.494 87.2466 65.5337 87.2629 65.5643 87.2911C65.5949 87.3194 65.6142 87.3578 65.6188 87.3992C65.6188 87.4634 65.7212 93.7117 61.0364 95.5079L60.9788 95.5207Z" fill="#535353"/>
<path d="M70.8291 95.8482L72.0067 95.4697C72.0067 95.4697 71.3731 96.3999 70.8291 95.8482Z" fill="#535353"/>
<path d="M71.239 95.7129C71.0196 95.6042 70.768 95.5802 70.532 95.6452C70.296 95.7102 70.0921 95.8599 69.959 96.0657C70.1569 95.967 70.3738 95.9124 70.5948 95.9058C70.8157 95.8991 71.0355 95.9406 71.239 96.0272V95.7129Z" fill="#535353"/>
<path d="M62.5286 110.423L67.2838 112.848L67.207 117.678L60.4102 113.707L62.5286 110.423Z" fill="#4674EA"/>
<path d="M68.0068 109.512L68.2884 112.443L71.3924 115.734L70.97 110.32L68.0068 109.512Z" fill="#4674EA"/>
<path d="M46.0354 76.3397L44.0514 71.2076C44.0876 70.9333 44.0596 70.6542 43.9696 70.3926C43.8796 70.1309 43.7301 69.8938 43.533 69.7001C42.1506 68.6673 39.2962 67.7307 38.5794 67.8397C37.5362 67.9937 35.3794 69.8861 35.565 71.1242C35.7506 72.3623 41.8434 73.1257 41.8434 73.1257L43.8658 78.7518L46.0354 76.3397Z" fill="#FFF1E5"/>
<path d="M54.5797 122.085C54.5797 122.085 58.4197 119.025 56.8901 112.264L52.7621 93.5576L45.6709 74.2354L42.2021 75.9931C42.2021 75.9931 48.0261 94.8726 48.5637 96.1492C48.8389 96.7908 49.9333 106.587 51.4245 113.149C52.7941 119.192 54.5797 122.085 54.5797 122.085Z" fill="#4674EA"/>
<path opacity="0.6" d="M54.5797 122.085C54.5797 122.085 58.4197 119.025 56.8901 112.264L52.7621 93.5576L45.6709 74.2354L42.2021 75.9931C42.2021 75.9931 48.0261 94.8726 48.5637 96.1492C48.8389 96.7908 49.9333 106.587 51.4245 113.149C52.7941 119.192 54.5797 122.085 54.5797 122.085Z" fill="white"/>
<path d="M41.5938 75.4418L45.645 73.4082L46.5281 74.7618L41.7922 76.8659L41.5938 75.4418Z" fill="#4674EA"/>
<path opacity="0.7" d="M41.5938 75.4418L45.645 73.4082L46.5281 74.7618L41.7922 76.8659L41.5938 75.4418Z" fill="white"/>
<path opacity="0.6" d="M62.5286 110.423L67.2838 112.848L67.207 117.678L60.4102 113.707L62.5286 110.423Z" fill="white"/>
<path opacity="0.6" d="M68.0068 109.512L68.2884 112.443L71.3924 115.734L70.97 110.32L68.0068 109.512Z" fill="white"/>
<path d="M203.046 100.338H183.872V115.272H203.046V100.338Z" fill="white"/>
<path opacity="0.1" d="M203.046 100.338H198.131V115.272H203.046V100.338Z" fill="black"/>
<path d="M182.771 128.462H204.447V101.358H197.465L182.771 108.409V128.462Z" fill="#4674EA"/>
<path opacity="0.2" d="M204.447 101.358H197.465V128.462H204.447V101.358Z" fill="black"/>
<path opacity="0.7" d="M195.155 113.752H185.005V118.627H195.155V113.752Z" fill="white"/>
<path opacity="0.7" d="M195.155 120.257H185.005V120.956H195.155V120.257Z" fill="white"/>
<path opacity="0.7" d="M203.769 122.304H198.131V126.441H203.769V122.304Z" fill="white"/>
<path d="M194.899 99.5234H175.725V115.272H194.899V99.5234Z" fill="white"/>
<path opacity="0.1" d="M194.899 99.5234H189.983V115.272H194.899V99.5234Z" fill="black"/>
<path d="M174.624 128.462H196.301V101.358H189.318L174.624 108.409V128.462Z" fill="#4674EA"/>
<path opacity="0.2" d="M196.301 101.358H189.318V128.462H196.301V101.358Z" fill="black"/>
<path opacity="0.7" d="M187.008 113.752H176.857V118.627H187.008V113.752Z" fill="white"/>
<path opacity="0.7" d="M187.008 120.257H176.857V120.956H187.008V120.257Z" fill="white"/>
<path opacity="0.7" d="M195.622 122.304H189.983V126.441H195.622V122.304Z" fill="white"/>
<path d="M161.158 231.366H165.081L172.121 133.055H166.918L161.158 231.366Z" fill="#535353"/>
<path opacity="0.1" d="M161.158 231.366H165.081L171.776 137.937L172.121 133.216H166.918L166.643 137.937L161.158 231.366Z" fill="white"/>
<path opacity="0.2" d="M166.643 137.706H171.775L172.121 133.216H166.918L166.643 137.706Z" fill="black"/>
<path d="M132.384 231.366H136.307L136.947 133.055H131.744L132.384 231.366Z" fill="#535353"/>
<path opacity="0.1" d="M131.737 133.216L131.846 149.074L132.377 231.366H136.301L136.838 149.074L136.941 133.216H131.737Z" fill="white"/>
<path opacity="0.2" d="M131.737 133.216L131.846 149.254H136.838L136.941 133.216H131.737Z" fill="black"/>
<path d="M90.7578 231.366H94.681L101.721 133.055H96.5178L90.7578 231.366Z" fill="#535353"/>
<path opacity="0.1" d="M90.7578 231.366H94.681L101.382 137.937L101.721 133.216H96.5178L96.2426 137.937L90.7578 231.366Z" fill="white"/>
<path opacity="0.2" d="M96.2432 137.706H101.382L101.722 133.216H96.5184L96.2432 137.706Z" fill="black"/>
<path d="M206.009 231.366H209.932L204.166 133.055H198.963L206.009 231.366Z" fill="#535353"/>
<path opacity="0.1" d="M198.963 133.216L199.315 137.937L206.009 231.366H209.926L204.448 137.937L204.166 133.216H198.963Z" fill="white"/>
<path opacity="0.2" d="M204.166 133.216H198.963L199.315 137.706H204.448L204.166 133.216Z" fill="black"/>
<path d="M206.912 135.519H93.7851C93.6036 135.519 93.4238 135.483 93.2561 135.413C93.0884 135.343 92.936 135.241 92.8076 135.113C92.6793 134.984 92.5774 134.831 92.508 134.663C92.4385 134.495 92.4027 134.315 92.4027 134.133V130.598H208.294V134.133C208.294 134.315 208.258 134.495 208.189 134.663C208.119 134.831 208.017 134.984 207.889 135.113C207.761 135.241 207.608 135.343 207.441 135.413C207.273 135.483 207.093 135.519 206.912 135.519Z" fill="#4674EA"/>
<path opacity="0.4" d="M206.912 135.519H93.7851C93.6036 135.519 93.4238 135.483 93.2561 135.413C93.0884 135.343 92.936 135.241 92.8076 135.113C92.6793 134.984 92.5774 134.831 92.508 134.663C92.4385 134.495 92.4027 134.315 92.4027 134.133V130.598H208.294V134.133C208.294 134.315 208.258 134.495 208.189 134.663C208.119 134.831 208.017 134.984 207.889 135.113C207.761 135.241 207.608 135.343 207.441 135.413C207.273 135.483 207.093 135.519 206.912 135.519Z" fill="white"/>
<path opacity="0.2" d="M92.4027 133.055L208.294 133.055V130.591H92.4027V133.055Z" fill="black"/>
<path d="M89.9708 131.233H210.72C210.901 131.234 211.082 131.199 211.25 131.129C211.418 131.06 211.57 130.958 211.699 130.829C211.828 130.7 211.929 130.547 211.999 130.379C212.068 130.21 212.103 130.03 212.102 129.848C212.102 129.48 211.956 129.128 211.697 128.868C211.438 128.608 211.086 128.462 210.72 128.462H89.9708C89.6036 128.462 89.2513 128.608 88.9911 128.867C88.7308 129.127 88.5837 129.479 88.582 129.848C88.582 130.03 88.618 130.211 88.6879 130.379C88.7577 130.548 88.8601 130.701 88.9892 130.83C89.1182 130.958 89.2714 131.06 89.4398 131.13C89.6083 131.199 89.7888 131.234 89.9708 131.233Z" fill="#4674EA"/>
<path opacity="0.4" d="M89.9708 131.233H210.72C210.901 131.234 211.082 131.199 211.25 131.129C211.418 131.06 211.57 130.958 211.699 130.829C211.828 130.7 211.929 130.547 211.999 130.379C212.068 130.21 212.103 130.03 212.102 129.848C212.102 129.48 211.956 129.128 211.697 128.868C211.438 128.608 211.086 128.462 210.72 128.462H89.9708C89.6036 128.462 89.2513 128.608 88.9911 128.867C88.7308 129.127 88.5837 129.479 88.582 129.848C88.582 130.03 88.618 130.211 88.6879 130.379C88.7577 130.548 88.8601 130.701 88.9892 130.83C89.1182 130.958 89.2714 131.06 89.4398 131.13C89.6083 131.199 89.7888 131.234 89.9708 131.233Z" fill="white"/>
<path d="M184.774 128.45V126.281H186.227L184.774 125.434H185.862L184.409 124.485H183.033V123.394H184.633L183.033 122.759V120.392H184.633V118.846H186.227L184.633 118.307V117.204H185.772L184.838 116.274L184.032 115.459H159.302V116.569H157.67L159.488 117.39V118.307H156.153V120.014H154.675L156.153 120.758V122.663H157.203V123.574H159.302V126.281H158.124L159.091 127.25V128.462L184.774 128.45Z" fill="#4674EA"/>
<path opacity="0.7" d="M184.774 128.45V126.281H186.227L184.774 125.434H185.862L184.409 124.485H183.033V123.394H184.633L183.033 122.759V120.392H184.633V118.846H186.227L184.633 118.307V117.204H185.772L184.838 116.274L184.032 115.459H159.302V116.569H157.67L159.488 117.39V118.307H156.153V120.014H154.675L156.153 120.758V122.663H157.203V123.574H159.302V126.281H158.124L159.091 127.25V128.462L184.774 128.45Z" fill="white"/>
<path opacity="0.1" d="M184.774 128.45V126.281H186.227L184.774 125.434H185.862L184.409 124.485H183.033V123.394H184.633L183.033 122.759V120.392H184.633V118.846H186.227L184.633 118.307V117.204H185.772L184.838 116.274L184.032 115.459H171.008V116.569H169.376L171.187 117.39V118.307H167.852V120.014H166.374L167.852 120.758V122.663H168.902V123.574H171.008V126.281H169.83L170.79 127.25V128.462L184.774 128.45Z" fill="black"/>
<path opacity="0.1" d="M159.487 118.307H171.187L159.487 117.884V118.307Z" fill="black"/>
<path opacity="0.1" d="M159.302 123.573H171.007L171.059 124.394L159.302 123.573Z" fill="black"/>
<path opacity="0.1" d="M157.203 122.662H168.902L157.203 123.073V122.662Z" fill="black"/>
<path opacity="0.1" d="M159.302 126.28H171.007L159.302 125.851V126.28Z" fill="black"/>
<path opacity="0.1" d="M159.091 127.25H170.79V127.699L159.091 127.25Z" fill="black"/>
<path opacity="0.1" d="M156.153 120.013H167.853L156.153 119.641V120.013Z" fill="black"/>
<path opacity="0.1" d="M159.302 116.569H171.007L159.302 116.158V116.569Z" fill="black"/>
<path opacity="0.1" d="M184.633 117.203H172.761L184.633 117.569V117.203Z" fill="black"/>
<path opacity="0.1" d="M171.187 118.307H184.633L172.441 118.704L171.187 118.307Z" fill="black"/>
<path opacity="0.1" d="M167.853 120.014L184.633 120.392V120.014H167.853Z" fill="black"/>
<path opacity="0.1" d="M167.853 120.758H176.153L167.853 121.162V120.758Z" fill="black"/>
<path opacity="0.1" d="M183.033 122.759L171.008 122.663L183.033 122.394V122.759Z" fill="black"/>
<path opacity="0.1" d="M183.033 123.394H170.79L183.033 123.804V123.394Z" fill="black"/>
<path opacity="0.1" d="M184.774 125.434H171.187V125.851L184.774 125.434Z" fill="black"/>
<path opacity="0.1" d="M184.774 126.281H174.931L184.774 126.557V126.281Z" fill="black"/>
<path d="M153.286 125.652V127.712C153.286 128.238 152.646 128.456 152.141 128.456H111.104C110.579 128.456 109.945 128.238 109.945 127.712V125.652H153.286Z" fill="#535353"/>
<path opacity="0.4" d="M153.286 125.652V127.712C153.286 128.238 152.646 128.456 152.141 128.456H111.104C110.579 128.456 109.945 128.238 109.945 127.712V125.652H153.286Z" fill="white"/>
<path opacity="0.2" d="M153.286 125.652V127.712C153.286 128.238 152.646 128.456 152.14 128.456H125.075C124.55 128.456 123.923 128.238 123.923 127.712V125.652H153.286Z" fill="black"/>
<path d="M160.153 104.277L155.264 126.493C155.18 126.853 154.978 127.175 154.69 127.408C154.403 127.64 154.046 127.77 153.677 127.776H126.995C126.829 127.772 126.666 127.73 126.519 127.653C126.372 127.575 126.245 127.465 126.147 127.33C126.05 127.195 125.985 127.04 125.958 126.875C125.931 126.711 125.942 126.543 125.99 126.384L130.867 104.341C130.967 104.005 131.179 103.713 131.468 103.515C131.757 103.316 132.105 103.223 132.454 103.251H159.142C159.859 103.225 160.307 103.552 160.153 104.277Z" fill="#535353"/>
<path opacity="0.4" d="M160.153 104.277L155.264 126.492C155.18 126.853 154.978 127.175 154.69 127.407C154.403 127.64 154.046 127.769 153.677 127.775H127.897C127.731 127.772 127.568 127.729 127.421 127.652C127.274 127.575 127.147 127.464 127.05 127.329C126.952 127.195 126.888 127.039 126.86 126.875C126.833 126.711 126.844 126.542 126.893 126.383L131.776 104.341C131.875 104.004 132.087 103.711 132.376 103.513C132.665 103.314 133.014 103.221 133.363 103.25H159.142C159.859 103.225 160.307 103.552 160.153 104.277Z" fill="white"/>
<path opacity="0.2" d="M146.995 115.567C146.995 117.492 144.96 119.012 143.468 119.012C141.977 119.012 141.094 117.466 141.548 115.567C142.003 113.669 143.468 112.187 144.915 112.129C144.492 114.053 145.401 115.567 146.886 115.567H146.995Z" fill="black"/>
</svg>
