<svg width="404" height="300" viewBox="0 0 404 300" fill="none" xmlns="http://www.w3.org/2000/svg">
<path d="M403.309 263.636H0.689453V263.837H403.309V263.636Z" fill="#EBEBEB"/>
<path d="M269.502 270.617H242.832V270.818H269.502V270.617Z" fill="#EBEBEB"/>
<path d="M325.917 277.123H318.92V277.324H325.917V277.123Z" fill="#EBEBEB"/>
<path d="M286.372 274.104H270.92V274.305H286.372V274.104Z" fill="#EBEBEB"/>
<path d="M77.7099 270.472H42.9316V270.673H77.7099V270.472Z" fill="#EBEBEB"/>
<path d="M202.804 270.472H197.707V270.673H202.804V270.472Z" fill="#EBEBEB"/>
<path d="M151.269 273.975H114.783V274.176H151.269V273.975Z" fill="#EBEBEB"/>
<path d="M191.531 227.722H36.0469C34.8288 227.72 33.6614 227.234 32.8009 226.372C31.9403 225.51 31.457 224.342 31.457 223.124V4.55765C31.4676 3.3466 31.9556 2.18862 32.815 1.33526C33.6744 0.481902 34.8358 0.00207461 36.0469 0H191.531C192.75 0 193.92 0.484422 194.782 1.3467C195.644 2.20898 196.129 3.37847 196.129 4.59792V223.124C196.129 224.343 195.644 225.513 194.782 226.375C193.92 227.237 192.75 227.722 191.531 227.722ZM36.0469 0.161048C34.8822 0.163182 33.766 0.627334 32.9432 1.45163C32.1204 2.27592 31.6583 3.393 31.6583 4.55765V223.124C31.6583 224.288 32.1204 225.406 32.9432 226.23C33.766 227.054 34.8822 227.518 36.0469 227.52H191.531C192.696 227.518 193.813 227.054 194.637 226.23C195.461 225.406 195.925 224.289 195.927 223.124V4.55765C195.925 3.39226 195.461 2.2752 194.637 1.45114C193.813 0.627072 192.696 0.163177 191.531 0.161048H36.0469Z" fill="#EBEBEB"/>
<path d="M365.713 227.722H210.221C209.002 227.72 207.834 227.234 206.972 226.373C206.11 225.511 205.625 224.343 205.623 223.124V4.55765C205.636 3.34586 206.126 2.1879 206.986 1.33476C207.847 0.481621 209.009 0.00205198 210.221 0H365.713C366.922 0.00419086 368.082 0.484955 368.939 1.33809C369.797 2.19122 370.284 3.34799 370.295 4.55765V223.124C370.295 224.34 369.812 225.507 368.954 226.369C368.095 227.231 366.929 227.717 365.713 227.722ZM210.221 0.161048C209.056 0.163177 207.939 0.627072 207.114 1.45114C206.29 2.2752 205.826 3.39226 205.824 4.55765V223.124C205.826 224.289 206.29 225.406 207.114 226.23C207.939 227.054 209.056 227.518 210.221 227.52H365.713C366.878 227.518 367.995 227.054 368.819 226.23C369.643 225.406 370.107 224.289 370.109 223.124V4.55765C370.107 3.39226 369.643 2.2752 368.819 1.45114C367.995 0.627072 366.878 0.163177 365.713 0.161048H210.221Z" fill="#EBEBEB"/>
<path d="M173.672 25.4136H59.6016V153.922H173.672V25.4136Z" fill="#EBEBEB"/>
<path d="M167.64 32.2095H65.6406V147.125H167.64V32.2095Z" fill="#FAFAFA"/>
<path d="M100.982 147.125H83.7422L99.9758 32.2095H117.216L100.982 147.125Z" fill="white"/>
<path d="M136.243 147.125H127.619L143.853 32.2095H152.477L136.243 147.125Z" fill="white"/>
<path d="M120.703 32.2095H112.578V147.125H120.703V32.2095Z" fill="#EBEBEB"/>
<path d="M120.702 147.125H122.514L122.514 32.2098H120.702L120.702 147.125Z" fill="#E0E0E0"/>
<path d="M173.67 153.921H174.967L174.967 25.4132H173.67L173.67 153.921Z" fill="#E0E0E0"/>
<path d="M65.0046 167.039H59.8269C54.4903 167.039 50.1641 171.365 50.1641 176.702V243.086C50.1641 248.423 54.4903 252.749 59.8269 252.749H65.0046C70.3413 252.749 74.6675 248.423 74.6675 243.086V176.702C74.6675 171.365 70.3413 167.039 65.0046 167.039Z" fill="#F5F5F5"/>
<path d="M70.2374 169.906H68.635C64.5035 169.906 61.1543 173.255 61.1543 177.386V242.41C61.1543 246.541 64.5035 249.89 68.635 249.89H70.2374C74.3689 249.89 77.7181 246.541 77.7181 242.41V177.386C77.7181 173.255 74.3689 169.906 70.2374 169.906Z" fill="#EBEBEB"/>
<path d="M82.8074 167.039H77.6297C72.293 167.039 67.9668 171.365 67.9668 176.702V243.086C67.9668 248.423 72.293 252.749 77.6297 252.749H82.8074C88.144 252.749 92.4702 248.423 92.4702 243.086V176.702C92.4702 171.365 88.144 167.039 82.8074 167.039Z" fill="#F5F5F5"/>
<path d="M88.0262 169.906H86.4318C82.3004 169.906 78.9512 173.255 78.9512 177.386V242.41C78.9512 246.541 82.3004 249.89 86.4318 249.89H88.0262C92.1577 249.89 95.5069 246.541 95.5069 242.41V177.386C95.5069 173.255 92.1577 169.906 88.0262 169.906Z" fill="#EBEBEB"/>
<path d="M100.604 167.039H95.4265C90.0899 167.039 85.7637 171.365 85.7637 176.702V243.086C85.7637 248.423 90.0899 252.749 95.4265 252.749H100.604C105.941 252.749 110.267 248.423 110.267 243.086V176.702C110.267 171.365 105.941 167.039 100.604 167.039Z" fill="#F5F5F5"/>
<path d="M105.821 169.906H104.227C100.095 169.906 96.7461 173.255 96.7461 177.386V242.41C96.7461 246.541 100.095 249.89 104.227 249.89H105.821C109.953 249.89 113.302 246.541 113.302 242.41V177.386C113.302 173.255 109.953 169.906 105.821 169.906Z" fill="#EBEBEB"/>
<path d="M118.399 167.039H113.221C107.885 167.039 103.559 171.365 103.559 176.702V243.086C103.559 248.423 107.885 252.749 113.221 252.749H118.399C123.736 252.749 128.062 248.423 128.062 243.086V176.702C128.062 171.365 123.736 167.039 118.399 167.039Z" fill="#F5F5F5"/>
<path d="M123.618 169.906H122.024C117.892 169.906 114.543 173.255 114.543 177.386V242.41C114.543 246.541 117.892 249.89 122.024 249.89H123.618C127.749 249.89 131.099 246.541 131.099 242.41V177.386C131.099 173.255 127.749 169.906 123.618 169.906Z" fill="#EBEBEB"/>
<path d="M136.196 167.039H131.018C125.682 167.039 121.355 171.365 121.355 176.702V243.086C121.355 248.423 125.682 252.749 131.018 252.749H136.196C141.533 252.749 145.859 248.423 145.859 243.086V176.702C145.859 171.365 141.533 167.039 136.196 167.039Z" fill="#F5F5F5"/>
<path d="M141.429 169.906H139.826C135.695 169.906 132.346 173.255 132.346 177.386V242.41C132.346 246.541 135.695 249.89 139.826 249.89H141.429C145.56 249.89 148.909 246.541 148.909 242.41V177.386C148.909 173.255 145.56 169.906 141.429 169.906Z" fill="#EBEBEB"/>
<path d="M153.999 167.039H148.821C143.484 167.039 139.158 171.365 139.158 176.702V243.086C139.158 248.423 143.484 252.749 148.821 252.749H153.999C159.335 252.749 163.662 248.423 163.662 243.086V176.702C163.662 171.365 159.335 167.039 153.999 167.039Z" fill="#F5F5F5"/>
<path d="M159.226 169.906H157.623C153.492 169.906 150.143 173.255 150.143 177.386V242.41C150.143 246.541 153.492 249.89 157.623 249.89H159.226C163.357 249.89 166.706 246.541 166.706 242.41V177.386C166.706 173.255 163.357 169.906 159.226 169.906Z" fill="#EBEBEB"/>
<path d="M171.796 167.039H166.618C161.281 167.039 156.955 171.365 156.955 176.702V243.086C156.955 248.423 161.281 252.749 166.618 252.749H171.796C177.132 252.749 181.459 248.423 181.459 243.086V176.702C181.459 171.365 177.132 167.039 171.796 167.039Z" fill="#F5F5F5"/>
<path d="M183.101 243.231H161.778C161.351 243.231 160.942 243.061 160.64 242.759C160.338 242.457 160.168 242.047 160.168 241.62C160.168 241.193 160.338 240.783 160.64 240.481C160.942 240.179 161.351 240.01 161.778 240.01H183.101C183.528 240.01 183.938 240.179 184.24 240.481C184.542 240.783 184.712 241.193 184.712 241.62C184.712 242.047 184.542 242.457 184.24 242.759C183.938 243.061 183.528 243.231 183.101 243.231Z" fill="#F5F5F5"/>
<path d="M183.101 181.896H161.778C161.351 181.896 160.942 181.726 160.64 181.424C160.338 181.122 160.168 180.712 160.168 180.285C160.168 179.858 160.338 179.449 160.64 179.147C160.942 178.844 161.351 178.675 161.778 178.675H183.101C183.528 178.675 183.938 178.844 184.24 179.147C184.542 179.449 184.712 179.858 184.712 180.285C184.712 180.712 184.542 181.122 184.24 181.424C183.938 181.726 183.528 181.896 183.101 181.896Z" fill="#F5F5F5"/>
<path d="M356.919 120.609H292.5L298.209 67.6406H351.21L356.919 120.609Z" fill="#EBEBEB"/>
<path d="M342.779 120.609H331.707L329.363 67.6406H339.582L342.779 120.609Z" fill="#F5F5F5"/>
<path d="M327.93 120.609H321.488V263.636H327.93V120.609Z" fill="#F0F0F0"/>
<path d="M327.875 174.27H321.546C319.972 174.27 318.695 175.546 318.695 177.121V183.45C318.695 185.024 319.972 186.3 321.546 186.3H327.875C329.449 186.3 330.726 185.024 330.726 183.45V177.121C330.726 175.546 329.449 174.27 327.875 174.27Z" fill="#F0F0F0"/>
<path d="M334.905 263.635H314.508C314.508 262.482 314.966 261.376 315.781 260.561C316.597 259.745 317.703 259.287 318.856 259.287H330.564C331.135 259.287 331.7 259.4 332.227 259.618C332.754 259.837 333.233 260.157 333.636 260.561C334.039 260.965 334.359 261.444 334.576 261.972C334.794 262.499 334.906 263.065 334.905 263.635Z" fill="#F0F0F0"/>
<path d="M327.93 120.609H321.488V124.547H327.93V120.609Z" fill="#E0E0E0"/>
<path d="M273.592 34.3599H224.924V143.156H273.592V34.3599Z" fill="#F0F0F0"/>
<path d="M273.593 143.147H275.203V34.3516H273.593V143.147Z" fill="#E0E0E0"/>
<path d="M265.372 40.2622H233.162V137.245H265.372V40.2622Z" fill="#FAFAFA"/>
<path d="M254.953 87.771C255.145 88.8967 255 90.0543 254.534 91.0972C254.069 92.1402 253.304 93.0216 252.338 93.6301C251.371 94.2385 250.246 94.5466 249.104 94.5155C247.962 94.4843 246.856 94.1152 245.924 93.4549C244.992 92.7945 244.277 91.8727 243.869 90.8059C243.461 89.7391 243.379 88.5753 243.632 87.4617C243.886 86.3481 244.464 85.3348 245.294 84.5499C246.124 83.765 247.168 83.2438 248.293 83.0523C249.802 82.7978 251.35 83.1515 252.598 84.0359C253.846 84.9204 254.693 86.2634 254.953 87.771Z" fill="#F0F0F0"/>
<path d="M251.118 65.289C251.309 66.4148 251.162 67.5719 250.695 68.614C250.229 69.6561 249.463 70.5364 248.496 71.1437C247.529 71.7509 246.404 72.0578 245.263 72.0256C244.121 71.9933 243.015 71.6233 242.084 70.9624C241.153 70.3015 240.439 69.3794 240.032 68.3126C239.625 67.2458 239.543 66.0822 239.797 64.969C240.051 63.8559 240.63 62.8431 241.46 62.0587C242.289 61.2743 243.333 60.7535 244.459 60.5623C245.207 60.4342 245.972 60.4549 246.712 60.6233C247.452 60.7916 248.151 61.1043 248.77 61.5434C249.388 61.9826 249.914 62.5394 250.317 63.1822C250.72 63.8249 250.992 64.5409 251.118 65.289Z" fill="#F0F0F0"/>
<path d="M258.776 110.318C258.967 111.444 258.82 112.601 258.354 113.644C257.887 114.686 257.121 115.567 256.154 116.174C255.186 116.782 254.061 117.088 252.919 117.056C251.777 117.023 250.671 116.652 249.74 115.991C248.809 115.329 248.095 114.406 247.688 113.338C247.282 112.271 247.201 111.107 247.457 109.994C247.712 108.88 248.292 107.868 249.123 107.084C249.954 106.3 250.999 105.781 252.125 105.591C252.872 105.463 253.637 105.484 254.377 105.652C255.116 105.821 255.814 106.133 256.432 106.573C257.05 107.012 257.576 107.569 257.978 108.211C258.38 108.854 258.651 109.57 258.776 110.318Z" fill="#F0F0F0"/>
<path d="M201.999 300C288.226 300 358.127 295.919 358.127 290.884C358.127 285.85 288.226 281.769 201.999 281.769C115.772 281.769 45.8711 285.85 45.8711 290.884C45.8711 295.919 115.772 300 201.999 300Z" fill="#F5F5F5"/>
<path d="M245.571 82.6827C245.789 82.0797 246.182 81.5555 246.699 81.1769C246.518 80.8341 246.41 80.4573 246.382 80.0705C246.354 79.6837 246.407 79.2954 246.538 78.9303C246.664 78.5785 246.858 78.2551 247.11 77.9787C247.361 77.7023 247.665 77.4784 248.003 77.3198C247.692 76.9483 247.497 76.4929 247.444 76.0109C247.39 75.529 247.481 75.042 247.704 74.6114C247.927 74.1808 248.272 73.8259 248.697 73.5914C249.121 73.3569 249.606 73.2533 250.089 73.2936C250.068 73.0225 250.095 72.7499 250.169 72.4883C250.349 71.9105 250.745 71.4247 251.275 71.1333C251.805 70.8419 252.428 70.7676 253.012 70.9262C252.818 70.4525 252.793 69.9267 252.939 69.4365C253.118 68.8501 253.522 68.3583 254.062 68.0686C254.602 67.7789 255.235 67.7148 255.822 67.8904H255.911C255.912 67.6754 255.942 67.4615 255.999 67.2543C256.178 66.6677 256.581 66.1753 257.121 65.8843C257.661 65.5933 258.294 65.5271 258.882 65.7002C259.05 65.7561 259.212 65.8289 259.365 65.9176C259.323 65.4843 259.424 65.0492 259.652 64.6785C259.881 64.3078 260.224 64.0218 260.629 63.8641C261.035 63.7064 261.481 63.6855 261.9 63.8047C262.319 63.924 262.687 64.1767 262.949 64.5245C263.091 64.1672 263.335 63.8587 263.649 63.6363C263.963 63.4139 264.334 63.287 264.719 63.2708C265.103 63.2546 265.484 63.3499 265.816 63.5452C266.148 63.7405 266.416 64.0274 266.588 64.3715C266.748 64.2478 266.936 64.1649 267.136 64.13C267.314 64.095 267.496 64.0957 267.674 64.1319C267.851 64.1682 268.02 64.2393 268.17 64.3411C268.32 64.443 268.448 64.5736 268.547 64.7253C268.646 64.8771 268.713 65.0469 268.746 65.2251C268.762 65.3345 268.762 65.4458 268.746 65.5552C269.032 65.2807 269.389 65.0909 269.777 65.0071C270.164 64.9233 270.568 64.9488 270.942 65.0807C271.316 65.2126 271.646 65.4458 271.895 65.7542C272.144 66.0626 272.303 66.4342 272.354 66.8275L272.515 66.7873C273.164 66.7071 273.819 66.8862 274.338 67.2856C274.856 67.685 275.197 68.2726 275.285 68.9211C275.317 69.1481 275.317 69.3786 275.285 69.6056C275.32 69.601 275.355 69.601 275.389 69.6056C276.039 69.5233 276.695 69.7015 277.214 70.1013C277.733 70.5011 278.073 71.09 278.159 71.7395C278.228 72.2799 278.111 72.8276 277.829 73.2936C278.472 73.2247 279.117 73.409 279.627 73.8073C280.136 74.2057 280.471 74.7868 280.559 75.4275C280.632 76.0088 280.495 76.5971 280.173 77.0863C280.686 77.1463 281.167 77.3662 281.548 77.7147C281.93 78.0632 282.192 78.5227 282.298 79.0283C282.404 79.5339 282.348 80.06 282.139 80.5323C281.929 81.0045 281.577 81.399 281.131 81.66C281.472 81.8826 281.752 82.1879 281.943 82.5475C282.135 82.9071 282.232 83.3094 282.227 83.7168C282.221 84.1243 282.113 84.5237 281.911 84.8779C281.71 85.232 281.422 85.5295 281.074 85.7426C281.541 86.1331 281.843 86.6852 281.92 87.2886C282.002 87.9374 281.825 88.5924 281.427 89.1112C281.029 89.6299 280.442 89.9705 279.794 90.0587C279.233 90.1258 278.665 90.0009 278.184 89.7044C278.089 90.1482 277.874 90.5574 277.562 90.8868C277.25 91.2163 276.854 91.4532 276.416 91.5714C275.978 91.6897 275.515 91.6847 275.08 91.557C274.645 91.4293 274.253 91.1839 273.948 90.8478C273.817 91.3066 273.556 91.7175 273.197 92.0308C272.837 92.3441 272.394 92.5462 271.922 92.6128C271.45 92.6793 270.968 92.6072 270.536 92.4054C270.104 92.2036 269.739 91.8807 269.487 91.4759C269.089 91.9748 268.51 92.2962 267.877 92.3697C267.524 92.4176 267.164 92.3868 266.825 92.2796C266.485 92.1725 266.173 91.9915 265.912 91.7497C265.715 92.3441 265.3 92.8415 264.75 93.1408C264.2 93.44 263.557 93.5187 262.951 93.3608C262.345 93.2029 261.822 92.8204 261.488 92.2908C261.154 91.7612 261.034 91.1244 261.153 90.5096C260.863 90.7123 260.534 90.8501 260.186 90.9136C259.838 90.9772 259.481 90.965 259.139 90.8778C258.796 90.7907 258.477 90.6307 258.202 90.4087C257.927 90.1867 257.703 89.908 257.545 89.5916C257.217 89.9309 256.798 90.1683 256.338 90.2754C255.878 90.3825 255.397 90.3548 254.952 90.1956C254.504 90.0277 254.114 89.7341 253.828 89.3499C253.542 88.9657 253.374 88.5072 253.342 88.0295C253.03 88.2656 252.665 88.4225 252.279 88.4865C251.893 88.5505 251.498 88.5198 251.126 88.397C250.754 88.2742 250.418 88.063 250.147 87.7816C249.875 87.5002 249.675 87.1569 249.565 86.7814C248.993 86.9575 248.384 86.9708 247.804 86.8197C247.225 86.6686 246.7 86.3591 246.287 85.926C245.873 85.4928 245.589 84.9531 245.466 84.3674C245.342 83.7818 245.384 83.1733 245.588 82.6102L245.571 82.6827Z" fill="#263238"/>
<path d="M251.924 108.563C251.924 109.642 251.924 110.585 251.836 111.583C251.747 112.582 251.707 113.54 251.618 114.522C251.441 116.471 251.151 118.412 250.813 120.344C250.169 124.248 249.156 128.082 247.786 131.795L247.528 132.495C247.431 132.745 247.391 132.89 247.174 133.373C246.773 134.251 246.155 135.013 245.378 135.587C244.662 136.115 243.836 136.476 242.962 136.642C242.271 136.785 241.565 136.836 240.86 136.795C238.665 136.604 236.52 136.029 234.523 135.096C230.938 133.46 227.553 131.417 224.434 129.009L226.189 126.238C227.8 127.044 229.531 127.809 231.214 128.509C232.868 129.222 234.562 129.84 236.287 130.361C237.783 130.875 239.351 131.146 240.933 131.167C241.553 131.167 241.899 130.925 241.795 130.933C241.69 130.941 241.714 130.997 241.714 130.933L242.044 129.838C243.058 126.384 243.823 122.861 244.331 119.297C244.589 117.502 244.774 115.698 244.943 113.894C245.112 112.09 245.217 110.222 245.273 108.547L251.924 108.563Z" fill="#FFB573"/>
<path d="M246.867 100.986C244.258 101.856 243.188 112.944 243.188 112.944L250.886 117.397C250.886 117.397 257.11 105.842 254.855 103.064C252.601 100.285 250.676 99.7137 246.867 100.986Z" fill="#407BFF"/>
<path opacity="0.7" d="M246.867 100.986C244.258 101.856 243.188 112.944 243.188 112.944L250.886 117.397C250.886 117.397 257.11 105.842 254.855 103.064C252.601 100.285 250.676 99.7137 246.867 100.986Z" fill="black"/>
<path opacity="0.2" d="M247.285 103.417L246.045 114.602L250.369 117.099L247.285 103.417Z" fill="black"/>
<path d="M227.349 126.6L222.936 120.706L221.156 127.043C221.156 127.043 224.128 129.958 226.696 129.153L227.349 126.6Z" fill="#FFB573"/>
<path d="M218.58 118.693L216.301 123.726L221.172 127.044L222.952 120.706L218.58 118.693Z" fill="#FFB573"/>
<path d="M271.072 284.274H264.598L263.092 269.281H269.566L271.072 284.274Z" fill="#FFB573"/>
<path d="M322.873 257.154L317.437 260.673L307.541 249.231L312.968 245.704L322.873 257.154Z" fill="#FFB573"/>
<path d="M316.166 260.004L321.618 255.173C321.711 255.089 321.831 255.043 321.956 255.043C322.081 255.043 322.201 255.089 322.294 255.173L326.723 258.941C326.833 259.038 326.921 259.157 326.981 259.29C327.041 259.423 327.072 259.568 327.072 259.714C327.072 259.86 327.041 260.005 326.981 260.138C326.921 260.272 326.833 260.39 326.723 260.487C324.799 262.138 323.784 262.83 321.384 264.948C319.911 266.253 317.89 268.306 315.86 270.11C313.831 271.914 311.931 269.989 312.64 269.063C315.716 264.884 315.321 263.225 315.651 261.011C315.7 260.625 315.883 260.269 316.166 260.004Z" fill="#263238"/>
<path d="M263.841 283.526H271.088C271.213 283.524 271.334 283.569 271.429 283.65C271.524 283.732 271.586 283.845 271.604 283.968L272.409 289.718C272.425 289.863 272.41 290.011 272.365 290.15C272.32 290.289 272.246 290.418 272.148 290.526C272.049 290.635 271.929 290.722 271.795 290.781C271.661 290.84 271.517 290.87 271.37 290.869C268.834 290.829 267.61 290.676 264.413 290.676C262.448 290.676 256.795 290.885 254.082 290.885C251.368 290.885 251.215 288.196 252.35 287.954C257.423 286.859 260.999 285.362 262.706 283.928C263.023 283.662 263.427 283.519 263.841 283.526Z" fill="#263238"/>
<g opacity="0.2">
<path opacity="0.2" d="M263.092 269.289L263.865 277.011H270.347L269.566 269.289H263.092Z" fill="black"/>
<path opacity="0.2" d="M312.976 245.711L307.541 249.23L312.646 255.133L318.082 251.606L312.976 245.711Z" fill="black"/>
</g>
<path d="M246.867 100.986C246.867 100.986 243.871 102.266 252.785 139.726L279.004 137.825C277.788 127.18 277.297 120.601 280.808 98.3687C277.071 97.8754 273.303 97.6574 269.534 97.7165C265.549 97.7181 261.569 98.006 257.625 98.5781C252.576 99.3753 246.867 100.986 246.867 100.986Z" fill="#407BFF"/>
<path opacity="0.7" d="M246.867 100.986C246.867 100.986 243.871 102.266 252.785 139.726L279.004 137.825C277.788 127.18 277.297 120.601 280.808 98.3687C277.071 97.8754 273.303 97.6574 269.534 97.7165C265.549 97.7181 261.569 98.006 257.625 98.5781C252.576 99.3753 246.867 100.986 246.867 100.986Z" fill="black"/>
<path d="M267.408 84.3496C266.941 88.2389 266.7 95.3089 269.566 97.6763C269.566 97.6763 268.761 101.638 261.683 102.153C253.856 102.725 257.657 98.5379 257.657 98.5379C261.86 97.2093 261.514 94.0447 260.556 91.1217L267.408 84.3496Z" fill="#FFB573"/>
<path opacity="0.2" d="M264.614 87.1113L260.588 91.1375C260.826 91.8151 261.002 92.5132 261.111 93.2231C262.722 92.8688 264.84 90.9121 264.888 89.1969C264.925 88.4908 264.832 87.7839 264.614 87.1113Z" fill="black"/>
<path d="M271.788 77.8839C270.323 84.1406 269.84 86.822 266.087 89.5196C260.451 93.5458 253.091 90.4053 252.664 83.8829C252.277 77.9724 254.741 68.7363 261.352 67.2788C262.805 66.9525 264.317 67.0019 265.746 67.4224C267.175 67.8429 268.472 68.6206 269.517 69.6819C270.561 70.7433 271.318 72.0534 271.715 73.4885C272.113 74.9236 272.138 76.4364 271.788 77.8839Z" fill="#FFB573"/>
<path d="M252.786 139.726C252.786 139.726 251.313 189.836 253.165 209.492C255.089 229.937 262.481 275.521 262.481 275.521H271.25C271.25 275.521 270.05 230.049 269.358 209.886C268.601 187.895 271.999 138.333 271.999 138.333L252.786 139.726Z" fill="#407BFF"/>
<path d="M271.991 275.836H261.716L260.967 272.558L272.466 272.156L271.991 275.836Z" fill="#263238"/>
<path opacity="0.2" d="M264.993 151.281C259.493 164.705 266.362 187.968 269.277 196.592C269.486 183.298 270.283 167.016 270.952 155.05C269.494 148.415 267.53 145.089 264.993 151.281Z" fill="black"/>
<path d="M259.711 139.227C259.711 139.227 269.374 190.496 275.099 206.77C281.855 226.096 310.53 254.722 310.53 254.722L317.938 249.891C317.938 249.891 297.098 216.924 292.275 206.835C281.976 185.311 287.009 151.748 279.013 137.793L259.711 139.227Z" fill="#407BFF"/>
<path d="M319.032 249.762L309.845 255.712L306.994 253.458L317.486 245.961L319.032 249.762Z" fill="#263238"/>
<path d="M261.006 77.8432C260.918 78.3586 260.58 78.729 260.241 78.6485C259.903 78.5679 259.702 78.1251 259.79 77.6097C259.879 77.0944 260.225 76.7239 260.596 76.8045C260.966 76.885 261.095 77.3037 261.006 77.8432Z" fill="#263238"/>
<path d="M255.193 76.8528C255.105 77.3681 254.758 77.7385 254.428 77.658C254.098 77.5775 253.889 77.1426 253.977 76.6273C254.066 76.1119 254.404 75.7415 254.742 75.822C255.081 75.9026 255.282 76.3374 255.193 76.8528Z" fill="#263238"/>
<path d="M254.887 75.8706L253.711 75.2988C253.711 75.2988 254.178 76.3779 254.887 75.8706Z" fill="#263238"/>
<path d="M257.246 78.1094C256.579 79.2046 255.766 80.2042 254.83 81.0807C255.061 81.3131 255.34 81.4925 255.647 81.6065C255.955 81.7205 256.283 81.7664 256.61 81.741L257.246 78.1094Z" fill="#ED893E"/>
<path d="M259.082 84.2046C258.825 84.2033 258.569 84.179 258.317 84.1321C258.283 84.1205 258.254 84.0971 258.235 84.0661C258.216 84.0351 258.209 83.9984 258.215 83.9627C258.221 83.9269 258.239 83.8944 258.266 83.8709C258.294 83.8473 258.329 83.8343 258.365 83.8342C259.004 83.9593 259.663 83.9311 260.289 83.7519C260.915 83.5727 261.489 83.2477 261.965 82.8035C261.994 82.7763 262.033 82.7612 262.073 82.7612C262.114 82.7612 262.152 82.7763 262.182 82.8035C262.196 82.8177 262.208 82.8346 262.216 82.8533C262.223 82.8719 262.227 82.8919 262.227 82.9122C262.227 82.9324 262.223 82.9524 262.216 82.9711C262.208 82.9897 262.196 83.0067 262.182 83.0209C261.77 83.4144 261.284 83.7218 260.751 83.9251C260.219 84.1284 259.651 84.2234 259.082 84.2046Z" fill="#263238"/>
<path d="M253.535 69.9281L264.317 65.9824C264.516 66.1995 264.665 66.458 264.752 66.7393C264.954 66.4911 265.208 66.2903 265.496 66.1512C265.784 66.012 266.099 65.9379 266.419 65.9341C266.694 65.9281 266.968 65.9774 267.224 66.079C267.674 66.1331 268.09 66.3441 268.4 66.6749C268.671 66.9677 268.848 67.3352 268.907 67.7298C269.305 67.8974 269.645 68.1784 269.884 68.5379C270.123 68.8973 270.251 69.3192 270.252 69.7509C270.256 69.8126 270.256 69.8744 270.252 69.9361C270.473 69.9459 270.69 69.9922 270.896 70.073C271.411 70.2773 271.83 70.6692 272.067 71.1698C272.305 71.6704 272.344 72.2424 272.176 72.7706C272.593 73.0515 272.901 73.4673 273.048 73.9483C273.194 74.4292 273.171 74.946 272.982 75.4117L272.941 75.4923C273.255 75.8 273.47 76.194 273.559 76.6242C273.647 77.0543 273.606 77.5012 273.441 77.908C273.252 78.365 272.918 78.7471 272.491 78.9951C272.491 79.0917 272.539 79.1964 272.555 79.301C272.844 79.293 273.132 79.3451 273.4 79.454C273.908 79.692 274.306 80.1144 274.514 80.6354C274.721 81.1564 274.723 81.7368 274.518 82.2588C274.313 82.7807 273.916 83.205 273.41 83.4453C272.903 83.6857 272.324 83.7241 271.79 83.5527C271.426 83.4102 271.107 83.1718 270.867 82.8627C270.628 82.5536 270.476 82.1855 270.429 81.7973C270.137 81.7986 269.847 81.744 269.576 81.6362C269.089 81.4421 268.688 81.0807 268.445 80.6172C268.201 80.1537 268.131 79.6184 268.247 79.1078C267.89 79.227 267.509 79.2525 267.14 79.1817C266.771 79.1109 266.426 78.9462 266.139 78.7035C265.851 78.4608 265.631 78.1483 265.5 77.796C265.369 77.4437 265.33 77.0636 265.388 76.6921L265.163 76.6277C264.619 76.4092 264.183 75.9839 263.953 75.445C263.722 74.9061 263.714 74.2976 263.931 73.7529C264.031 73.5101 264.172 73.2866 264.35 73.0927C264.027 72.9846 263.735 72.8032 263.494 72.5629C263.254 72.3226 263.073 72.0299 262.965 71.7076C262.907 71.7858 262.842 71.8586 262.771 71.9251C262.443 72.2338 262.019 72.4212 261.569 72.4563C261.12 72.4915 260.672 72.3722 260.299 72.1183L260.162 72.2713C259.931 72.4952 259.649 72.6586 259.339 72.7472C259.03 72.8357 258.704 72.8466 258.389 72.7789C258.075 72.7113 257.782 72.5671 257.536 72.3591C257.291 72.1512 257.1 71.8859 256.982 71.5869C256.695 71.8864 256.321 72.0878 255.913 72.1625C255.505 72.2373 255.083 72.1815 254.709 72.0032C254.334 71.8249 254.026 71.533 253.826 71.1692C253.627 70.8053 253.548 70.3879 253.6 69.9764L253.535 69.9281Z" fill="#263238"/>
<path d="M272.513 83.9711C272.203 84.5083 271.789 84.9785 271.296 85.3545C270.802 85.7304 270.239 86.0047 269.639 86.1613C268.028 86.572 267.279 85.1387 267.754 83.649C268.181 82.3123 269.526 80.4844 271.112 80.734C271.457 80.7941 271.781 80.9389 272.056 81.1554C272.331 81.3719 272.547 81.6534 272.686 81.9744C272.825 82.2955 272.882 82.6461 272.852 82.9946C272.822 83.3432 272.705 83.6787 272.513 83.9711Z" fill="#FFB573"/>
<path d="M263.543 77.0542C263.478 77.0544 263.416 77.0332 263.365 76.9938C263.314 76.9544 263.277 76.8992 263.261 76.8367C262.842 75.4839 261.111 74.9042 261.095 74.8961C261.018 74.8703 260.954 74.8155 260.916 74.7435C260.879 74.6714 260.871 74.5876 260.894 74.5096C260.919 74.4328 260.975 74.3693 261.047 74.3331C261.119 74.2969 261.203 74.2908 261.28 74.3163C261.369 74.3163 263.334 75.0008 263.849 76.6596C263.869 76.7386 263.859 76.8224 263.82 76.8941C263.782 76.9659 263.717 77.0202 263.64 77.0461L263.543 77.0542Z" fill="#263238"/>
<path d="M253.905 73.8655C253.837 73.8658 253.772 73.8437 253.718 73.8026C253.664 73.7616 253.626 73.7039 253.608 73.6386C253.591 73.5733 253.595 73.5041 253.621 73.4417C253.647 73.3793 253.693 73.3273 253.752 73.2938C254.168 73.0396 254.64 72.8899 255.126 72.8577C255.613 72.8254 256.1 72.9115 256.546 73.1086C256.582 73.1265 256.614 73.1514 256.64 73.1818C256.667 73.2122 256.687 73.2474 256.7 73.2856C256.712 73.3237 256.717 73.364 256.715 73.4041C256.712 73.4441 256.701 73.4833 256.683 73.5192C256.665 73.5552 256.64 73.5873 256.61 73.6136C256.579 73.6399 256.544 73.66 256.506 73.6727C256.468 73.6855 256.428 73.6905 256.388 73.6877C256.347 73.6848 256.308 73.6741 256.272 73.6561C255.917 73.5051 255.53 73.4417 255.145 73.4711C254.759 73.5006 254.387 73.622 254.058 73.8252C254.011 73.8498 253.958 73.8635 253.905 73.8655Z" fill="#263238"/>
<path d="M284.375 105.632C285.454 109.481 286.3 113.29 287.041 117.188C287.427 119.128 287.741 121.093 288.015 123.066C288.16 124.048 288.273 125.047 288.386 126.037L288.53 127.543V127.921V128.155C288.53 128.34 288.53 128.533 288.53 128.719C288.486 129.6 288.165 130.445 287.613 131.134C287.17 131.653 286.62 132.07 286.002 132.358C285.599 132.543 285.178 132.686 284.746 132.785C284.092 132.928 283.426 133.009 282.757 133.027C281.654 133.05 280.55 132.994 279.455 132.857C277.437 132.607 275.434 132.241 273.456 131.762C271.513 131.285 269.597 130.769 267.707 130.216C265.815 129.62 263.955 129.033 262.07 128.332L262.94 125.167C264.824 125.481 266.733 125.828 268.633 126.11C270.533 126.391 272.426 126.697 274.31 126.915C276.194 127.132 278.062 127.334 279.858 127.39C280.699 127.422 281.541 127.401 282.378 127.325C282.682 127.298 282.982 127.236 283.272 127.14C283.385 127.14 283.409 127.076 283.385 127.084C283.216 127.165 283.067 127.283 282.95 127.43C282.699 127.743 282.55 128.125 282.523 128.525C282.519 128.592 282.519 128.66 282.523 128.727C282.52 128.684 282.52 128.641 282.523 128.598L282.467 128.252L282.242 126.858L281.726 124.072C281.364 122.212 280.961 120.352 280.559 118.484C280.156 116.616 279.697 114.764 279.246 112.904C278.795 111.044 278.328 109.167 277.885 107.347L284.375 105.632Z" fill="#FFB573"/>
<path d="M280.809 98.3285C283.49 98.9405 287.307 107.758 287.307 107.758L277.644 115.81C277.644 115.81 273.376 108.563 274.238 105.052C275.132 101.405 277.741 97.636 280.809 98.3285Z" fill="#407BFF"/>
<path opacity="0.7" d="M280.809 98.3285C283.49 98.9405 287.307 107.758 287.307 107.758L277.644 115.81C277.644 115.81 273.376 108.563 274.238 105.052C275.132 101.405 277.741 97.636 280.809 98.3285Z" fill="black"/>
<path d="M314.185 262.879H314.105C313.955 262.875 313.808 262.831 313.68 262.754C313.551 262.676 313.445 262.567 313.372 262.436C313.319 262.361 313.286 262.273 313.277 262.182C313.267 262.09 313.28 261.998 313.315 261.913C313.654 261.164 315.973 260.809 316.23 260.769C316.26 260.767 316.289 260.772 316.316 260.785C316.342 260.798 316.365 260.819 316.38 260.843C316.396 260.868 316.405 260.897 316.405 260.927C316.406 260.956 316.398 260.985 316.383 261.011C315.9 261.703 314.99 262.823 314.185 262.879ZM315.908 261.132C314.99 261.301 313.774 261.639 313.597 262.041C313.575 262.075 313.563 262.114 313.563 262.154C313.563 262.194 313.575 262.234 313.597 262.267C313.644 262.355 313.714 262.43 313.798 262.484C313.883 262.537 313.98 262.568 314.08 262.573C314.547 262.581 315.216 262.049 315.908 261.132Z" fill="#407BFF"/>
<path d="M316.054 261.107C315.249 261.164 313.751 260.89 313.413 260.302C313.352 260.197 313.329 260.074 313.348 259.953C313.367 259.833 313.427 259.723 313.518 259.642C313.594 259.552 313.689 259.481 313.796 259.432C313.903 259.383 314.02 259.359 314.138 259.36C315.08 259.36 316.32 260.753 316.368 260.809C316.381 260.833 316.387 260.859 316.387 260.886C316.387 260.913 316.381 260.939 316.368 260.962C316.36 260.988 316.345 261.011 316.325 261.029C316.305 261.047 316.281 261.06 316.255 261.067L316.054 261.107ZM314.089 259.682C314.023 259.685 313.958 259.702 313.899 259.731C313.839 259.76 313.786 259.801 313.743 259.851C313.614 259.996 313.638 260.093 313.679 260.157C313.904 260.544 315.152 260.85 315.933 260.809C315.498 260.366 314.701 259.674 314.138 259.674L314.089 259.682Z" fill="#407BFF"/>
<path d="M261.409 284.652C260.856 284.705 260.301 284.566 259.839 284.258C259.735 284.165 259.656 284.048 259.608 283.918C259.56 283.787 259.545 283.647 259.565 283.509C259.569 283.425 259.595 283.344 259.641 283.274C259.686 283.203 259.748 283.145 259.823 283.106C260.628 282.672 263.197 283.984 263.486 284.137C263.514 284.153 263.537 284.177 263.551 284.205C263.566 284.234 263.571 284.266 263.567 284.298C263.563 284.33 263.549 284.359 263.527 284.382C263.505 284.405 263.477 284.421 263.446 284.427C262.775 284.563 262.093 284.639 261.409 284.652ZM260.257 283.316C260.158 283.31 260.058 283.329 259.968 283.372C259.936 283.387 259.91 283.411 259.892 283.441C259.875 283.472 259.868 283.507 259.871 283.541C259.856 283.631 259.864 283.722 259.894 283.808C259.923 283.894 259.973 283.971 260.04 284.032C260.435 284.379 261.498 284.443 262.939 284.21C262.102 283.762 261.195 283.46 260.257 283.316Z" fill="#407BFF"/>
<path d="M263.415 284.428H263.351C262.586 284.081 261.056 282.688 261.177 281.955C261.177 281.778 261.33 281.561 261.748 281.521C261.901 281.503 262.056 281.518 262.203 281.564C262.35 281.61 262.486 281.685 262.602 281.786C263.407 282.463 263.56 284.202 263.568 284.275C263.573 284.302 263.569 284.331 263.558 284.357C263.546 284.382 263.527 284.404 263.504 284.42C263.476 284.43 263.445 284.433 263.415 284.428ZM261.877 281.835H261.781C261.507 281.835 261.483 281.972 261.483 282.012C261.41 282.447 262.441 283.55 263.23 284.025C263.179 283.291 262.897 282.592 262.425 282.028C262.273 281.898 262.077 281.829 261.877 281.835Z" fill="#407BFF"/>
<path d="M260.701 76.8605L259.525 76.2969C259.525 76.2969 259.976 77.3678 260.701 76.8605Z" fill="#263238"/>
<path d="M279.302 136.255L280.107 138.55C280.212 138.728 280.002 138.929 279.705 138.953L252.729 140.918C252.496 140.918 252.294 140.829 252.27 140.684L251.859 138.349C251.859 138.188 252.028 138.035 252.286 138.019L278.859 136.086C278.941 136.074 279.025 136.083 279.103 136.113C279.18 136.142 279.249 136.192 279.302 136.255Z" fill="white"/>
<path d="M275.937 139.484L276.646 139.428C276.791 139.428 276.895 139.339 276.879 139.251L276.323 136.223C276.323 136.135 276.179 136.078 276.034 136.086L275.325 136.135C275.18 136.135 275.075 136.231 275.091 136.32L275.647 139.339C275.663 139.428 275.792 139.492 275.937 139.484Z" fill="#407BFF"/>
<path d="M254.759 141.022L255.468 140.974C255.613 140.974 255.717 140.877 255.701 140.789L255.146 137.769C255.146 137.681 255.001 137.616 254.856 137.624L254.147 137.673C254.002 137.673 253.898 137.769 253.914 137.858L254.469 140.877C254.485 140.966 254.614 141.03 254.759 141.022Z" fill="#407BFF"/>
<path d="M265.347 140.249L266.056 140.201C266.201 140.201 266.305 140.112 266.289 140.023L265.734 136.996C265.734 136.907 265.589 136.843 265.444 136.851L264.735 136.907C264.59 136.907 264.486 136.996 264.502 137.084L265.057 140.112C265.073 140.201 265.202 140.265 265.347 140.249Z" fill="#407BFF"/>
<path d="M226.092 101.171L261.603 111.003L246.779 159.342L211.26 149.51L226.092 101.171Z" fill="#407BFF"/>
<g opacity="0.3">
<path opacity="0.3" d="M226.092 101.171L261.603 111.003L246.779 159.342L211.26 149.51L226.092 101.171Z" fill="black"/>
</g>
<path d="M225.834 101.099L261.353 110.931L246.529 159.269L211.01 149.437L225.834 101.099Z" fill="#407BFF"/>
<path d="M259.227 112.106L246.246 154.437L213.98 145.507L226.961 103.176L259.227 112.106Z" fill="white"/>
<path d="M233.073 105.044C233.672 104.364 234.454 103.869 235.326 103.619C236.199 103.369 237.124 103.375 237.993 103.635L239.402 104.022C239.654 104.107 239.925 104.122 240.185 104.064C240.445 104.005 240.684 103.877 240.876 103.692C241.347 103.245 241.931 102.935 242.564 102.793C243.198 102.651 243.858 102.683 244.475 102.886C245.1 103.023 245.674 103.334 246.13 103.782C246.586 104.231 246.905 104.8 247.052 105.423C247.112 105.676 247.244 105.907 247.43 106.088C247.617 106.269 247.852 106.393 248.107 106.446L249.516 106.84C250.381 107.051 251.163 107.517 251.76 108.177C252.357 108.838 252.743 109.662 252.866 110.544C252.881 110.602 252.881 110.663 252.866 110.721C252.83 110.838 252.751 110.937 252.644 110.997C252.538 111.057 252.412 111.074 252.294 111.043L233.322 105.793C233.245 105.776 233.173 105.739 233.113 105.686C233.054 105.633 233.01 105.565 232.984 105.49C232.959 105.414 232.954 105.334 232.97 105.255C232.985 105.177 233.021 105.105 233.073 105.044Z" fill="#407BFF"/>
<path opacity="0.4" d="M233.073 105.044C233.672 104.364 234.454 103.869 235.326 103.619C236.199 103.369 237.124 103.375 237.993 103.635L239.402 104.022C239.654 104.107 239.925 104.122 240.185 104.064C240.445 104.005 240.684 103.877 240.876 103.692C241.347 103.245 241.931 102.935 242.564 102.793C243.198 102.651 243.858 102.683 244.475 102.886C245.1 103.023 245.674 103.334 246.13 103.782C246.586 104.231 246.905 104.8 247.052 105.423C247.112 105.676 247.244 105.907 247.43 106.088C247.617 106.269 247.852 106.393 248.107 106.446L249.516 106.84C250.381 107.051 251.163 107.517 251.76 108.177C252.357 108.838 252.743 109.662 252.866 110.544C252.881 110.602 252.881 110.663 252.866 110.721C252.83 110.838 252.751 110.937 252.644 110.997C252.538 111.057 252.412 111.074 252.294 111.043L233.322 105.793C233.245 105.776 233.173 105.739 233.113 105.686C233.054 105.633 233.01 105.565 232.984 105.49C232.959 105.414 232.954 105.334 232.97 105.255C232.985 105.177 233.021 105.105 233.073 105.044Z" fill="#FAFAFA"/>
<path d="M255.645 115.673L255.178 117.187L227.51 109.529L227.977 108.016L255.645 115.673Z" fill="#E0E0E0"/>
<path d="M254.517 119.337L254.058 120.851L227.928 113.62L228.387 112.098L254.517 119.337Z" fill="#E0E0E0"/>
<path d="M253.397 123.001L252.93 124.515L239.096 120.682L239.563 119.168L253.397 123.001Z" fill="#E0E0E0"/>
<path d="M237.333 118.548L236.866 120.07L229.555 118.041L230.014 116.527L237.333 118.548Z" fill="#E0E0E0"/>
<path d="M252.27 126.657L251.811 128.179L224.135 120.521L224.602 118.999L252.27 126.657Z" fill="#E0E0E0"/>
<path d="M251.152 130.321L250.685 131.843L226.592 125.167L227.059 123.653L251.152 130.321Z" fill="#E0E0E0"/>
<path d="M248.905 137.648L248.438 139.162L220.77 131.504L221.237 129.99L248.905 137.648Z" fill="#E0E0E0"/>
<path d="M247.777 141.313L247.318 142.826L223.934 136.36L224.401 134.838L247.777 141.313Z" fill="#E0E0E0"/>
<path d="M263.817 125.288L258.575 120.666L258.43 127.245C258.43 127.245 262.021 129.33 264.316 127.913L263.817 125.288Z" fill="#FFB573"/>
<path d="M253.141 120.344L253.318 125.86L258.431 127.245L258.576 120.666L253.141 120.344Z" fill="#FFB573"/>
<path d="M147.1 42.3642C149.193 44.5303 151.287 50.6179 149.515 53.5087C146.053 50.0462 145.545 41.6153 147.1 42.3642Z" fill="#263238"/>
<path d="M168.68 279.008L175.146 277.518L173.576 262.178L167.102 263.66L168.68 279.008Z" fill="#FFB573"/>
<path d="M122.225 284.121H128.852L130.728 268.781H124.101L122.225 284.121Z" fill="#FFB573"/>
<path d="M129.713 283.356H121.661C121.53 283.357 121.403 283.401 121.3 283.483C121.198 283.565 121.126 283.679 121.097 283.807L119.728 289.693C119.695 289.836 119.695 289.984 119.728 290.127C119.761 290.27 119.826 290.403 119.919 290.517C120.011 290.63 120.128 290.721 120.262 290.782C120.395 290.843 120.54 290.873 120.686 290.869C123.287 290.829 125.18 290.676 128.457 290.676C130.47 290.676 136.509 290.885 139.32 290.885C142.13 290.885 142.492 288.131 141.357 287.882C136.26 286.77 132.435 285.232 130.808 283.759C130.506 283.492 130.116 283.349 129.713 283.356Z" fill="#263238"/>
<path d="M174.935 276.785L167.873 278.395C167.744 278.426 167.628 278.499 167.545 278.602C167.462 278.706 167.416 278.834 167.414 278.967V284.998C167.412 285.144 167.444 285.288 167.506 285.42C167.569 285.552 167.661 285.667 167.776 285.757C167.89 285.848 168.024 285.91 168.166 285.941C168.309 285.971 168.457 285.968 168.598 285.932C171.134 285.304 174.782 284.322 177.987 283.573C181.731 282.712 185.331 281.963 189.719 280.932C192.377 280.328 192.522 277.477 191.33 277.486C186.023 277.55 181.546 278.605 176.578 276.922C176.053 276.725 175.485 276.678 174.935 276.785Z" fill="#263238"/>
<path d="M161.739 79.8076C162.633 81.4181 163.47 83.1252 164.316 84.7921C165.161 86.4589 165.999 88.1338 166.812 89.8167C168.422 93.1826 170.033 96.5727 171.563 100.019C172.368 101.742 173.061 103.474 173.801 105.277C173.973 105.758 174.172 106.228 174.397 106.687C174.566 107.017 174.655 107.129 174.736 107.266C174.816 107.403 175.033 107.548 175.492 107.572C176.084 107.603 176.676 107.527 177.24 107.347C177.966 107.136 178.675 106.867 179.358 106.542C179.72 106.372 180.09 106.187 180.453 105.994L181.491 105.43L185.035 108.917C184.656 109.424 184.366 109.811 184.004 110.222C183.659 110.635 183.291 111.027 182.901 111.397C182.097 112.186 181.215 112.89 180.267 113.499C179.18 114.203 177.987 114.728 176.732 115.053C175.993 115.229 175.237 115.323 174.478 115.335C173.636 115.324 172.798 115.2 171.99 114.964C170.398 114.469 168.963 113.567 167.827 112.347C166.903 111.349 166.128 110.224 165.524 109.006C164.718 107.395 163.849 105.785 163.003 104.174L157.842 94.3502C156.145 91.038 154.465 87.7204 152.801 84.3975L161.739 79.8076Z" fill="#FFB573"/>
<path d="M149.957 80.0577C148.129 86.1372 160.586 102.669 160.586 102.669L173.325 94.4715C170.974 89.2146 168.061 84.2279 164.636 79.5987C159.491 72.9957 151.962 73.3822 149.957 80.0577Z" fill="#407BFF"/>
<path opacity="0.2" d="M158.124 88.3753C161.345 89.8489 164.799 95.3084 165.306 99.6487L160.588 102.684C157.615 98.6798 154.945 94.4594 152.6 90.0583C153.574 88.4961 154.436 86.6924 158.124 88.3753Z" fill="black"/>
<path opacity="0.2" d="M173.576 262.178L174.389 270.086L167.915 271.575L167.102 263.668L173.576 262.178Z" fill="black"/>
<path opacity="0.2" d="M124.101 268.781H130.728L129.754 276.689H123.127L124.101 268.781Z" fill="black"/>
<path d="M120.445 77.4649C122.374 84.598 123.765 91.8655 124.608 99.2064C125.22 104.336 125.583 109.232 125.808 113.701C126.34 124.112 126.09 132.052 126.396 134.734L161.746 132.004C166.642 94.2864 157.494 74.9445 157.494 74.9445C154.699 74.4446 151.875 74.1166 149.039 73.9621C148.435 73.9621 147.832 73.9138 147.211 73.9058C142.182 74.0027 137.162 74.3899 132.178 75.0653C131.236 75.1861 130.277 75.331 129.351 75.4921C124.616 76.2812 120.445 77.4649 120.445 77.4649Z" fill="#407BFF"/>
<path d="M143.564 80.3953C145.65 85.4441 143.967 85.9434 145.698 92.7315C146.721 94.0682 147.687 95.421 148.605 96.7577C149.072 95.2707 149.475 93.7945 149.813 92.3289C148.291 85.5327 146.061 83.5679 145.626 79.9604" fill="#263238"/>
<path d="M145.343 83.0205L146.656 79.6062L144.192 78.7446L142.477 79.9767L145.343 83.0205Z" fill="#263238"/>
<path opacity="0.5" d="M129.351 75.4753C137.186 82.4084 143.693 89.5026 148.605 96.7739C151.101 88.9147 151.673 81.2972 149.853 73.9937C152.415 74.1641 154.966 74.4759 157.494 74.9277C157.494 74.9277 166.642 94.2535 161.746 131.987L126.396 134.717C126.09 132.035 126.34 124.096 125.808 113.684C125.583 109.247 125.22 104.351 124.608 99.1896C123.765 91.8487 122.374 84.5812 120.445 77.4481C120.445 77.4481 124.616 76.2805 129.351 75.4753Z" fill="black"/>
<path d="M132.532 58.0259C133.804 62.7848 135.35 71.562 132.186 75.0486C133.784 76.4874 135.674 77.564 137.726 78.2047C139.779 78.8454 141.946 79.0351 144.079 78.7608C148.234 78.3421 148.25 75.4271 147.211 73.8891C141.728 73.0194 141.575 69.0093 142.283 65.1845L132.532 58.0259Z" fill="#FFB573"/>
<path d="M144.191 78.7447C144.191 78.7447 140.109 82.1026 138.844 85.4121C135.986 84.1962 130.687 78.2455 130.631 74.63C131.275 73.9266 132.053 73.3574 132.918 72.9551C136.346 75.468 140.151 77.4221 144.191 78.7447Z" fill="#407BFF"/>
<path opacity="0.2" d="M144.191 78.7447C144.191 78.7447 140.109 82.1026 138.844 85.4121C135.986 84.1962 130.687 78.2455 130.631 74.63C131.275 73.9266 132.053 73.3574 132.918 72.9551C136.346 75.468 140.151 77.4221 144.191 78.7447Z" fill="#FAFAFA"/>
<path d="M144.191 78.7446C144.191 78.7446 149.095 80.9268 151.286 84.7517C154.16 83.5358 149.675 74.2191 147.573 73.3575C146.706 72.8436 145.684 72.6552 144.691 72.8261C144.691 72.8261 147.243 77.6978 144.191 78.7446Z" fill="#407BFF"/>
<path opacity="0.2" d="M144.191 78.7446C144.191 78.7446 149.095 80.9268 151.286 84.7517C154.16 83.5358 149.675 74.2191 147.573 73.3575C146.706 72.8436 145.684 72.6552 144.691 72.8261C144.691 72.8261 147.243 77.6978 144.191 78.7446Z" fill="#FAFAFA"/>
<path opacity="0.2" d="M136.51 60.9487L142.283 65.1762C142.107 66.0676 142.013 66.9733 142.001 67.8818C139.916 67.745 136.936 65.6996 136.574 63.5658C136.39 62.705 136.369 61.8175 136.51 60.9487Z" fill="black"/>
<path d="M131.462 50.8028C132.267 57.3091 132.469 61.1662 136.004 64.2744C141.318 68.9368 149.201 65.3132 150.321 58.6378C151.327 52.6468 149.781 43.0081 143.194 40.9225C141.735 40.4556 140.181 40.3665 138.677 40.6636C137.174 40.9608 135.771 41.6344 134.599 42.6215C133.426 43.6086 132.524 44.8769 131.975 46.3077C131.427 47.7385 131.25 49.2851 131.462 50.8028Z" fill="#FFB573"/>
<path d="M147.18 43.3143C145.449 44.6107 140.488 44.192 137.436 43.3143C134.385 42.4366 132.17 48.3229 134.57 51.8096C136.969 55.2963 137.952 55.5378 134.964 57.4462C131.977 59.3547 123.586 51.0607 127.717 44.9328C127.5 39.7632 138.226 36.3087 143.959 38.7244C149.692 41.1401 147.18 43.3143 147.18 43.3143Z" fill="#263238"/>
<path d="M129.311 56.4235C129.61 57.1819 130.058 57.873 130.628 58.4565C131.197 59.04 131.878 59.504 132.629 59.8216C134.642 60.6268 135.93 58.9117 135.608 56.8583C135.318 55.0143 133.917 52.3651 131.775 52.3973C131.307 52.4129 130.851 52.5443 130.447 52.7799C130.042 53.0154 129.703 53.3476 129.459 53.7467C129.214 54.1458 129.073 54.5993 129.047 55.0665C129.021 55.5337 129.112 55.9999 129.311 56.4235Z" fill="#FFB573"/>
<path d="M176.483 268.041L165.524 270.561C165.524 270.561 158.172 230.71 156.279 210.168C155.7 203.919 154.065 195.231 152.012 185.93C149.411 174.206 146.15 161.54 143.476 151.627C140.658 141.159 138.508 133.783 138.508 133.783L161.739 131.987C161.739 131.987 175.702 186.8 176.338 207.003C177.039 228.004 176.483 268.041 176.483 268.041Z" fill="#263238"/>
<path opacity="0.2" d="M152.01 185.93C149.409 174.206 146.148 161.54 143.475 151.627L145.89 146.409C151.648 153.213 153.146 174.399 152.01 185.93Z" fill="black"/>
<path d="M149.209 132.954C149.209 132.954 146.576 189.683 143.734 208.912C140.626 229.969 132.831 275.159 132.831 275.159H120.672C120.672 275.159 120.47 232.481 124.319 212.109C128.7 188.869 126.365 134.725 126.365 134.725L149.209 132.954Z" fill="#263238"/>
<path d="M134.287 275.425H119.994L120.042 271.157L136.01 270.875L134.287 275.425Z" fill="#407BFF"/>
<path d="M177.915 267.976L164.862 270.98L163.928 266.769L178.47 263.193L177.915 267.976Z" fill="#407BFF"/>
<path d="M141.518 51.8579C141.518 52.3894 141.864 52.8 142.21 52.7759C142.557 52.7517 142.814 52.2927 142.774 51.7613C142.734 51.2298 142.428 50.8191 142.081 50.8433C141.735 50.8675 141.478 51.3264 141.518 51.8579Z" fill="#263238"/>
<path d="M147.542 51.3911C147.542 51.9226 147.888 52.3332 148.243 52.3091C148.597 52.2849 148.838 51.8259 148.806 51.2945C148.774 50.763 148.46 50.3523 148.106 50.3765C147.751 50.4007 147.51 50.8596 147.542 51.3911Z" fill="#263238"/>
<path d="M146.028 56.6252C145.208 56.4539 144.357 56.499 143.559 56.7559C142.762 57.0128 142.045 57.4728 141.479 58.0907C143.765 58.5899 149.692 58.0102 149.692 58.0102C149.35 57.3768 148.792 56.8879 148.119 56.6334C147.446 56.379 146.703 56.376 146.028 56.6252Z" fill="#263238"/>
<path d="M145.633 51.8091C146.399 53.3312 147.372 54.7402 148.524 55.9963C148.174 56.2721 147.77 56.4706 147.339 56.5789C146.907 56.6871 146.457 56.7027 146.019 56.6244L145.633 51.8091Z" fill="#ED893E"/>
<path d="M142.863 60.3047C143.093 60.3246 143.325 60.3246 143.555 60.3047C143.596 60.3047 143.635 60.2886 143.663 60.2599C143.692 60.2312 143.708 60.1923 143.708 60.1517C143.708 60.1111 143.692 60.0722 143.663 60.0435C143.635 60.0148 143.596 59.9987 143.555 59.9987C142.895 60.0646 142.228 59.9735 141.609 59.7329C140.991 59.4922 140.438 59.1087 139.996 58.6137C139.982 58.5993 139.965 58.5879 139.946 58.5801C139.927 58.5724 139.907 58.5684 139.887 58.5684C139.867 58.5684 139.847 58.5724 139.828 58.5801C139.81 58.5879 139.793 58.5993 139.778 58.6137C139.749 58.6438 139.732 58.6843 139.732 58.7264C139.732 58.7686 139.749 58.8091 139.778 58.8392C140.168 59.2775 140.642 59.6331 141.172 59.8848C141.702 60.1366 142.277 60.2793 142.863 60.3047Z" fill="#263238"/>
<path d="M139.531 50.0623C139.586 50.063 139.64 50.0502 139.69 50.0249C139.739 49.9996 139.781 49.9627 139.812 49.9174C140.019 49.5807 140.301 49.297 140.637 49.0887C140.972 48.8804 141.352 48.7533 141.745 48.7176C141.828 48.7176 141.908 48.6845 141.967 48.6256C142.026 48.5667 142.059 48.4868 142.059 48.4035C142.06 48.362 142.053 48.3206 142.037 48.282C142.022 48.2434 141.999 48.2084 141.97 48.179C141.94 48.1496 141.905 48.1265 141.867 48.1111C141.828 48.0957 141.787 48.0884 141.745 48.0895C141.254 48.1301 140.779 48.2862 140.359 48.545C139.939 48.8039 139.586 49.1582 139.329 49.5792C139.283 49.6486 139.267 49.7334 139.284 49.8149C139.3 49.8964 139.349 49.968 139.418 50.014C139.453 50.0348 139.491 50.051 139.531 50.0623Z" fill="#263238"/>
<path d="M149.998 49.1201C150.056 49.1359 150.118 49.1359 150.176 49.1201C150.249 49.0779 150.302 49.0087 150.325 48.9274C150.347 48.8461 150.337 48.7592 150.296 48.6853C150.057 48.247 149.717 47.8722 149.304 47.592C148.891 47.3119 148.417 47.1346 147.921 47.0748C147.838 47.0725 147.758 47.1022 147.696 47.1577C147.635 47.2132 147.597 47.2902 147.591 47.3728C147.588 47.4143 147.593 47.456 147.606 47.4954C147.619 47.5348 147.641 47.5711 147.669 47.602C147.697 47.6329 147.73 47.6578 147.768 47.6752C147.806 47.6925 147.847 47.702 147.889 47.7029C148.28 47.7487 148.653 47.8892 148.978 48.1124C149.302 48.3355 149.567 48.6345 149.749 48.9833C149.777 49.0241 149.814 49.0578 149.857 49.0816C149.901 49.1054 149.949 49.1186 149.998 49.1201Z" fill="#263238"/>
<path d="M131.896 284.508C132.349 284.545 132.8 284.425 133.176 284.17C133.292 284.072 133.382 283.947 133.44 283.807C133.497 283.667 133.52 283.515 133.506 283.364C133.506 283.273 133.481 283.184 133.434 283.107C133.387 283.029 133.32 282.965 133.24 282.921C132.516 282.543 130.366 283.864 130.124 284.008C130.097 284.025 130.075 284.049 130.062 284.077C130.049 284.106 130.046 284.138 130.052 284.17C130.054 284.2 130.067 284.229 130.087 284.252C130.107 284.276 130.134 284.292 130.164 284.298C130.732 284.434 131.313 284.504 131.896 284.508ZM132.894 283.139C132.963 283.137 133.032 283.151 133.095 283.179C133.127 283.198 133.153 283.226 133.17 283.258C133.187 283.291 133.194 283.328 133.192 283.364C133.206 283.47 133.194 283.578 133.156 283.678C133.118 283.777 133.055 283.866 132.975 283.936C132.612 284.234 131.743 284.274 130.623 284.049C131.315 283.603 132.086 283.294 132.894 283.139Z" fill="#407BFF"/>
<path d="M130.204 284.25C130.228 284.258 130.253 284.258 130.277 284.25C130.969 283.88 132.306 282.422 132.169 281.689C132.15 281.574 132.09 281.468 131.999 281.393C131.909 281.318 131.795 281.277 131.678 281.279C131.558 281.26 131.436 281.268 131.321 281.303C131.205 281.338 131.099 281.399 131.009 281.48C130.204 282.108 130.051 284.017 130.043 284.097C130.042 284.125 130.048 284.154 130.061 284.179C130.073 284.204 130.092 284.226 130.116 284.242C130.144 284.253 130.174 284.256 130.204 284.25ZM131.565 281.569H131.637C131.839 281.569 131.855 281.689 131.863 281.73C131.943 282.165 131.058 283.26 130.397 283.783C130.454 283.026 130.734 282.303 131.203 281.706C131.306 281.625 131.435 281.585 131.565 281.593V281.569Z" fill="#407BFF"/>
<path d="M175.774 277.526C176.861 277.526 178.777 277.325 179.349 276.536C179.431 276.421 179.485 276.288 179.506 276.148C179.527 276.008 179.514 275.865 179.47 275.731C179.447 275.648 179.403 275.573 179.342 275.512C179.281 275.452 179.206 275.408 179.124 275.385C178.238 275.119 175.903 277.043 175.669 277.261C175.652 277.287 175.643 277.318 175.643 277.349C175.643 277.381 175.652 277.412 175.669 277.438C175.677 277.461 175.691 277.481 175.71 277.496C175.728 277.512 175.75 277.522 175.774 277.526ZM178.995 275.666H179.059C179.093 275.676 179.124 275.694 179.148 275.72C179.172 275.745 179.189 275.777 179.196 275.811C179.226 275.9 179.234 275.994 179.22 276.087C179.206 276.179 179.17 276.267 179.116 276.343C178.793 276.786 177.747 277.092 176.265 277.188C177.175 276.472 178.463 275.61 178.987 275.666H178.995Z" fill="#407BFF"/>
<path d="M175.774 277.527C175.81 277.54 175.85 277.54 175.887 277.527C176.587 277.003 177.827 275.248 177.545 274.547C177.481 274.378 177.312 274.201 176.885 274.249C176.727 274.267 176.574 274.317 176.435 274.395C176.297 274.474 176.176 274.581 176.08 274.708C175.404 275.57 175.613 277.349 175.629 277.422C175.631 277.449 175.64 277.476 175.656 277.499C175.671 277.521 175.693 277.539 175.718 277.551L175.774 277.527ZM177.078 274.523C177.215 274.523 177.248 274.604 177.256 274.636C177.425 275.055 176.611 276.391 175.919 277.052C175.833 276.298 175.979 275.537 176.338 274.869C176.404 274.775 176.491 274.695 176.591 274.637C176.691 274.579 176.802 274.542 176.917 274.531L177.078 274.523Z" fill="#407BFF"/>
<path d="M125.502 87.4813C124.448 89.2126 123.32 91.0888 122.281 92.9167C121.243 94.7445 120.188 96.6127 119.213 98.4728C118.239 100.333 117.289 102.185 116.46 104.045C115.637 105.814 114.945 107.642 114.39 109.513C114.176 110.256 114.022 111.015 113.931 111.783C113.931 112.073 113.931 112.307 113.931 112.395C113.931 112.484 113.931 112.395 113.931 112.395H113.875C113.834 112.395 113.834 112.452 113.875 112.564C114.018 112.73 114.186 112.871 114.374 112.983C115.022 113.352 115.715 113.636 116.435 113.829C118.311 114.312 120.228 114.617 122.161 114.739C123.183 114.819 124.222 114.867 125.269 114.916C126.316 114.964 127.403 114.956 128.393 114.98L129.303 119.868C128.127 120.271 127.048 120.552 125.897 120.826C124.758 121.11 123.605 121.336 122.442 121.503C119.993 121.897 117.504 121.98 115.034 121.752C113.582 121.616 112.155 121.275 110.799 120.738C109.977 120.407 109.196 119.983 108.472 119.473C107.152 118.532 106.118 117.245 105.484 115.753C105.273 115.249 105.108 114.726 104.993 114.191C104.803 113.315 104.712 112.422 104.719 111.526C104.742 110.1 104.912 108.681 105.226 107.29C105.783 104.898 106.526 102.553 107.449 100.277C108.335 98.0943 109.285 95.9927 110.299 93.9393C111.314 91.886 112.385 89.9131 113.52 87.9242C114.656 85.9352 115.783 84.0429 117.088 82.0781L125.502 87.4813Z" fill="#FFB573"/>
<path d="M120.445 77.4645C114.381 79.3488 106.965 96.7903 106.965 96.7903L121.717 103.595C124.543 98.7732 126.928 93.7065 128.843 88.456C131.766 80.001 127.788 75.1776 120.445 77.4645Z" fill="#407BFF"/>
<path d="M126.863 115.584L132.13 111.421L134.078 119.691C134.078 119.691 128.812 122.228 127.169 119.562L126.863 115.584Z" fill="#FFB573"/>
<path d="M137.637 111.389L138.925 118.306L134.078 119.691L132.129 111.421L137.637 111.389Z" fill="#FFB573"/>
<path d="M181.225 105.406L186.652 101.38L188.077 108.732C188.077 108.732 183.02 112.017 181.434 109.344L181.225 105.406Z" fill="#FFB573"/>
<path d="M193.312 100.792L192.394 107.532L188.078 108.748L186.652 101.396L193.312 100.792Z" fill="#FFB573"/>
</svg>
