<svg width="320" height="239" viewBox="0 0 320 239" fill="none" xmlns="http://www.w3.org/2000/svg">
<path d="M71.0453 65.9572L11.3594 106.448L70.1497 195.576L129.836 155.086L71.0453 65.9572Z" fill="#F5F5F5"/>
<path d="M98.9926 150.87L98.3171 155.121L68.6445 150.784L69.3201 146.533L98.9926 150.87Z" fill="#E0E0E0"/>
<path d="M84.0519 135.705L88.3075 136.325L83.5891 165.954L79.3281 165.328L84.0519 135.705Z" fill="#E0E0E0"/>
<path d="M56.7443 98.0496C56.7869 98.1089 50.8077 102.247 43.3869 107.275C35.9661 112.303 29.9178 116.338 29.8752 116.273C29.8327 116.208 35.8119 112.076 43.2326 107.043C50.6534 102.009 56.6752 97.9849 56.7443 98.0496Z" fill="#E0E0E0"/>
<path d="M78.6707 92.4609C78.7132 92.5257 68.7657 99.3446 56.4562 107.696C44.1467 116.047 34.114 122.763 34.0821 122.704C34.0502 122.645 43.9765 115.815 56.3019 107.464C68.6274 99.1127 78.6281 92.3962 78.6707 92.4609Z" fill="#E0E0E0"/>
<path d="M83.073 99.1289C83.1156 99.1936 73.168 106.018 60.8585 114.369C48.5491 122.72 38.5164 129.437 38.4845 129.372C38.4525 129.307 48.3895 122.488 60.7043 114.132C73.0191 105.775 83.0305 99.0641 83.073 99.1289Z" fill="#E0E0E0"/>
<path d="M87.4707 105.802C87.5133 105.867 77.5657 112.691 65.2562 121.037C52.9468 129.383 42.9141 136.11 42.9141 136.045C42.9141 135.981 52.8138 129.156 65.1286 120.805C77.4433 112.454 87.4282 105.737 87.4707 105.802Z" fill="#E0E0E0"/>
<path d="M91.8528 112.476C91.8954 112.54 81.9478 119.359 69.6383 127.71C57.3289 136.061 47.2962 142.778 47.2696 142.713C47.243 142.648 57.1852 135.829 69.5107 127.478C81.8361 119.127 91.8528 112.411 91.8528 112.476Z" fill="#E0E0E0"/>
<path d="M270.627 125.679L220.5 159.685L269.873 234.536L320 200.531L270.627 125.679Z" fill="#F5F5F5"/>
<path d="M294.105 197.006L293.535 200.578L268.613 196.936L269.188 193.365L294.105 197.006Z" fill="#E0E0E0"/>
<path d="M281.554 184.269L285.129 184.792L281.166 209.673L277.586 209.15L281.554 184.269Z" fill="#E0E0E0"/>
<path d="M258.602 152.672C258.645 152.736 253.629 156.216 247.394 160.44C241.16 164.664 236.074 168.041 236.032 167.993C235.989 167.944 241.011 164.454 247.24 160.224C253.469 155.995 258.56 152.58 258.602 152.672Z" fill="#E0E0E0"/>
<path d="M277.035 147.951C277.078 148.016 268.731 153.756 258.417 160.764C248.102 167.772 239.66 173.415 239.617 173.35C239.575 173.285 247.921 167.545 258.236 160.532C268.55 153.519 276.977 147.886 277.035 147.951Z" fill="#E0E0E0"/>
<path d="M280.73 153.551C280.773 153.616 272.427 159.356 262.112 166.369C251.797 173.382 243.355 179.015 243.313 178.95C243.27 178.885 251.59 173.172 261.931 166.159C272.272 159.146 280.699 153.492 280.73 153.551Z" fill="#E0E0E0"/>
<path d="M284.422 159.145C284.464 159.21 276.113 164.95 265.803 171.963C255.494 178.977 247.047 184.609 247.004 184.544C246.962 184.479 255.308 178.745 265.623 171.726C275.937 164.707 284.385 159.091 284.422 159.145Z" fill="#E0E0E0"/>
<path d="M288.145 164.761C288.187 164.826 279.841 170.561 269.526 177.574C259.211 184.587 250.769 190.219 250.727 190.16C250.684 190.1 259.031 184.355 269.345 177.342C279.66 170.329 288.075 164.697 288.145 164.761Z" fill="#E0E0E0"/>
<path d="M191.327 69.2361L136.633 39.5693L93.5583 121.244L148.253 150.911L191.327 69.2361Z" fill="#F5F5F5"/>
<path d="M138.891 125.358L135.422 126.561L126.613 101.87L130.087 100.661L138.891 125.358Z" fill="#E0E0E0"/>
<path d="M144.21 107.642L145.476 111.186L121.293 119.586L120.027 116.041L144.21 107.642Z" fill="#E0E0E0"/>
<path d="M161.39 71.2111C161.348 71.292 155.805 68.3681 149.001 64.6834C142.197 60.9988 136.723 57.94 136.766 57.8591C136.808 57.7781 142.357 60.7021 149.16 64.3867C155.964 68.0714 161.433 71.1248 161.39 71.2111Z" fill="#E0E0E0"/>
<path d="M174.518 85.901C174.476 85.9819 165.294 81.0834 154.012 74.9658C142.729 68.8481 133.622 63.8202 133.664 63.7393C133.707 63.6583 142.883 68.5514 154.166 74.6745C165.449 80.7975 174.561 85.82 174.518 85.901Z" fill="#E0E0E0"/>
<path d="M171.296 92.0133C171.253 92.0942 162.072 87.2011 150.789 81.0781C139.506 74.955 130.399 69.9325 130.442 69.8516C130.484 69.7707 139.66 74.6691 150.943 80.7868C162.226 86.9044 171.338 91.9323 171.296 92.0133Z" fill="#E0E0E0"/>
<path d="M168.073 98.1255C168.031 98.2064 158.849 93.3134 147.566 87.1957C136.283 81.078 127.176 76.0663 127.219 75.9692C127.261 75.8721 136.438 80.7813 147.72 86.899C159.003 93.0166 168.116 98.0446 168.073 98.1255Z" fill="#E0E0E0"/>
<path d="M164.851 104.238C164.808 104.319 155.626 99.4257 144.344 93.3081C133.061 87.1904 123.948 82.1625 123.996 82.0816C124.044 82.0006 133.215 86.8937 144.498 93.0114C155.781 99.129 164.893 104.157 164.851 104.238Z" fill="#E0E0E0"/>
<path opacity="0.2" d="M165.13 0H163.758V23.7262H165.13V0Z" fill="black"/>
<path d="M132.402 52.4316H196.482C196.482 52.4316 190.566 23.7368 163.958 23.7368C140.291 23.7368 132.402 52.4316 132.402 52.4316Z" fill="#BB0000"/>
<path d="M165.13 0H163.758V23.7262H165.13V0Z" fill="#BB0000"/>
<path d="M307.12 237.278C307.12 237.353 238.364 237.418 153.565 237.418C68.766 237.418 0 237.37 0 237.278C0 237.186 68.7447 237.138 153.565 237.138C238.386 237.138 307.12 237.197 307.12 237.278Z" fill="#263238"/>
<path d="M16.9992 203.491C17.8986 203.557 18.7757 203.805 19.5781 204.223C20.3806 204.64 21.092 205.216 21.6698 205.918C22.8187 207.331 23.6323 208.992 24.0477 210.774C24.9467 214.183 24.3934 218.213 23.4359 221.606C19.7973 220.285 17.5471 216.346 16.5205 214.275C14.9246 211.006 13.9724 204.1 16.9833 203.485" fill="#BB0000"/>
<path d="M28.6773 225.744C28.1309 224.885 27.8185 223.894 27.7718 222.872C27.725 221.851 27.9457 220.835 28.4113 219.928C28.8915 219.03 29.5434 218.238 30.3289 217.598C31.1143 216.958 32.0177 216.483 32.9861 216.201C33.8745 215.92 34.9065 215.807 35.6778 216.33C36.0255 216.597 36.2963 216.953 36.462 217.362C36.6276 217.771 36.6819 218.218 36.6194 218.655C36.4798 219.532 36.1126 220.355 35.5555 221.04C33.7841 223.473 31.635 225.496 28.6401 225.744" fill="#BB0000"/>
<path d="M29.0801 237.143C29.0012 236.914 28.9459 236.677 28.9152 236.436C28.8195 235.929 28.6918 235.277 28.5376 234.494C28.0601 232.352 27.9271 230.146 28.1439 227.961C28.3947 225.766 29.2193 223.678 30.5324 221.914C30.9336 221.386 31.3962 220.91 31.9102 220.495C32.0498 220.383 32.1954 220.278 32.3464 220.182C32.3944 220.142 32.4482 220.109 32.5059 220.085C31.8331 220.668 31.2184 221.317 30.6707 222.022C29.4269 223.788 28.6436 225.844 28.3939 227.999C28.0535 230.513 28.4737 232.817 28.7184 234.473C28.8461 235.298 28.9525 235.967 29.011 236.431C29.0529 236.666 29.076 236.904 29.0801 237.143Z" fill="#263238"/>
<path d="M18.1719 208.686C18.2326 208.771 18.2827 208.864 18.3208 208.961C18.4166 209.177 18.5442 209.447 18.6932 209.787C19.0177 210.504 19.4698 211.545 20.0178 212.835C21.1136 215.419 22.5818 219.012 24.1138 223.015C25.6459 227.017 26.9492 230.67 27.8375 233.329C28.295 234.656 28.6514 235.735 28.9014 236.485C29.0131 236.841 29.0983 237.127 29.1674 237.348C29.2054 237.448 29.2321 237.551 29.2472 237.656C29.1933 237.564 29.1504 237.467 29.1195 237.365C29.0397 237.149 28.9387 236.868 28.8057 236.518L27.6833 233.389C26.731 230.751 25.4012 227.104 23.8745 223.106C22.3477 219.109 20.9008 215.505 19.8475 212.905C19.3156 211.626 18.906 210.585 18.6028 209.824C18.4645 209.479 18.3527 209.204 18.2676 208.983C18.2277 208.887 18.1956 208.787 18.1719 208.686Z" fill="#263238"/>
<path d="M24.7563 229.601C23.6617 227.753 22.1491 226.196 20.3435 225.058C18.5379 223.92 16.4912 223.234 14.3725 223.058C13.3086 222.982 12 223.166 11.5213 224.137C11.0425 225.108 11.6808 226.295 12.4149 227.082C13.9747 228.737 15.9825 229.886 18.1854 230.386C20.3883 230.885 22.6877 230.711 24.7936 229.887" fill="#BB0000"/>
<path d="M16.0117 225.981C16.2373 225.97 16.4634 225.979 16.6873 226.008C16.9496 226.023 17.2107 226.053 17.4693 226.1C17.7725 226.159 18.1289 226.192 18.5013 226.3C18.9175 226.389 19.3279 226.504 19.7301 226.645C20.1961 226.797 20.6526 226.977 21.0972 227.184C22.1199 227.649 23.0872 228.23 23.9804 228.916C24.8634 229.618 25.6631 230.422 26.3636 231.311C26.6661 231.698 26.945 232.104 27.1988 232.525C27.4282 232.889 27.6377 233.265 27.8265 233.653C27.9863 233.968 28.1284 234.292 28.2521 234.624C28.3587 234.869 28.4493 235.121 28.5234 235.379C28.6021 235.594 28.6609 235.816 28.6989 236.043C28.6404 236.043 28.385 235.115 27.6669 233.734C27.4714 233.363 27.2565 233.002 27.0232 232.655C26.764 232.246 26.4834 231.852 26.1827 231.473C24.7914 229.73 23.017 228.34 21.0015 227.416C20.5387 227.211 20.0972 227.017 19.6663 226.877C19.2707 226.731 18.8676 226.606 18.4587 226.505C16.9693 226.089 16.0064 226.041 16.0117 225.981Z" fill="#263238"/>
<path d="M257.485 56.9043C255.921 57.2658 255.161 59.0946 255.012 60.713C254.863 62.3315 255.065 64.047 254.395 65.5252C253.639 67.1868 251.836 68.4168 251.777 70.2456C251.74 71.3623 252.394 72.4035 252.363 73.531C252.309 75.3652 250.469 76.7679 250.368 78.5805C250.299 79.9022 251.166 81.1646 250.958 82.4701C250.799 83.4843 250.017 84.2828 249.687 85.2538C249.033 87.1959 250.346 89.3269 252.054 90.4166C253.011 91.0266 254.087 91.4173 255.208 91.5616C256.329 91.7058 257.468 91.6001 258.544 91.2518C259.621 90.9034 260.609 90.3209 261.441 89.5449C262.272 88.7689 262.927 87.8181 263.358 86.759C264.305 84.4284 264.098 81.8012 263.89 79.2926C263.252 71.4666 262.776 63.6298 262.464 55.7822" fill="#263238"/>
<path d="M252.941 84.5145C253.263 84.3117 253.514 84.0117 253.66 83.6568C253.813 83.2346 253.875 82.7837 253.84 82.3351C253.782 81.7402 253.652 81.155 253.452 80.5925C253.198 79.8856 253.103 79.1297 253.175 78.3807C253.308 77.5391 253.904 76.8486 254.442 76.1688C254.731 75.8362 254.973 75.4639 255.16 75.0629C255.347 74.6574 255.378 74.1953 255.245 73.7682C254.968 72.8888 254.117 72.2415 253.729 71.2218C253.546 70.7171 253.517 70.1685 253.644 69.6466C253.764 69.1572 253.943 68.6844 254.176 68.2385C254.625 67.4355 254.982 66.583 255.239 65.6976C255.612 63.9875 255.436 62.3528 255.692 61.0095C255.833 59.9337 256.304 58.9299 257.037 58.1395C257.245 57.9266 257.481 57.745 257.74 57.6001C257.829 57.553 257.923 57.5185 258.022 57.4976C257.688 57.6837 257.382 57.9161 257.112 58.1881C256.432 58.9864 256.004 59.9729 255.883 61.0203C255.79 61.7359 255.74 62.4565 255.734 63.1782C255.733 64.0276 255.651 64.8749 255.489 65.7084C255.236 66.6141 254.879 67.4868 254.426 68.3087C254.027 69.1556 253.66 70.1483 254.011 71.0762C254.362 72.0041 255.208 72.6461 255.532 73.6387C255.679 74.1291 255.643 74.6569 255.431 75.1223C255.224 75.5635 254.955 75.9723 254.633 76.3361C254.101 77.0158 253.521 77.6632 253.394 78.4185C253.319 79.1348 253.403 79.859 253.638 80.5386C253.828 81.1185 253.946 81.7202 253.989 82.3297C254.016 82.7991 253.934 83.2682 253.75 83.6999C253.636 83.9706 253.452 84.2053 253.218 84.3797C253.135 84.4415 253.041 84.4872 252.941 84.5145Z" fill="#455A64"/>
<path d="M248.78 97.3057L243.992 111.332L223.97 112.411L220.629 119.964L241.535 122.122C242.523 122.533 243.582 122.737 244.65 122.721C245.717 122.705 246.771 122.47 247.746 122.03C248.722 121.59 249.599 120.954 250.325 120.16C251.052 119.366 251.612 118.431 251.972 117.412L257.552 101.616L248.78 97.3057Z" fill="#FFF4EB"/>
<path d="M290.174 229.655C290.174 229.655 275.502 182.386 275.189 180.854C274.907 179.462 280.508 145.448 281.221 136.617L261.395 137.367V137.567L252.969 138.041L260.512 234.672H269.635L268.731 202.601C274.359 217.916 282.423 233.529 282.423 233.529L290.174 229.655Z" fill="#FFF4EB"/>
<path d="M269.102 214.108C269.102 213.816 268.991 203.361 268.991 203.361C268.879 203.987 265.496 194.287 265.576 193.699C265.618 193.392 269.102 214.108 269.102 214.108Z" fill="#FFF4EB"/>
<path d="M265.194 189.103C265.147 189.295 265.127 189.493 265.135 189.691C265.106 190.23 265.106 190.77 265.135 191.309C265.135 191.649 265.183 192.016 265.226 192.415C265.268 192.815 265.327 193.235 265.417 193.672C265.606 194.627 265.857 195.567 266.167 196.488C266.827 198.447 267.561 200.157 268.077 201.398C268.322 201.937 268.535 202.45 268.715 202.86C268.781 203.05 268.87 203.232 268.981 203.399C268.953 203.213 268.899 203.031 268.822 202.86C268.699 202.504 268.513 201.991 268.29 201.36C267.822 200.098 267.12 198.371 266.465 196.435C266.156 195.527 265.902 194.601 265.705 193.662C265.609 193.23 265.545 192.815 265.486 192.426C265.428 192.038 265.385 191.671 265.359 191.347C265.295 190.678 265.268 190.139 265.252 189.761C265.262 189.54 265.243 189.319 265.194 189.103Z" fill="#FFF4EB"/>
<path d="M260.341 235.163V234.295L269.688 233.879L269.714 237.467L269.14 237.505C266.571 237.656 256.08 238.098 254.367 237.575C252.447 236.992 260.341 235.163 260.341 235.163Z" fill="#455A64"/>
<path d="M269.836 237.251C269.783 237.255 269.73 237.255 269.677 237.251L269.219 237.283L267.528 237.359C266.102 237.418 264.129 237.472 261.953 237.483C259.777 237.494 257.798 237.456 256.367 237.413L254.681 237.343H254.218H254.059C254.112 237.338 254.165 237.338 254.218 237.343H254.681L256.373 237.375C257.798 237.375 259.772 237.418 261.948 237.407C264.123 237.397 266.102 237.359 267.528 237.321L269.219 237.278H269.836V237.251Z" fill="#263238"/>
<path d="M257.294 237.553C257.216 237.271 257.109 236.998 256.974 236.739C256.806 236.5 256.611 236.281 256.395 236.086C256.685 236.191 256.926 236.403 257.07 236.679C257.246 236.934 257.325 237.244 257.294 237.553Z" fill="#263238"/>
<path d="M260.049 236.134C260.049 236.134 259.895 235.989 259.756 235.773C259.618 235.557 259.533 235.368 259.56 235.352C259.586 235.336 259.714 235.492 259.852 235.708C259.99 235.924 260.076 236.118 260.049 236.134Z" fill="#263238"/>
<path d="M260.802 235.751C260.802 235.778 260.632 235.676 260.473 235.53C260.313 235.385 260.196 235.25 260.217 235.228C260.239 235.207 260.388 235.304 260.547 235.449C260.707 235.595 260.824 235.703 260.802 235.751Z" fill="#263238"/>
<path d="M261.278 234.834C261.122 234.892 260.955 234.915 260.789 234.899C260.626 234.921 260.46 234.904 260.305 234.851C260.459 234.793 260.625 234.771 260.789 234.786C260.953 234.763 261.121 234.78 261.278 234.834Z" fill="#263238"/>
<path d="M261.435 234.208C261.277 234.313 261.092 234.369 260.903 234.37C260.722 234.394 260.538 234.368 260.371 234.295C260.547 234.265 260.725 234.25 260.903 234.252C261.079 234.22 261.257 234.205 261.435 234.208Z" fill="#263238"/>
<path d="M259.736 235.309C259.537 235.347 259.334 235.347 259.135 235.309C258.92 235.283 258.708 235.236 258.502 235.169C258.374 235.133 258.251 235.082 258.135 235.018C258.064 234.976 258.011 234.908 257.986 234.829C257.976 234.784 257.98 234.737 257.996 234.694C258.012 234.651 258.04 234.614 258.076 234.586C258.224 234.514 258.385 234.476 258.549 234.474C258.712 234.473 258.874 234.508 259.023 234.578C259.172 234.647 259.303 234.75 259.408 234.877C259.513 235.004 259.589 235.154 259.63 235.315C259.64 235.368 259.64 235.423 259.63 235.476C259.57 235.282 259.476 235.099 259.353 234.937C259.212 234.775 259.027 234.659 258.821 234.602C258.586 234.525 258.33 234.545 258.108 234.656C258.018 234.727 258.055 234.84 258.156 234.905C258.265 234.964 258.379 235.013 258.497 235.05C258.697 235.117 258.901 235.169 259.108 235.207C259.507 235.293 259.736 235.293 259.736 235.309Z" fill="#263238"/>
<path d="M259.579 235.342C259.501 235.216 259.474 235.066 259.504 234.921C259.523 234.762 259.58 234.61 259.669 234.478C259.719 234.388 259.79 234.312 259.877 234.258C259.963 234.203 260.062 234.171 260.164 234.166C260.224 234.18 260.277 234.217 260.311 234.269C260.346 234.321 260.36 234.384 260.35 234.446C260.337 234.543 260.302 234.635 260.249 234.716C260.168 234.85 260.074 234.974 259.967 235.088C259.874 235.196 259.758 235.279 259.626 235.331C259.626 235.331 259.743 235.223 259.908 235.029C260.004 234.917 260.088 234.796 260.158 234.667C260.238 234.538 260.297 234.306 260.158 234.279C260.02 234.252 259.86 234.419 259.77 234.538C259.685 234.655 259.627 234.789 259.6 234.932C259.578 235.067 259.571 235.205 259.579 235.342Z" fill="#263238"/>
<path d="M269.641 234.673C269.641 234.673 269.375 234.673 268.954 234.7C268.407 234.766 267.889 234.987 267.46 235.337C267.03 235.687 266.706 236.152 266.523 236.679C266.385 237.084 266.374 237.359 266.353 237.354C266.332 237.348 266.353 237.284 266.353 237.165C266.367 236.991 266.399 236.819 266.449 236.652C266.618 236.1 266.944 235.611 267.385 235.244C267.832 234.885 268.375 234.669 268.944 234.624C269.121 234.603 269.299 234.603 269.476 234.624C269.533 234.633 269.588 234.649 269.641 234.673Z" fill="#263238"/>
<path d="M265.168 236.496C264.721 236.601 264.264 236.647 263.806 236.631C263.35 236.654 262.894 236.614 262.449 236.512C262.449 236.48 263.056 236.512 263.806 236.512C264.556 236.512 265.162 236.464 265.168 236.496Z" fill="#263238"/>
<path d="M266.985 236.48C266.985 236.48 266.937 236.609 266.873 236.749C266.809 236.89 266.777 237.019 266.745 237.014C266.714 237.008 266.698 236.868 266.772 236.701C266.847 236.534 266.964 236.453 266.985 236.48Z" fill="#263238"/>
<path d="M267.67 235.611C267.67 235.611 267.632 235.73 267.537 235.827C267.441 235.924 267.345 235.989 267.319 235.967C267.292 235.945 267.356 235.848 267.452 235.746C267.547 235.643 267.643 235.584 267.67 235.611Z" fill="#263238"/>
<path d="M268.649 235.212C268.649 235.244 268.521 235.244 268.383 235.293C268.245 235.341 268.149 235.417 268.122 235.395C268.096 235.374 268.175 235.244 268.346 235.185C268.516 235.125 268.659 235.179 268.649 235.212Z" fill="#263238"/>
<path d="M269.348 235.018C269.348 235.05 269.311 235.099 269.231 235.126C269.151 235.153 269.082 235.158 269.072 235.126C269.061 235.093 269.114 235.045 269.189 235.018C269.263 234.991 269.338 234.991 269.348 235.018Z" fill="#263238"/>
<path d="M282.235 234.327L281.884 233.534L290.241 229.278L291.714 232.515L291.182 232.79C288.9 233.993 279.511 238.751 277.734 238.988C275.771 239.274 282.235 234.327 282.235 234.327Z" fill="#455A64"/>
<path d="M291.747 232.283L291.609 232.369L291.199 232.585L289.688 233.362C288.412 234.004 286.635 234.872 284.651 235.789C282.667 236.706 280.847 237.489 279.528 238.044L277.959 238.686L277.533 238.854C277.484 238.877 277.432 238.893 277.379 238.902L277.523 238.832L277.943 238.643L279.496 237.969C280.81 237.397 282.619 236.599 284.603 235.681C286.587 234.764 288.369 233.912 289.656 233.286L291.178 232.547L291.598 232.347L291.747 232.283Z" fill="#263238"/>
<path d="M280.442 237.769C280.258 237.541 280.049 237.335 279.82 237.154C279.57 237.004 279.304 236.885 279.027 236.798C279.333 236.794 279.632 236.885 279.885 237.058C280.138 237.232 280.333 237.48 280.442 237.769Z" fill="#263238"/>
<path d="M282.365 235.331C282.365 235.331 282.163 235.266 281.95 235.126C281.737 234.985 281.583 234.851 281.599 234.824C281.615 234.797 281.801 234.888 282.014 235.029C282.226 235.169 282.381 235.304 282.365 235.331Z" fill="#263238"/>
<path d="M282.885 234.673C282.885 234.7 282.705 234.673 282.497 234.608C282.29 234.543 282.135 234.462 282.141 234.43C282.275 234.417 282.411 234.439 282.534 234.495C282.737 234.543 282.896 234.619 282.885 234.673Z" fill="#263238"/>
<path d="M282.961 233.637C282.961 233.669 282.786 233.782 282.541 233.901C282.4 233.987 282.242 234.04 282.078 234.058C282.078 234.025 282.254 233.912 282.493 233.793C282.636 233.708 282.796 233.654 282.961 233.637Z" fill="#263238"/>
<path d="M282.853 233C282.853 233 282.699 233.216 282.423 233.372C282.266 233.48 282.08 233.537 281.891 233.534C282.043 233.43 282.205 233.342 282.375 233.27C282.635 233.124 282.827 232.973 282.853 233Z" fill="#263238"/>
<path d="M281.764 234.715C281.602 234.828 281.422 234.912 281.232 234.964C281.023 235.025 280.809 235.07 280.594 235.098C280.463 235.115 280.331 235.115 280.2 235.098C280.118 235.092 280.041 235.053 279.987 234.99C279.962 234.952 279.949 234.907 279.949 234.861C279.949 234.815 279.962 234.77 279.987 234.732C280.149 234.533 280.374 234.397 280.623 234.348C280.872 234.299 281.131 234.339 281.354 234.462C281.486 234.532 281.602 234.629 281.695 234.748C281.759 234.834 281.785 234.888 281.78 234.893C281.649 234.745 281.492 234.623 281.317 234.532C281.13 234.443 280.921 234.411 280.716 234.44C280.594 234.453 280.476 234.49 280.368 234.549C280.26 234.609 280.165 234.689 280.088 234.785C280.03 234.888 280.088 234.974 280.232 234.99C280.354 235.001 280.477 235.001 280.599 234.99C280.811 234.969 281.02 234.931 281.227 234.877C281.53 234.791 281.764 234.699 281.764 234.715Z" fill="#263238"/>
<path d="M281.616 234.807C281.497 234.722 281.414 234.595 281.381 234.451C281.335 234.299 281.324 234.139 281.35 233.982C281.359 233.878 281.394 233.779 281.452 233.693C281.509 233.607 281.588 233.537 281.679 233.491C281.812 233.448 282.121 233.723 282.142 233.825C282.163 233.928 281.988 233.874 281.977 233.96C281.96 234.113 281.924 234.264 281.871 234.408C281.832 234.547 281.759 234.673 281.658 234.775C281.658 234.775 281.722 234.629 281.796 234.386C281.835 234.243 281.861 234.097 281.876 233.949C281.876 233.798 281.876 233.566 281.706 233.604C281.536 233.642 281.488 233.852 281.451 234.003C281.418 234.144 281.418 234.289 281.451 234.43C281.495 234.56 281.55 234.686 281.616 234.807Z" fill="#263238"/>
<path d="M290.524 230.011C290.524 230.011 290.268 230.103 289.907 230.324C289.434 230.611 289.049 231.026 288.795 231.522C288.549 232.023 288.444 232.583 288.492 233.14C288.524 233.572 288.625 233.82 288.603 233.831C288.569 233.777 288.542 233.719 288.524 233.658C288.471 233.493 288.433 233.323 288.412 233.151C288.336 232.576 288.434 231.992 288.693 231.475C288.953 230.959 289.361 230.535 289.864 230.259C290.015 230.175 290.173 230.106 290.337 230.054C290.397 230.031 290.46 230.016 290.524 230.011Z" fill="#263238"/>
<path d="M287.177 233.54C286.427 234.069 285.589 234.456 284.703 234.683C284.703 234.651 285.262 234.435 285.943 234.144C286.623 233.852 287.161 233.513 287.177 233.54Z" fill="#263238"/>
<path d="M288.833 232.768C288.86 232.768 288.833 232.903 288.833 233.059C288.833 233.216 288.833 233.345 288.833 233.356C288.833 233.367 288.727 233.237 288.727 233.059C288.727 232.881 288.806 232.752 288.833 232.768Z" fill="#263238"/>
<path d="M289.103 231.689C289.13 231.689 289.103 231.813 289.071 231.943C289.039 232.072 288.959 232.169 288.933 232.159C288.906 232.148 288.933 232.035 288.965 231.905C288.997 231.776 289.071 231.679 289.103 231.689Z" fill="#263238"/>
<path d="M289.84 230.896C289.84 230.928 289.733 230.977 289.627 231.079C289.52 231.182 289.462 231.29 289.435 231.279C289.409 231.268 289.435 231.117 289.552 230.993C289.669 230.869 289.834 230.896 289.84 230.896Z" fill="#263238"/>
<path d="M290.395 230.454C290.395 230.454 290.395 230.54 290.331 230.6C290.267 230.659 290.209 230.691 290.188 230.67C290.166 230.648 290.188 230.583 290.251 230.524C290.315 230.465 290.374 230.432 290.395 230.454Z" fill="#263238"/>
<path d="M279.935 120.649L278.381 101.389L286.361 101.535C286.361 101.535 286.728 98.692 285.552 92.4665C284.829 88.647 282.323 86.3057 279.509 84.9138V84.8599L279.264 84.7951C276.948 83.7404 274.474 83.0858 271.945 82.8584L262.13 82.9717C262.13 82.9717 254.635 82.0006 250.502 87.4439C248.906 89.5317 243.953 103.822 243.953 103.822L255.736 109.573L254.635 101.648C254.635 101.648 254.858 107.394 255.582 109.201C255.981 110.215 257.178 113.366 257.178 113.366L257.023 122.871L279.935 120.649Z" fill="#BB0000"/>
<path d="M274.524 98.5949L273.066 104.885H286.807L285.903 94.333L274.524 98.5949Z" fill="#BB0000"/>
<path d="M286.807 104.885C286.207 104.773 285.598 104.712 284.988 104.702C283.86 104.637 282.328 104.578 280.583 104.589C278.838 104.599 277.301 104.675 276.173 104.761C275.563 104.783 274.956 104.859 274.359 104.988C274.968 105.037 275.58 105.037 276.189 104.988C277.312 104.95 278.849 104.907 280.583 104.902C282.317 104.896 283.855 104.902 284.983 104.929C285.591 104.963 286.201 104.949 286.807 104.885Z" fill="#263238"/>
<path d="M273.926 94.2847C273.861 94.8215 273.846 95.3635 273.883 95.9031C273.883 96.8903 273.926 98.2498 273.985 99.755C274.043 101.26 274.112 102.625 274.176 103.607C274.179 104.151 274.236 104.693 274.346 105.225C274.412 104.688 274.426 104.146 274.389 103.607C274.389 102.62 274.346 101.255 274.288 99.7496C274.229 98.2444 274.16 96.8849 274.096 95.8977C274.094 95.3555 274.037 94.815 273.926 94.2847Z" fill="#263238"/>
<g opacity="0.3">
<path opacity="0.3" d="M261.426 99.7334C261.426 99.7334 264.479 122.699 273.065 122.089C273.065 122.089 276.932 122.046 278.172 119.44V118.415L261.426 99.7334Z" fill="black"/>
</g>
<g opacity="0.3">
<path opacity="0.3" d="M273.925 95.6387L272.281 106.898L273.345 108.872L275.101 105.009L274.356 104.988L273.925 95.6387Z" fill="black"/>
</g>
<path d="M257.129 113.376C257.028 113.208 256.949 113.027 256.895 112.837C256.762 112.486 256.587 111.974 256.363 111.332C255.831 109.659 255.392 107.957 255.05 106.234C254.708 104.51 254.491 102.762 254.401 101.006C254.369 100.332 254.358 99.787 254.369 99.3878C254.355 99.1928 254.367 98.9968 254.406 98.8052C254.448 98.8052 254.48 99.636 254.592 100.963C254.742 102.703 254.985 104.434 255.321 106.147C255.714 108.154 256.188 109.951 256.55 111.24C256.72 111.839 256.863 112.351 256.981 112.772C257.054 112.967 257.104 113.17 257.129 113.376Z" fill="#263238"/>
<path d="M260.596 119.974C260.521 119.974 260.308 119.505 260.122 118.895C259.962 118.522 259.891 118.115 259.915 117.708C260.149 118.038 260.311 118.415 260.388 118.814C260.541 119.181 260.612 119.577 260.596 119.974Z" fill="#263238"/>
<path d="M261.783 119.888C261.381 118.806 261.364 117.615 261.735 116.521C261.777 117.082 261.777 117.644 261.735 118.205C261.793 118.764 261.809 119.326 261.783 119.888Z" fill="#263238"/>
<path d="M255.975 109.838C255.938 109.902 253.198 108.586 249.852 106.892C246.506 105.198 243.82 103.763 243.852 103.693C243.884 103.623 246.629 104.945 249.975 106.639C253.321 108.333 256.007 109.768 255.975 109.838Z" fill="#263238"/>
<path d="M260.802 84.8331C260.861 82.1033 260.877 79.2333 260.877 79.2333C260.877 79.2333 257.424 78.559 256.823 73.9519C256.249 69.5605 257.855 59.2511 257.855 59.2511C262.898 57.3198 268.138 59.0731 271.59 63.2163L270.734 85.3726C270.633 87.9459 268.372 89.9096 265.659 89.7801C262.914 89.6452 260.744 87.4334 260.802 84.8331Z" fill="#FFF4EB"/>
<path d="M257.59 67.4884C257.585 67.6397 257.638 67.787 257.737 67.9003C257.836 68.0136 257.973 68.0844 258.122 68.098C258.198 68.1054 258.274 68.0972 258.346 68.0737C258.418 68.0503 258.485 68.0121 258.542 67.9617C258.6 67.9112 258.646 67.8494 258.679 67.7801C258.712 67.7108 258.731 67.6354 258.734 67.5586C258.738 67.4079 258.686 67.2612 258.587 67.1488C258.488 67.0363 258.35 66.9667 258.202 66.9543C258.126 66.9427 258.049 66.9478 257.975 66.9693C257.901 66.9908 257.833 67.0281 257.775 67.0789C257.717 67.1296 257.67 67.1925 257.638 67.2631C257.606 67.3338 257.59 67.4107 257.59 67.4884Z" fill="#263238"/>
<path d="M257.377 66.7171C257.446 66.7926 257.909 66.4743 258.521 66.4959C259.132 66.5175 259.584 66.8411 259.659 66.7656C259.733 66.6901 259.627 66.593 259.43 66.4365C259.164 66.2408 258.844 66.1334 258.515 66.129C258.191 66.1165 257.872 66.2112 257.606 66.3988C257.409 66.5444 257.34 66.6793 257.377 66.7171Z" fill="#263238"/>
<path d="M263.926 67.8878C263.92 68.0394 263.972 68.1875 264.071 68.3011C264.171 68.4147 264.309 68.485 264.458 68.4975C264.534 68.5092 264.612 68.504 264.686 68.4822C264.76 68.4604 264.829 68.4225 264.887 68.3712C264.945 68.3199 264.992 68.2563 265.023 68.185C265.055 68.1136 265.071 68.0362 265.07 67.958C265.076 67.807 265.024 67.6595 264.924 67.5468C264.825 67.4341 264.687 67.3648 264.538 67.3538C264.462 67.3421 264.385 67.3472 264.311 67.3687C264.237 67.3902 264.169 67.4276 264.111 67.4783C264.053 67.529 264.006 67.5919 263.975 67.6626C263.943 67.7332 263.926 67.8101 263.926 67.8878Z" fill="#263238"/>
<path d="M263.882 67.1166C263.952 67.1975 264.414 66.8792 265.026 66.8954C265.638 66.9116 266.09 67.2406 266.17 67.1651C266.25 67.0896 266.133 66.9925 265.936 66.8414C265.674 66.6406 265.355 66.5309 265.026 66.5285C264.701 66.5187 264.381 66.613 264.111 66.7983C263.92 66.9439 263.851 67.0788 263.882 67.1166Z" fill="#263238"/>
<path d="M261.5 71.7506C261.174 71.6368 260.834 71.5661 260.489 71.5402C260.33 71.5402 260.181 71.4809 260.16 71.373C260.147 71.2044 260.188 71.036 260.277 70.8929L260.777 69.6791C261.242 68.6474 261.625 67.5794 261.92 66.4854C261.376 67.4766 260.91 68.5103 260.527 69.5766C260.362 70.0027 260.197 70.4127 260.043 70.8012C259.939 70.9939 259.906 71.2171 259.947 71.4324C259.968 71.4908 260.002 71.5437 260.046 71.5867C260.09 71.6297 260.144 71.6618 260.202 71.6805C260.29 71.7064 260.382 71.7209 260.473 71.7237C260.813 71.7767 261.158 71.7858 261.5 71.7506Z" fill="#263238"/>
<path d="M260.879 79.2331C263.007 79.3195 265.117 78.8059 266.975 77.7495C266.975 77.7495 265.427 80.8623 260.911 80.3174L260.879 79.2331Z" fill="#FFF4EB"/>
<path d="M265.883 65.2767C265.755 65.4763 265.277 65.39 264.745 65.2767C264.213 65.1634 263.745 65.0717 263.681 64.8397C263.617 64.6077 264.175 64.3002 264.888 64.4459C265.601 64.5916 266.011 65.1041 265.883 65.2767Z" fill="#263238"/>
<path d="M259.676 64.3595C259.628 64.5915 259.117 64.6778 258.532 64.7048C257.947 64.7318 257.431 64.7048 257.362 64.4674C257.293 64.23 257.787 63.8956 258.495 63.8632C259.202 63.8308 259.724 64.1383 259.676 64.3595Z" fill="#263238"/>
<path d="M261.512 73.2666C261.445 73.2505 261.374 73.2577 261.312 73.287C261.249 73.3163 261.198 73.3662 261.166 73.4285C261.136 73.4835 261.12 73.5456 261.121 73.6086C261.122 73.6716 261.139 73.7333 261.17 73.7876C261.202 73.842 261.246 73.887 261.3 73.9183C261.354 73.9497 261.415 73.9661 261.477 73.9661C261.54 73.9661 261.601 73.9497 261.655 73.9183C261.709 73.887 261.753 73.842 261.785 73.7876C261.816 73.7333 261.833 73.6716 261.834 73.6086C261.835 73.5456 261.819 73.4835 261.789 73.4285C261.751 73.356 261.689 73.2989 261.615 73.2665C261.54 73.2342 261.457 73.2285 261.379 73.2504" fill="#FFF4EB"/>
<path d="M261.654 73.3313C261.654 73.3043 261.553 73.1478 261.282 73.2072C261.201 73.2286 261.127 73.2713 261.067 73.331C261.007 73.3906 260.964 73.4651 260.942 73.547C260.913 73.6503 260.916 73.7599 260.949 73.8618C260.982 73.9636 261.044 74.0531 261.128 74.1189C261.216 74.1804 261.321 74.2133 261.428 74.2133C261.536 74.2133 261.64 74.1804 261.729 74.1189C261.8 74.0706 261.855 74.0027 261.889 73.9234C261.923 73.844 261.934 73.7565 261.92 73.6711C261.867 73.3852 261.66 73.3421 261.649 73.3798C261.638 73.4176 261.724 73.5147 261.708 73.6819C261.704 73.7232 261.691 73.763 261.668 73.7978C261.646 73.8326 261.616 73.8614 261.58 73.8815C261.539 73.9057 261.492 73.9184 261.444 73.9184C261.397 73.9184 261.35 73.9057 261.309 73.8815C261.272 73.8496 261.243 73.8085 261.226 73.7621C261.21 73.7158 261.205 73.6659 261.213 73.6172C261.219 73.5746 261.235 73.5341 261.26 73.4993C261.285 73.4645 261.318 73.4365 261.357 73.4176C261.505 73.3259 261.638 73.369 261.654 73.3313Z" fill="#263238"/>
<path d="M269.526 68.6269C268.995 69.8893 267.675 70.8657 267.856 72.2306C267.973 73.1099 268.532 73.9299 268.425 74.8147C268.287 75.8936 267.154 76.6921 266.989 77.798C266.792 79.1521 268.096 80.2041 268.612 81.4664C269.372 83.3114 268.404 85.383 268.377 87.4007C268.409 88.9325 268.987 90.4009 270.004 91.5337C271.021 92.6665 272.409 93.3869 273.91 93.5615C275.123 93.664 276.49 93.2918 277.102 92.2344C277.633 91.3604 277.516 90.2491 277.825 89.2834C278.293 87.8377 279.65 86.7803 279.953 85.2913C280.485 82.5939 277.24 80.3281 277.453 77.566C277.543 76.3846 278.261 75.3596 278.564 74.2159C278.757 73.4642 278.772 72.6769 278.608 71.9184C278.443 71.1598 278.104 70.4515 277.618 69.8515C276.814 68.8858 275.655 68.2331 274.958 67.1973C274.186 66.005 274.16 64.4999 273.894 63.0919C273.537 61.3804 272.757 59.7888 271.629 58.4656C270.501 57.1425 269.06 56.1311 267.441 55.526C265.823 54.9209 264.08 54.7418 262.374 55.0054C260.669 55.269 259.058 55.9668 257.69 57.0335C257.69 57.0335 256.919 60.5887 260.52 61.1875C264.122 61.7863 265.787 61.0958 266.191 62.5578C266.096 63.1601 266.143 63.7766 266.328 64.3571C266.512 64.9375 266.83 65.4653 267.255 65.8971C268.723 67.5048 270.122 67.1595 269.526 68.6269Z" fill="#263238"/>
<path d="M275.244 93.2866C275.134 93.2904 275.023 93.2795 274.915 93.2542C274.603 93.1981 274.296 93.1132 274 93.0006C272.901 92.5735 271.938 91.8519 271.212 90.9129C270.703 90.2649 270.304 89.5356 270.031 88.755C269.721 87.8658 269.557 86.9307 269.547 85.9874C269.536 84.9478 269.665 83.9114 269.93 82.907C270.075 82.3766 270.253 81.8559 270.462 81.3479C270.682 80.8424 270.875 80.3256 271.042 79.7996C271.188 79.2814 271.188 78.7319 271.042 78.2136C270.886 77.7034 270.685 77.2086 270.441 76.7354C270.194 76.2662 269.986 75.7772 269.819 75.2734C269.655 74.7748 269.616 74.2426 269.707 73.7251C269.92 72.7109 270.526 71.9557 270.888 71.1842C271.232 70.4701 271.397 69.6805 271.367 68.886C271.318 67.7235 270.902 66.6075 270.18 65.7031C269.901 65.3863 269.6 65.0889 269.281 64.813C269.654 65.0255 269.987 65.3031 270.265 65.633C271.04 66.536 271.497 67.6747 271.563 68.8699C271.607 69.6989 271.446 70.5259 271.095 71.2759C270.728 72.0743 270.138 72.835 269.957 73.7629C269.776 74.6908 270.207 75.6673 270.68 76.6059C270.939 77.0927 271.149 77.6041 271.308 78.1327C271.465 78.6971 271.465 79.2946 271.308 79.859C271.131 80.4032 270.927 80.938 270.696 81.4612C270.487 81.9581 270.309 82.4681 270.164 82.988C269.9 83.9669 269.77 84.9779 269.776 85.9928C269.76 87.7213 270.31 89.4064 271.34 90.7834C272.029 91.7107 272.946 92.4382 274 92.8927C274.792 93.2056 275.25 93.2542 275.244 93.2866Z" fill="#455A64"/>
<path d="M274.714 66.0644C274.454 66.1325 274.189 66.1722 273.921 66.1831C273.191 66.2622 272.454 66.2423 271.729 66.1237C271.18 66.0412 270.652 65.8484 270.177 65.5567C269.702 65.2649 269.29 64.8799 268.963 64.4244C268.659 63.848 268.416 63.2404 268.24 62.6117C268.013 61.9838 267.586 61.4504 267.027 61.0958C265.862 60.3459 264.495 60.2542 263.303 60.1086C262.204 60.053 261.137 59.7151 260.202 59.1267C259.575 58.7059 259.123 58.0667 258.93 57.3303C258.884 57.1307 258.871 56.9245 258.893 56.7206C258.893 56.5804 258.925 56.5103 258.936 56.5103C258.942 56.7775 258.976 57.0433 259.037 57.3033C259.257 57.9919 259.709 58.58 260.313 58.9649C261.231 59.508 262.268 59.8119 263.33 59.8496C264.521 59.9899 265.936 60.06 267.181 60.8584C267.79 61.2464 268.254 61.8292 268.5 62.5146C268.667 63.1273 268.897 63.7204 269.187 64.2841C269.806 65.1461 270.734 65.7272 271.772 65.9025C272.473 66.0348 273.187 66.0836 273.9 66.0482C274.171 66.0327 274.443 66.0381 274.714 66.0644Z" fill="#455A64"/>
<path d="M273.395 61.673C273.195 61.741 272.984 61.7721 272.773 61.7648C271.781 61.7715 270.826 61.3842 270.113 60.6858C269.787 60.3549 269.51 59.9789 269.288 59.5691C268.809 58.7491 268.347 57.7403 267.352 57.3195C266.394 56.9934 265.373 56.9028 264.373 57.0551C263.53 57.1753 262.674 57.1753 261.83 57.0551C261.243 56.9726 260.691 56.726 260.234 56.343C260.116 56.2387 260.013 56.119 259.926 55.987C259.862 55.8935 259.835 55.8449 259.846 55.8413C259.846 55.8413 259.995 56.0139 260.304 56.2567C260.758 56.5848 261.287 56.7925 261.841 56.8609C262.669 56.9556 263.506 56.9411 264.33 56.8178C265.374 56.645 266.443 56.7376 267.442 57.0875C267.956 57.3216 268.396 57.695 268.714 58.1665C268.994 58.587 269.252 59.0228 269.485 59.472C269.695 59.8641 269.954 60.2268 270.256 60.5509C270.523 60.825 270.83 61.0561 271.166 61.2361C271.661 61.4981 272.205 61.6507 272.762 61.6838C273.172 61.6784 273.39 61.6461 273.395 61.673Z" fill="#455A64"/>
<path d="M276.83 92.121C276.803 92.121 276.973 91.7649 277.17 91.096C277.437 90.1568 277.555 89.181 277.521 88.2044C277.483 86.7587 277.094 85.345 276.388 84.0882C276 83.3814 275.41 82.7502 274.925 81.9734C274.669 81.5777 274.489 81.1366 274.393 80.6733C274.31 80.1855 274.35 79.6842 274.511 79.2167C274.808 78.2834 275.34 77.5012 275.457 76.6434C275.574 75.7856 275.17 75.025 274.766 74.3074C274.557 73.9583 274.367 73.5981 274.197 73.2285C274.041 72.87 273.939 72.49 273.893 72.101C273.843 71.4155 273.865 70.7265 273.957 70.0456C274.127 69.083 274.039 68.0917 273.702 67.1756C273.551 66.8546 273.338 66.5683 273.074 66.334C273.074 66.334 273.101 66.334 273.138 66.3664C273.201 66.3981 273.259 66.44 273.308 66.4904C273.516 66.6662 273.685 66.8851 273.803 67.1324C274.188 68.0564 274.308 69.0718 274.149 70.0618C274.075 70.73 274.067 71.404 274.122 72.074C274.253 72.8277 274.548 73.5426 274.984 74.1672C275.211 74.5318 275.405 74.9163 275.564 75.3163C275.731 75.748 275.786 76.2162 275.723 76.6757C275.596 77.6198 275.048 78.4183 274.771 79.2976C274.626 79.7219 274.588 80.1762 274.659 80.6193C274.752 81.0479 274.922 81.4557 275.16 81.8224C275.612 82.5722 276.223 83.2142 276.612 83.9533C277.324 85.2526 277.705 86.7122 277.718 88.199C277.735 89.1941 277.584 90.1848 277.271 91.1283C277.186 91.3837 277.083 91.6325 276.963 91.8728C276.93 91.9615 276.886 92.0451 276.83 92.121Z" fill="#455A64"/>
<path d="M255.165 192.642C255.165 192.642 251.58 158.202 251.373 145.476C251.165 132.749 257.017 120.19 257.017 120.19L279.933 119.225C279.933 119.225 284.466 132.134 284.545 137.567C284.705 148.108 281.785 158.515 282.12 166.877L282.886 192.664" fill="#263238"/>
<path d="M283.655 150.298C283.536 150.404 283.41 150.501 283.278 150.59L283.07 150.735L282.847 150.957C282.65 151.129 282.472 151.323 282.315 151.534C281.575 152.451 281.038 154.096 280.522 156.141C280.259 157.275 279.869 158.375 279.362 159.421C279.208 159.707 279.03 159.98 278.831 160.235C278.735 160.365 278.644 160.505 278.533 160.629L278.182 160.985C277.679 161.462 277.095 161.842 276.458 162.107C275.176 162.679 273.724 162.949 272.404 163.623C271.053 164.361 270.009 165.567 269.463 167.022C268.814 168.484 268.399 170.016 267.867 171.451C267.335 172.886 266.617 174.256 265.473 175.13C264.38 175.901 263.081 176.317 261.749 176.323C260.515 176.398 259.372 176.36 258.345 176.517C257.421 176.614 256.538 176.952 255.781 177.499C255.228 177.937 254.814 178.53 254.589 179.203C254.447 179.629 254.415 180.084 254.499 180.525C254.563 180.827 254.642 180.973 254.627 180.978C254.541 180.843 254.48 180.693 254.446 180.536C254.333 180.086 254.348 179.613 254.488 179.171C254.7 178.464 255.117 177.838 255.685 177.375C256.461 176.781 257.379 176.409 258.345 176.296C259.409 176.123 260.542 176.145 261.76 176.064C263.053 176.055 264.312 175.649 265.372 174.898C266.447 173.946 267.241 172.71 267.665 171.327C268.197 169.908 268.585 168.371 269.261 166.882C269.833 165.367 270.925 164.113 272.335 163.348C273.708 162.658 275.16 162.393 276.41 161.843C277.022 161.586 277.584 161.221 278.07 160.764L278.405 160.424C278.511 160.306 278.602 160.171 278.698 160.047C278.885 159.801 279.051 159.54 279.192 159.264C279.702 158.233 280.096 157.148 280.368 156.028C280.9 153.988 281.48 152.321 282.262 151.399C282.417 151.189 282.596 150.997 282.794 150.827C282.879 150.751 282.953 150.676 283.028 150.617L283.246 150.476C283.379 150.409 283.515 150.349 283.655 150.298Z" fill="#FAFAFA"/>
<path d="M283.793 134.362C283.818 134.514 283.828 134.667 283.825 134.821C283.823 135.266 283.77 135.71 283.666 136.143C283.207 137.721 282.307 139.13 281.075 140.199C280.261 140.958 279.37 141.625 278.415 142.19C277.388 142.805 276.255 143.393 275.09 144.062C273.867 144.727 272.727 145.541 271.697 146.484C270.639 147.548 269.769 148.787 269.122 150.147C268.469 151.526 267.725 152.858 266.893 154.134C266.47 154.729 265.981 155.272 265.435 155.753C264.897 156.217 264.306 156.613 263.675 156.934C262.532 157.503 261.341 157.968 260.116 158.32C258.977 158.677 257.913 158.995 256.988 159.399C256.148 159.738 255.348 160.173 254.605 160.694C254.045 161.088 253.542 161.558 253.11 162.091C252.748 162.554 252.446 163.062 252.211 163.602C252.249 163.452 252.299 163.306 252.36 163.165C252.534 162.757 252.758 162.373 253.025 162.021C253.449 161.465 253.951 160.975 254.514 160.565C255.261 160.025 256.066 159.572 256.913 159.216C257.938 158.793 258.984 158.423 260.047 158.11C261.254 157.749 262.429 157.283 263.558 156.718C264.156 156.401 264.718 156.018 265.233 155.575C265.758 155.101 266.229 154.569 266.638 153.988C267.458 152.719 268.195 151.396 268.845 150.029C269.513 148.638 270.412 147.375 271.505 146.296C272.554 145.338 273.715 144.515 274.963 143.846C276.133 143.183 277.266 142.606 278.293 141.996C279.245 141.45 280.136 140.803 280.953 140.065C282.175 139.027 283.082 137.66 283.57 136.121C283.706 135.545 283.781 134.955 283.793 134.362Z" fill="#FAFAFA"/>
<path d="M251.487 147.277C251.466 147.244 251.45 147.208 251.439 147.169C251.4 147.065 251.366 146.959 251.338 146.851C251.247 146.422 251.265 145.976 251.392 145.556C251.689 144.477 252.865 143.091 254.759 142.406C255.706 142.077 256.775 141.866 257.892 141.586C258.82 141.43 259.697 141.051 260.451 140.482C261.206 139.912 261.815 139.168 262.228 138.311C262.53 137.682 262.795 137.036 263.02 136.374C263.436 134.938 264.001 133.551 264.706 132.237C265.514 130.944 266.741 129.977 268.175 129.502C269.479 129.072 270.81 128.73 272.159 128.477C273.363 128.242 274.528 127.839 275.622 127.279C276.549 126.742 277.348 126.005 277.963 125.121C278.871 123.844 279.389 122.324 279.452 120.751C279.455 120.174 279.417 119.597 279.341 119.025C279.501 119.585 279.575 120.168 279.559 120.751C279.538 122.359 279.037 123.922 278.122 125.234C277.5 126.148 276.684 126.909 275.734 127.462C274.625 128.043 273.442 128.463 272.218 128.709C270.882 128.966 269.563 129.31 268.271 129.739C266.894 130.196 265.716 131.125 264.94 132.366C264.247 133.663 263.689 135.03 263.275 136.445C263.046 137.118 262.774 137.775 262.462 138.414C262.146 139.027 261.745 139.59 261.27 140.086C260.336 140.95 259.186 141.538 257.945 141.785C256.818 142.077 255.754 142.26 254.823 142.573C252.977 143.21 251.806 144.521 251.493 145.567C251.364 145.971 251.329 146.399 251.392 146.819C251.437 146.968 251.469 147.122 251.487 147.277Z" fill="#FAFAFA"/>
<path d="M281.828 176.409C281.85 176.521 281.862 176.635 281.865 176.749C281.876 177.076 281.842 177.403 281.764 177.72C281.43 178.89 280.723 179.914 279.754 180.633C279.106 181.156 278.39 181.585 277.626 181.906C276.812 182.257 275.913 182.538 274.966 182.834C273.983 183.126 273.021 183.486 272.088 183.913C271.119 184.383 270.249 185.041 269.529 185.85C268.753 186.67 268.082 187.571 267.338 188.369C266.625 189.143 265.798 189.798 264.885 190.311C263.333 191.171 261.595 191.63 259.826 191.649C258.642 191.662 257.464 191.463 256.347 191.061C256.044 190.955 255.749 190.827 255.464 190.678C255.361 190.635 255.262 190.579 255.172 190.511C255.279 190.541 255.384 190.579 255.486 190.624C255.778 190.751 256.076 190.863 256.379 190.959C257.494 191.313 258.659 191.479 259.826 191.45C261.556 191.404 263.25 190.936 264.763 190.085C265.647 189.577 266.449 188.935 267.141 188.181C267.87 187.393 268.535 186.497 269.327 185.656C270.09 184.816 271.008 184.138 272.03 183.66C272.977 183.231 273.953 182.87 274.95 182.581C275.886 182.289 276.78 182.041 277.61 181.685C278.352 181.377 279.05 180.969 279.684 180.471C280.638 179.789 281.348 178.813 281.711 177.688C281.79 177.266 281.829 176.838 281.828 176.409Z" fill="#FAFAFA"/>
<path d="M279.215 104.907L274.778 105.015C274.608 105.922 274.268 106.788 273.778 107.566C270.055 101.039 267.198 92.2992 266.485 88.7872C266.592 88.4365 266.714 88.0481 266.868 87.6165C266.979 86.961 266.959 86.2897 266.81 85.642C266.682 84.8598 266.469 83.8078 266.405 83.3223C266.209 81.8333 265.969 81.6014 265.459 81.7686C264.767 82.0006 265.746 85.9388 265.177 86.0251C264.868 86.0682 264.496 84.7195 264.389 83.6136C264.283 82.5077 263.783 79.0982 263.426 78.8716C262.895 78.5371 262.432 79.0658 262.57 80.1664C262.708 81.2669 262.873 84.6116 262.299 84.6602C261.724 84.7087 261.235 79.055 261.235 79.055C261.235 79.055 261.325 77.825 260.655 77.852C259.453 77.9059 260.394 83.8618 260.495 84.4282C260.57 84.8166 259.963 84.8922 259.889 84.466C259.814 84.0398 259.538 78.8177 258.293 78.8608C257.346 78.8608 259.022 83.7647 258.49 84.8976C257.958 86.0305 257.596 81.0565 256.697 81.1212C256.362 81.1482 256.112 81.2129 256.729 84.0236C257.32 86.2568 258.03 88.4557 258.857 90.6106C260.283 98.4061 266.538 123.346 276.342 118.782C281.832 116.225 284.056 104.907 284.056 104.907H279.215Z" fill="#FFF4EB"/>
<path d="M260.303 84.8061C260.345 84.8168 260.389 84.8168 260.431 84.8061C260.495 84.7862 260.55 84.7437 260.586 84.6864C260.622 84.629 260.637 84.5605 260.628 84.4932C260.628 84.1587 260.564 83.6732 260.49 83.042C260.365 82.2813 260.283 81.514 260.245 80.7438C260.245 80.2906 260.245 79.8051 260.272 79.2926C260.279 79.032 260.306 78.7724 260.351 78.5158C260.394 78.273 260.553 77.9763 260.74 78.0248H260.772C260.958 78.0248 261.107 78.1651 261.165 78.3917C261.231 78.6265 261.256 78.8711 261.24 79.1146C261.349 80.6254 261.539 82.1291 261.809 83.6192C261.851 83.8188 261.894 84.0238 261.958 84.2288C261.986 84.3337 262.022 84.4365 262.064 84.5363C262.091 84.5919 262.122 84.6459 262.155 84.6982C262.179 84.7376 262.211 84.7708 262.25 84.7952C262.289 84.8195 262.333 84.8343 262.378 84.8384C262.456 84.8298 262.529 84.798 262.588 84.7471C262.648 84.6962 262.692 84.6285 262.713 84.5525C262.759 84.447 262.793 84.3366 262.814 84.2234C262.856 84.006 262.884 83.7862 262.899 83.5653C262.948 82.6663 262.935 81.7651 262.862 80.8679C262.795 80.4199 262.777 79.9658 262.809 79.5138C262.828 79.3186 262.922 79.1386 263.07 79.0121C263.104 78.9915 263.142 78.9785 263.181 78.9738C263.221 78.9692 263.261 78.973 263.298 78.9851C263.343 78.9961 263.387 79.0143 263.426 79.039C263.453 79.0596 263.473 79.0877 263.485 79.12C263.652 79.5575 263.775 80.0112 263.852 80.4741C263.947 80.9488 264.027 81.4397 264.102 81.9306C264.176 82.4216 264.245 82.9179 264.304 83.4196C264.349 83.9373 264.431 84.4511 264.548 84.9571C264.611 85.2158 264.691 85.47 264.788 85.7178C264.842 85.8565 264.918 85.9857 265.011 86.1008C265.047 86.1486 265.096 86.1851 265.151 86.2062C265.207 86.2272 265.267 86.2318 265.325 86.2195C265.379 86.2015 265.427 86.1696 265.466 86.1271C265.504 86.0846 265.531 86.0328 265.543 85.9767C265.606 85.701 265.626 85.417 265.602 85.1351C265.602 84.8654 265.57 84.5957 265.543 84.3367C265.506 83.8836 265.463 83.4358 265.447 82.9934C265.434 82.776 265.434 82.558 265.447 82.3406C265.458 82.2444 265.481 82.1501 265.517 82.0601C265.528 82.0305 265.544 82.003 265.565 81.9792H265.634C265.985 81.8335 266.102 82.3299 266.198 82.7291C266.293 83.1283 266.331 83.5814 266.416 84.0076C266.554 84.8546 266.735 85.7016 266.825 86.5108C266.887 86.8983 266.872 87.2943 266.783 87.6761C266.655 88.0645 266.527 88.4475 266.405 88.8306V88.8683V88.9007C267.028 91.551 267.822 94.1569 268.783 96.7015C269.623 99.0051 270.469 101.017 271.209 102.636C271.948 104.254 272.618 105.522 273.076 106.374L273.608 107.34C273.665 107.455 273.735 107.564 273.815 107.664C273.77 107.544 273.715 107.428 273.65 107.318L273.118 106.331C272.682 105.463 272.054 104.173 271.331 102.555C270.607 100.936 269.788 98.9242 268.969 96.6206C268.032 94.0799 267.253 91.4816 266.639 88.8413V88.9169C266.761 88.5392 266.884 88.1562 267.011 87.7732C267.122 87.3528 267.144 86.9134 267.075 86.4838C266.98 85.6368 266.804 84.8168 266.666 83.9645C266.586 83.5437 266.533 83.1121 266.448 82.6697C266.442 82.4425 266.404 82.2172 266.336 82.0008C266.275 81.8692 266.172 81.7626 266.043 81.6987C265.907 81.6534 265.76 81.6534 265.623 81.6987H265.538C265.493 81.7133 265.451 81.7372 265.416 81.7688C265.357 81.8196 265.311 81.8845 265.283 81.9576C265.234 82.0744 265.203 82.1982 265.192 82.3245C265.176 82.558 265.176 82.7923 265.192 83.0258C265.192 83.4789 265.256 83.9321 265.293 84.3853C265.293 84.6496 265.336 84.9247 265.346 85.1675C265.368 85.4108 265.355 85.656 265.309 85.8958C265.309 85.9497 265.267 85.939 265.309 85.9659L265.277 85.9336C265.21 85.8454 265.156 85.7471 265.118 85.6422C265.025 85.4089 264.948 85.1691 264.889 84.9247C264.772 84.4334 264.692 83.9339 264.65 83.4304C264.593 82.9233 264.524 82.4216 264.442 81.9253C264.368 81.4289 264.283 80.9434 264.187 80.4579C264.107 79.9637 263.971 79.4804 263.782 79.0175C263.746 78.9401 263.689 78.8747 263.618 78.8287C263.555 78.7922 263.489 78.7632 263.421 78.7423C263.345 78.7221 263.266 78.7175 263.188 78.7286C263.111 78.7397 263.036 78.7664 262.969 78.8071C262.859 78.8902 262.767 78.9954 262.7 79.1161C262.632 79.2368 262.589 79.3703 262.575 79.5084C262.54 79.7535 262.54 80.0024 262.575 80.2475C262.575 80.4795 262.628 80.706 262.644 80.9326C262.718 81.8153 262.734 82.702 262.692 83.5868C262.679 83.797 262.653 84.0061 262.612 84.2126C262.597 84.3091 262.57 84.4033 262.532 84.4932C262.519 84.5287 262.499 84.5616 262.474 84.5903C262.474 84.6388 262.437 84.5903 262.442 84.655C262.442 84.6011 262.442 84.655 262.442 84.5849C262.418 84.5484 262.397 84.5106 262.378 84.4716C262.341 84.3853 262.309 84.2882 262.277 84.1965C262.218 84.0022 262.176 83.8026 262.133 83.6084C261.856 82.1312 261.655 80.6402 261.532 79.1416C261.548 78.8703 261.518 78.5983 261.442 78.3377C261.407 78.2018 261.335 78.0785 261.234 77.9817C261.182 77.9307 261.121 77.891 261.053 77.865C260.985 77.839 260.913 77.8273 260.841 77.8306H260.873C260.783 77.8173 260.691 77.8311 260.608 77.8705C260.526 77.9098 260.457 77.9729 260.41 78.0518C260.331 78.1805 260.277 78.3233 260.25 78.4726C260.206 78.7401 260.181 79.0106 260.176 79.2818C260.176 79.8213 260.176 80.2906 260.176 80.7492C260.226 81.5242 260.324 82.2954 260.468 83.0582C260.559 83.6839 260.628 84.1695 260.66 84.4986C260.67 84.5562 260.66 84.6156 260.632 84.6667C260.604 84.7179 260.559 84.7576 260.506 84.7791C260.346 84.7953 260.298 84.8007 260.303 84.8061Z" fill="#FFF4EB"/>
<path d="M225.657 112.335C224.619 112.313 223.583 112.434 222.577 112.697C219.827 113.43 215.087 116.343 214.891 119.942H218.338C218.338 119.942 216.407 124.107 216.971 123.718C218.444 122.715 221.37 119.699 221.37 119.699L225.657 112.335Z" fill="#FFF4EB"/>
<path d="M272.646 49.632C272.567 49.632 272.258 46.7512 271.949 43.1583C271.641 39.5654 271.449 36.6846 271.524 36.6846C271.598 36.6846 271.912 39.5654 272.221 43.1583C272.529 46.7512 272.721 49.632 272.646 49.632Z" fill="#263238"/>
<path d="M287.757 36.9057C287.816 36.9488 285.491 40.3745 282.56 44.5555C279.629 48.7364 277.198 52.1081 277.134 52.0434C277.07 51.9787 279.4 48.5746 282.331 44.3936C285.262 40.2127 287.693 36.8625 287.757 36.9057Z" fill="#263238"/>
<path d="M294.035 52.4318C294.035 52.5073 291.333 53.1385 287.971 53.8398C284.609 54.5411 281.864 55.0482 281.848 54.9727C281.832 54.8972 284.545 54.266 287.912 53.5647C291.279 52.8633 293.998 52.3562 294.035 52.4318Z" fill="#263238"/>
<path d="M113.13 126.529L94.2986 224.605L91.8516 237.445L217.393 236.83C223.032 236.803 228.032 231.726 229.836 224.185L252.103 131.594C253.481 125.87 250.46 119.915 246.183 119.92L119.088 120.055C116.322 120.049 113.843 122.704 113.13 126.529Z" fill="#BB0000"/>
<g opacity="0.5">
<path opacity="0.5" d="M113.13 126.529L94.2986 224.605L91.8516 237.445L217.393 236.83C223.032 236.803 228.032 231.726 229.836 224.185L252.103 131.594C253.481 125.87 250.46 119.915 246.183 119.92L119.088 120.055C116.322 120.049 113.843 122.704 113.13 126.529Z" fill="black"/>
</g>
<path d="M205.366 217.948L192.067 109.292C191.535 104.842 188.029 101.519 183.896 101.535L154.745 101.626C153.661 101.639 152.592 101.875 151.601 102.32C150.611 102.765 149.72 103.41 148.984 104.216L135.153 119.143L54.0827 119.586C49.1302 119.613 45.3213 124.371 45.9757 129.712L58.3224 230.135C58.8543 234.58 62.3599 237.898 66.4826 237.893L207.797 237.607C223.532 237.936 225.037 233.226 225.037 233.226C206.972 237.278 205.366 217.975 205.366 217.948Z" fill="#BB0000"/>
<g opacity="0.5">
<path opacity="0.5" d="M144.428 196.218L139.662 201.408L102.957 167.917L107.723 162.728L144.428 196.218Z" fill="white"/>
<path opacity="0.5" d="M137.668 161.579L142.935 166.385L109.725 202.557L104.453 197.751L137.668 161.579Z" fill="white"/>
</g>
<path d="M225.544 55.9872C225.372 55.9137 225.224 55.7919 225.118 55.6362C225.011 55.4805 224.951 55.2972 224.943 55.1079L224.731 50.1016C224.723 49.946 224.751 49.7908 224.813 49.6483C224.875 49.5057 224.969 49.3797 225.087 49.2803C225.205 49.1808 225.345 49.1106 225.494 49.0753C225.644 49.0399 225.799 49.0404 225.949 49.0766C226.361 49.1667 226.786 49.1706 227.2 49.088C227.613 49.0055 228.006 48.8382 228.353 48.5964C228.673 48.3911 228.948 48.1214 229.161 47.8041C229.374 47.4867 229.521 47.1285 229.593 46.7514C229.641 46.3696 229.613 45.9819 229.511 45.6112C229.408 45.2405 229.234 44.8944 228.997 44.5935C228.748 44.2511 228.434 43.9619 228.074 43.7425C227.715 43.5232 227.316 43.3778 226.901 43.3149C226.064 43.2678 225.236 43.5084 224.55 43.9979C223.865 44.4874 223.362 45.1972 223.124 46.0123C223.045 46.2593 222.874 46.4657 222.648 46.5885C222.423 46.7112 222.159 46.741 221.912 46.6714C221.665 46.6019 221.454 46.4385 221.323 46.2152C221.192 45.9919 221.151 45.726 221.209 45.4729C221.571 44.1907 222.357 43.0741 223.435 42.3107C224.514 41.5473 225.818 41.1838 227.13 41.2811C227.812 41.3733 228.47 41.6038 229.063 41.9587C229.656 42.3137 230.172 42.7859 230.582 43.3473C230.98 43.8677 231.272 44.4638 231.439 45.1004C231.606 45.737 231.646 46.4011 231.556 47.0535C231.435 47.705 231.183 48.3244 230.818 48.8737C230.452 49.4229 229.979 49.8904 229.428 50.2472C228.63 50.7921 227.697 51.1004 226.736 51.1374L226.901 55C226.907 55.1697 226.871 55.3383 226.796 55.49C226.721 55.6418 226.609 55.7718 226.471 55.8681C226.333 55.9644 226.173 56.0239 226.007 56.0409C225.84 56.058 225.672 56.0321 225.518 55.9657L225.544 55.9872Z" fill="#BB0000"/>
<path d="M227.001 58.0369C227.012 58.1998 226.975 58.3624 226.895 58.5042C226.815 58.6459 226.696 58.7604 226.552 58.8332C226.407 58.906 226.245 58.9338 226.086 58.913C225.926 58.8923 225.776 58.824 225.654 58.7167C225.533 58.6094 225.446 58.468 225.403 58.3104C225.361 58.1528 225.366 57.986 225.417 57.8312C225.469 57.6764 225.564 57.5406 225.692 57.4408C225.819 57.3411 225.973 57.2819 226.134 57.2708C226.24 57.2628 226.348 57.2762 226.449 57.3105C226.551 57.3447 226.644 57.399 226.725 57.4703C226.806 57.5415 226.872 57.6283 226.919 57.7255C226.966 57.8228 226.994 57.9286 227.001 58.0369Z" fill="#BB0000"/>
<path d="M208.453 48.9253C208.476 48.8186 208.492 48.7104 208.501 48.6016C208.501 48.3642 208.56 48.0621 208.602 47.6359C208.655 47.1127 208.742 46.5936 208.863 46.0822C208.932 45.7801 208.969 45.4457 209.076 45.1058C209.182 44.7659 209.289 44.3991 209.406 44.0268C210.021 42.1825 210.919 40.4477 212.065 38.8856C213.568 36.8629 215.473 35.183 217.656 33.9548C218.899 33.2441 220.223 32.6898 221.598 32.304C223.082 31.905 224.611 31.702 226.146 31.6998C226.955 31.6866 227.764 31.7299 228.567 31.8293C228.976 31.8724 229.381 31.9803 229.79 32.0505C230.204 32.1224 230.613 32.2234 231.014 32.3526C232.69 32.8278 234.285 33.561 235.743 34.5267C238.983 36.6583 241.452 39.8017 242.775 43.482C243.488 45.4533 243.848 47.5378 243.839 49.6374C243.861 51.8004 243.484 53.9484 242.727 55.9708L242.488 56.5858L242.456 56.6668L242.488 56.7477C243.823 59.8605 245.148 62.9193 246.398 65.881L246.621 65.6221L238.642 62.5201L238.546 62.4823L238.466 62.5578C236.356 64.632 233.771 66.1443 230.944 66.96C228.529 67.6344 226 67.7816 223.524 67.392C221.048 67.0023 218.682 66.0847 216.582 64.6996C214.861 63.5555 213.345 62.1235 212.097 60.4647C210.289 58.0434 209.118 55.1957 208.693 52.1891C208.629 51.6496 208.576 51.1965 208.528 50.7865C208.48 50.3765 208.528 50.042 208.501 49.7561C208.475 49.4702 208.501 49.2813 208.501 49.1249C208.528 49.1208 208.552 49.1067 208.569 49.0854C208.585 49.0641 208.593 49.0372 208.591 49.0101C208.589 48.983 208.577 48.9576 208.558 48.9391C208.538 48.9206 208.512 48.9103 208.485 48.9103C208.458 48.9103 208.433 48.9206 208.413 48.9391C208.393 48.9576 208.381 48.983 208.379 49.0101C208.377 49.0372 208.385 49.0641 208.402 49.0854C208.419 49.1067 208.443 49.1208 208.469 49.1249C208.469 49.2813 208.469 49.4917 208.469 49.7561C208.469 50.0204 208.469 50.3873 208.469 50.7973C208.469 51.2073 208.56 51.6766 208.613 52.2107C208.788 53.5083 209.093 54.7844 209.523 56.0194C210.132 57.6503 210.951 59.1922 211.959 60.6049C213.212 62.2933 214.739 63.7528 216.475 64.9208C218.602 66.3405 221.001 67.2854 223.515 67.6928C226.029 68.1002 228.6 67.9607 231.056 67.2837C233.917 66.4596 236.534 64.9328 238.674 62.8384L238.498 62.8761L246.478 65.9943L246.877 66.1508L246.701 65.7354C245.435 62.7736 244.126 59.7202 242.796 56.602V56.7585L243.041 56.1273C243.817 54.0608 244.204 51.8648 244.18 49.6536C244.196 47.5094 243.836 45.3793 243.116 43.3633C241.764 39.6097 239.24 36.4065 235.929 34.2407C234.435 33.2525 232.798 32.5063 231.077 32.0289C230.671 31.8982 230.254 31.7991 229.833 31.7322C229.418 31.6566 229.008 31.5487 228.593 31.511C227.78 31.4086 226.961 31.3617 226.141 31.3707C224.581 31.3774 223.029 31.5914 221.524 32.0073C220.13 32.4086 218.789 32.9773 217.529 33.7013C215.323 34.9596 213.406 36.679 211.906 38.7454C210.763 40.3333 209.877 42.0962 209.283 43.9675C209.172 44.3559 209.065 44.7282 208.969 45.0464C208.885 45.3717 208.817 45.7012 208.767 46.0337C208.653 46.5486 208.578 47.0716 208.544 47.5982C208.512 48.0136 208.491 48.3319 208.475 48.5692C208.452 48.6865 208.445 48.8062 208.453 48.9253Z" fill="#263238"/>
</svg>
