<svg width="320" height="239" viewBox="0 0 320 239" fill="none" xmlns="http://www.w3.org/2000/svg">
<path d="M320 210.746H0V210.902H320V210.746Z" fill="#EDEDED"/>
<path d="M54.771 216.702H33.5742V216.858H54.771V216.702Z" fill="#EDEDED"/>
<path d="M115.092 215.006H87.252V215.163H115.092V215.006Z" fill="#EDEDED"/>
<path d="M77.0109 219.93H52.2109V220.087H77.0109V219.93Z" fill="#EDEDED"/>
<path d="M287.937 221.463H260.295V221.619H287.937V221.463Z" fill="#EDEDED"/>
<path d="M254.593 221.463H242.561V221.619H254.593V221.463Z" fill="#EDEDED"/>
<path d="M176 218.823H152.602V218.979H176V218.823Z" fill="#EDEDED"/>
<path d="M151.681 182.842H28.1031C27.135 182.84 26.2071 182.463 25.5232 181.793C24.8392 181.123 24.4551 180.216 24.4551 179.269V9.44938C24.4635 8.50842 24.8514 7.6087 25.5344 6.94567C26.2174 6.28263 27.1405 5.90982 28.1031 5.9082H151.681C152.65 5.9082 153.579 6.28459 154.265 6.95455C154.95 7.62452 155.335 8.53318 155.335 9.48066V179.269C155.335 180.217 154.95 181.125 154.265 181.795C153.579 182.465 152.65 182.842 151.681 182.842ZM28.1031 6.03333C27.1774 6.03499 26.2902 6.39562 25.6363 7.03608C24.9824 7.67653 24.6151 8.54447 24.6151 9.44938V179.269C24.6151 180.174 24.9824 181.042 25.6363 181.683C26.2902 182.323 27.1774 182.684 28.1031 182.685H151.681C152.607 182.684 153.495 182.323 154.15 181.683C154.805 181.043 155.173 180.175 155.175 179.269V9.44938C155.173 8.54389 154.805 7.67597 154.15 7.0357C153.495 6.39542 152.607 6.03499 151.681 6.03333H28.1031Z" fill="#EDEDED"/>
<path d="M290.119 182.842H166.535C165.567 182.84 164.638 182.463 163.953 181.794C163.268 181.124 162.883 180.216 162.881 179.269V9.44938C162.891 8.50785 163.28 7.60814 163.964 6.94527C164.648 6.28241 165.572 5.9098 166.535 5.9082H290.119C291.081 5.91146 292.002 6.285 292.684 6.94786C293.365 7.61072 293.752 8.5095 293.761 9.44938V179.269C293.761 180.215 293.378 181.121 292.695 181.791C292.012 182.461 291.086 182.838 290.119 182.842ZM166.535 6.03333C165.609 6.03499 164.721 6.39542 164.066 7.0357C163.411 7.67597 163.043 8.54389 163.041 9.44938V179.269C163.043 180.175 163.411 181.043 164.066 181.683C164.721 182.323 165.609 182.684 166.535 182.685H290.119C291.046 182.684 291.933 182.323 292.588 181.683C293.243 181.043 293.612 180.175 293.614 179.269V9.44938C293.612 8.54389 293.243 7.67597 292.588 7.0357C291.933 6.39542 291.046 6.03499 290.119 6.03333H166.535Z" fill="#EDEDED"/>
<path d="M272.749 210.746H229.869V154.938H265.921C267.733 154.938 269.472 155.642 270.754 156.895C272.036 158.148 272.756 159.847 272.756 161.62V210.746H272.749Z" fill="#DBDBDB"/>
<path d="M147.091 154.938H237.689C239.502 154.938 241.241 155.642 242.523 156.895C243.805 158.148 244.525 159.848 244.525 161.62V210.746H140.256V161.62C140.256 159.848 140.976 158.148 142.258 156.895C143.54 155.642 145.278 154.938 147.091 154.938Z" fill="#EDEDED"/>
<path d="M193.477 200.867C203.661 200.867 211.916 192.796 211.916 182.842C211.916 172.887 203.661 164.817 193.477 164.817C183.294 164.817 175.039 172.887 175.039 182.842C175.039 192.796 183.294 200.867 193.477 200.867Z" fill="#DBDBDB"/>
<path d="M192.392 200.867C202.575 200.867 210.83 192.796 210.83 182.842C210.83 172.887 202.575 164.817 192.392 164.817C182.208 164.817 173.953 172.887 173.953 182.842C173.953 192.796 182.208 200.867 192.392 200.867Z" fill="#F9F9F9"/>
<path d="M192.391 194.967C199.242 194.967 204.795 189.538 204.795 182.842C204.795 176.145 199.242 170.717 192.391 170.717C185.541 170.717 179.988 176.145 179.988 182.842C179.988 189.538 185.541 194.967 192.391 194.967Z" fill="#EDEDED"/>
<path opacity="0.5" d="M206.503 46.2938C194.271 46.3285 182.55 51.0942 173.9 59.5498C165.25 68.0055 160.375 79.4638 160.34 91.4219V154.938H252.673V91.4219C252.635 79.4633 247.759 68.0049 239.108 59.5494C230.458 51.094 218.736 46.3285 206.503 46.2938Z" fill="#DBDBDB"/>
<path d="M189.676 98.2352H177.452C176.925 98.2445 176.402 98.1421 175.92 97.9352C175.437 97.7284 175.006 97.4219 174.655 97.0367C174.305 96.6516 174.044 96.197 173.891 95.7041C173.737 95.2111 173.695 94.6916 173.766 94.181L175.359 80.0977C175.509 78.9953 176.055 77.9812 176.901 77.238C177.747 76.4947 178.837 76.0711 179.974 76.0435H192.198C192.725 76.033 193.248 76.1346 193.731 76.3411C194.214 76.5477 194.646 76.8543 194.996 77.2399C195.345 77.6254 195.606 78.0806 195.758 78.574C195.91 79.0674 195.951 79.5873 195.878 80.0977L194.265 94.181C194.117 95.2792 193.574 96.29 192.733 97.0327C191.892 97.7755 190.809 98.2017 189.676 98.2352Z" fill="#DBDBDB"/>
<path d="M225.753 120.039H236.121C236.568 120.047 237.011 119.96 237.421 119.784C237.83 119.608 238.196 119.348 238.492 119.021C238.789 118.694 239.01 118.308 239.14 117.89C239.269 117.472 239.305 117.031 239.244 116.598L237.874 104.661C237.748 103.726 237.285 102.866 236.568 102.235C235.852 101.604 234.928 101.244 233.964 101.22H223.602C223.155 101.211 222.711 101.297 222.301 101.472C221.891 101.648 221.525 101.908 221.228 102.235C220.931 102.562 220.71 102.949 220.581 103.368C220.452 103.786 220.417 104.227 220.479 104.661L221.849 116.598C221.974 117.532 222.435 118.392 223.151 119.023C223.867 119.654 224.789 120.014 225.753 120.039Z" fill="#DBDBDB"/>
<path d="M213.76 78.3333H222.413C222.787 78.3447 223.16 78.2755 223.504 78.1305C223.849 77.9856 224.156 77.7685 224.405 77.4946C224.654 77.2207 224.839 76.8966 224.946 76.5453C225.053 76.194 225.079 75.8241 225.024 75.4616L223.878 65.4888C223.772 64.709 223.385 63.9917 222.787 63.4654C222.189 62.9392 221.419 62.6384 220.614 62.617H211.942C211.567 62.6057 211.195 62.6749 210.85 62.8198C210.506 62.9648 210.198 63.1819 209.949 63.4558C209.7 63.7297 209.516 64.0538 209.409 64.4051C209.302 64.7564 209.275 65.1263 209.331 65.4888L210.477 75.4616C210.582 76.245 210.971 76.9655 211.574 77.4924C212.176 78.0193 212.952 78.3177 213.76 78.3333Z" fill="#DBDBDB"/>
<path d="M192.172 136.45H184.831C184.514 136.456 184.2 136.394 183.91 136.27C183.62 136.145 183.361 135.96 183.151 135.728C182.941 135.496 182.785 135.222 182.694 134.926C182.603 134.629 182.579 134.317 182.623 134.01L183.59 125.557C183.679 124.895 184.008 124.287 184.516 123.841C185.024 123.394 185.678 123.14 186.361 123.124H193.695C194.012 123.117 194.326 123.178 194.617 123.301C194.907 123.425 195.167 123.609 195.377 123.841C195.588 124.072 195.744 124.345 195.836 124.642C195.928 124.938 195.953 125.251 195.91 125.557L194.943 134.01C194.854 134.672 194.526 135.282 194.018 135.729C193.51 136.176 192.855 136.432 192.172 136.45Z" fill="#DBDBDB"/>
<path d="M200.594 154.938H199.314C199.314 150.208 202.783 147.874 206.143 145.622C209.343 143.451 212.409 141.405 212.409 137.332C212.409 133.259 209.362 131.207 206.143 129.042C202.783 126.784 199.314 124.45 199.314 119.72C199.314 114.99 202.783 112.657 206.143 110.398C209.343 108.233 212.409 106.181 212.409 102.108C212.409 98.0351 209.362 95.9892 206.143 93.8182C202.783 91.5659 199.314 89.2322 199.314 84.496C199.314 79.7599 202.783 77.4325 206.143 75.1739C209.343 73.0091 212.409 70.957 212.409 66.884H213.689C213.689 71.6202 210.22 73.9476 206.866 76.2062C203.666 78.3772 200.594 80.4231 200.594 84.496C200.594 88.569 203.641 90.6211 206.866 92.7859C210.22 95.0445 213.689 97.3782 213.689 102.108C213.689 106.838 210.22 109.178 206.866 111.43C203.666 113.601 200.594 115.647 200.594 119.72C200.594 123.793 203.641 125.839 206.866 128.01C210.22 130.269 213.689 132.596 213.689 137.332C213.689 142.068 210.22 144.396 206.866 146.648C203.641 148.819 200.594 150.865 200.594 154.938Z" fill="white"/>
<path d="M81.8496 210.746H101.069L96.2944 74.7296H86.624L81.8496 210.746Z" fill="#EDEDED"/>
<path d="M59.0078 210.746H78.2334L73.459 74.7296H63.7886L59.0078 210.746Z" fill="#EDEDED"/>
<path d="M36.1719 210.746H55.3911L50.6167 74.7296H40.9463L36.1719 210.746Z" fill="#DBDBDB"/>
<path opacity="0.2" d="M57.6327 68.2853L98.8039 66.033C100.442 65.9454 101.895 65.3385 102.51 64.4877L105.85 59.8516C106.708 58.6566 105.671 57.3803 103.546 56.9986L97.1911 55.86C93.4535 55.1905 93.8247 52.2312 97.7287 51.5617L129.921 46.031C132.814 45.5305 134.03 43.6097 132.225 42.3897L131.316 41.7641C129.358 40.4377 130.964 38.348 134.177 38.0477L186.433 33.1489C190.535 32.761 191.553 29.7203 187.886 28.8444C183.988 27.9122 185.422 24.6588 189.806 24.5087L271.726 21.7308C273.082 21.7531 274.397 21.2776 275.412 20.3982L279.54 16.0186C281.012 14.4483 278.977 12.7089 275.834 12.8528L79.1815 21.5494C74.7015 21.7496 73.4919 25.1406 77.6199 25.9289L98.6055 29.9643C102.401 30.6964 101.767 33.7182 97.7031 34.2938L75.8343 37.2031C72.0583 37.7036 71.1303 40.4565 74.4135 41.4012L77.1527 42.1958C80.3527 43.128 79.5591 45.812 75.8727 46.3751L50.4135 50.3292C46.6759 50.9048 45.9335 53.6577 49.2615 54.5398L64.4743 58.5815C67.7831 59.4574 67.0791 62.179 63.3863 62.7796L56.5831 63.887C51.7063 64.6691 52.6343 68.5544 57.6327 68.2853Z" fill="#DBDBDB"/>
<path d="M160 239C228.533 239 284.089 235.829 284.089 231.918C284.089 228.006 228.533 224.835 160 224.835C91.467 224.835 35.9102 228.006 35.9102 231.918C35.9102 235.829 91.467 239 160 239Z" fill="#EDEDED"/>
<path d="M235.897 64.4376H102.95C102.341 64.4356 101.754 64.658 101.306 65.0604C100.857 65.4628 100.581 66.0156 100.531 66.6086L93.766 147.718C93.7385 148.044 93.7805 148.372 93.8894 148.681C93.9982 148.99 94.1715 149.274 94.3982 149.515C94.625 149.755 94.9003 149.947 95.2068 150.078C95.5132 150.209 95.8442 150.277 96.1788 150.277H229.12C229.728 150.277 230.314 150.053 230.762 149.649C231.209 149.246 231.484 148.692 231.532 148.099L238.297 66.9965C238.325 66.6716 238.283 66.3447 238.175 66.0363C238.067 65.7279 237.895 65.4446 237.669 65.2043C237.444 64.964 237.17 64.7719 236.865 64.6399C236.56 64.508 236.231 64.4391 235.897 64.4376Z" fill="#4674EA"/>
<path opacity="0.4" d="M235.897 64.4376H102.95C102.341 64.4356 101.754 64.658 101.306 65.0604C100.857 65.4628 100.581 66.0156 100.531 66.6086L93.766 147.718C93.7385 148.044 93.7805 148.372 93.8894 148.681C93.9982 148.99 94.1715 149.274 94.3982 149.515C94.625 149.755 94.9003 149.947 95.2068 150.078C95.5132 150.209 95.8442 150.277 96.1788 150.277H229.12C229.728 150.277 230.314 150.053 230.762 149.649C231.209 149.246 231.484 148.692 231.532 148.099L238.297 66.9965C238.325 66.6716 238.283 66.3447 238.175 66.0363C238.067 65.7279 237.895 65.4446 237.669 65.2043C237.444 64.964 237.17 64.7719 236.865 64.6399C236.56 64.508 236.231 64.4391 235.897 64.4376Z" fill="#0E2D7B"/>
<path d="M232.153 60.7776H99.1994C98.5906 60.7786 98.0043 61.0028 97.5564 61.406C97.1084 61.8091 96.8315 62.3618 96.7802 62.9548L90.0218 144.058C89.9944 144.384 90.0364 144.712 90.1452 145.021C90.2541 145.33 90.4273 145.614 90.6541 145.855C90.8808 146.095 91.1561 146.287 91.4626 146.418C91.7691 146.549 92.1001 146.617 92.4346 146.617H225.388C225.997 146.617 226.583 146.393 227.03 145.989C227.478 145.586 227.753 145.032 227.801 144.439L234.566 63.3365C234.593 63.0105 234.551 62.6826 234.442 62.3733C234.334 62.064 234.16 61.7802 233.934 61.5397C233.707 61.2992 233.432 61.1073 233.125 60.9761C232.819 60.845 232.488 60.7774 232.153 60.7776Z" fill="#4674EA"/>
<path opacity="0.1" d="M227.256 101.42H97.707L100.785 64.5878H230.328L227.256 101.42ZM98.4494 100.75H226.629L229.592 65.2572H101.413L98.4494 100.75Z" fill="white"/>
<path opacity="0.4" d="M221.765 97.7222C222.021 97.7187 222.266 97.6228 222.454 97.453C222.642 97.2832 222.759 97.0516 222.783 96.8025L225.087 69.2052C225.1 69.0877 225.087 68.9689 225.049 68.8567C225.011 68.7446 224.949 68.6415 224.867 68.5545C224.786 68.4675 224.686 68.3986 224.575 68.3522C224.464 68.3058 224.344 68.283 224.223 68.2855C223.966 68.2889 223.72 68.3845 223.531 68.5542C223.342 68.7239 223.224 68.9556 223.199 69.2052L220.901 96.8025C220.888 96.92 220.901 97.0388 220.939 97.1509C220.977 97.2631 221.039 97.3661 221.121 97.4531C221.202 97.5401 221.302 97.6091 221.413 97.6555C221.524 97.7019 221.644 97.7247 221.765 97.7222Z" fill="white"/>
<path d="M221.842 83.6951H224.03C224.151 83.6926 224.267 83.6465 224.356 83.5657C224.444 83.4849 224.499 83.3751 224.51 83.2572L224.696 81.0549C224.701 80.9992 224.695 80.9431 224.677 80.8901C224.658 80.8371 224.629 80.7884 224.59 80.7472C224.552 80.7059 224.505 80.673 224.453 80.6506C224.4 80.6282 224.344 80.6167 224.286 80.6169H222.078C221.958 80.6209 221.843 80.6674 221.754 80.7479C221.666 80.8284 221.611 80.9375 221.598 81.0549L221.413 83.2572C221.406 83.3147 221.412 83.3729 221.431 83.4277C221.45 83.4826 221.481 83.5327 221.522 83.5745C221.563 83.6163 221.613 83.6488 221.668 83.6696C221.723 83.6905 221.783 83.6992 221.842 83.6951Z" fill="white"/>
<path opacity="0.4" d="M213.759 97.7222C214.015 97.7173 214.259 97.621 214.447 97.4514C214.634 97.2819 214.752 97.051 214.777 96.8025L217.081 69.2052C217.094 69.0877 217.081 68.9689 217.043 68.8567C217.005 68.7446 216.943 68.6415 216.861 68.5545C216.78 68.4675 216.68 68.3986 216.569 68.3522C216.458 68.3058 216.338 68.283 216.217 68.2855C215.96 68.2889 215.714 68.3845 215.525 68.5542C215.336 68.7239 215.218 68.9556 215.193 69.2052L212.889 96.8025C212.877 96.9203 212.891 97.0392 212.93 97.1514C212.968 97.2636 213.031 97.3665 213.113 97.4534C213.195 97.5403 213.295 97.6091 213.407 97.6555C213.518 97.7018 213.638 97.7246 213.759 97.7222Z" fill="white"/>
<path d="M214.232 78.7775H216.415C216.537 78.7765 216.654 78.7311 216.744 78.6501C216.834 78.5692 216.89 78.4585 216.901 78.3396L217.087 76.1435C217.092 76.0879 217.086 76.0317 217.067 75.9787C217.049 75.9257 217.02 75.877 216.981 75.8358C216.943 75.7945 216.896 75.7616 216.843 75.7392C216.791 75.7168 216.734 75.7053 216.677 75.7056H214.488C214.367 75.708 214.25 75.7539 214.16 75.8345C214.071 75.9152 214.014 76.0251 214.002 76.1435L213.823 78.3396C213.816 78.3954 213.822 78.4519 213.84 78.5054C213.858 78.5588 213.887 78.6079 213.926 78.6494C213.965 78.6909 214.012 78.7238 214.065 78.7459C214.118 78.768 214.175 78.7788 214.232 78.7775Z" fill="white"/>
<path opacity="0.4" d="M205.72 97.7222C205.977 97.7188 206.223 97.6231 206.412 97.4535C206.601 97.2838 206.719 97.0521 206.744 96.8025L209.048 69.2051C209.06 69.0873 209.046 68.9684 209.008 68.8563C208.969 68.7441 208.907 68.6412 208.824 68.5543C208.742 68.4674 208.642 68.3986 208.531 68.3522C208.419 68.3059 208.299 68.2831 208.178 68.2854C207.923 68.2904 207.678 68.3867 207.49 68.5562C207.303 68.7257 207.185 68.9566 207.16 69.2051L204.856 96.8025C204.844 96.92 204.857 97.0388 204.894 97.1509C204.932 97.2631 204.994 97.3661 205.076 97.4531C205.158 97.5401 205.257 97.6091 205.368 97.6555C205.48 97.7019 205.6 97.7247 205.72 97.7222Z" fill="white"/>
<path d="M205.312 89.5761H207.494C207.616 89.5736 207.733 89.5278 207.822 89.4471C207.912 89.3665 207.968 89.2566 207.981 89.1381L208.166 86.9358C208.172 86.8797 208.165 86.823 208.146 86.7696C208.128 86.7161 208.098 86.6671 208.059 86.6258C208.019 86.5844 207.971 86.5516 207.918 86.5296C207.865 86.5076 207.808 86.4968 207.75 86.4979H205.568C205.446 86.5003 205.329 86.5462 205.24 86.6268C205.15 86.7075 205.094 86.8174 205.081 86.9358L204.902 89.1381C204.897 89.1938 204.903 89.2499 204.922 89.3029C204.94 89.3559 204.969 89.4046 205.008 89.4459C205.046 89.4871 205.093 89.52 205.146 89.5424C205.198 89.5649 205.255 89.5763 205.312 89.5761Z" fill="white"/>
<path opacity="0.4" d="M197.701 97.7222C197.957 97.7188 198.203 97.6232 198.392 97.4535C198.581 97.2838 198.7 97.0521 198.725 96.8025L201.022 69.2052C201.035 69.0877 201.022 68.9689 200.984 68.8567C200.946 68.7446 200.885 68.6415 200.803 68.5545C200.721 68.4675 200.621 68.3986 200.51 68.3522C200.399 68.3058 200.279 68.283 200.158 68.2855C199.903 68.289 199.657 68.3849 199.469 68.5547C199.281 68.7245 199.164 68.9561 199.141 69.2052L196.837 96.8025C196.824 96.92 196.837 97.0388 196.875 97.1509C196.913 97.2631 196.975 97.3661 197.056 97.4531C197.138 97.5401 197.238 97.6091 197.349 97.6555C197.46 97.7019 197.58 97.7247 197.701 97.7222Z" fill="white"/>
<path d="M197.613 85.7411H199.796C199.918 85.7401 200.035 85.6947 200.125 85.6137C200.215 85.5328 200.271 85.4221 200.282 85.3032L200.468 83.1009C200.473 83.0447 200.466 82.988 200.448 82.9346C200.429 82.8812 200.399 82.8322 200.36 82.7908C200.321 82.7494 200.273 82.7167 200.22 82.6946C200.167 82.6726 200.109 82.6618 200.052 82.6629H197.869C197.747 82.6653 197.631 82.7112 197.541 82.7919C197.452 82.8725 197.395 82.9824 197.383 83.1009L197.197 85.3032C197.192 85.3593 197.198 85.416 197.217 85.4695C197.236 85.5229 197.265 85.5719 197.305 85.6132C197.344 85.6546 197.392 85.6874 197.445 85.7094C197.498 85.7314 197.555 85.7423 197.613 85.7411Z" fill="white"/>
<path opacity="0.4" d="M189.683 97.7222C189.939 97.7187 190.184 97.6228 190.372 97.453C190.56 97.2832 190.677 97.0516 190.701 96.8025L193.005 69.2052C193.017 69.0877 193.004 68.9689 192.966 68.8567C192.929 68.7446 192.867 68.6415 192.785 68.5545C192.703 68.4675 192.604 68.3986 192.492 68.3522C192.381 68.3058 192.261 68.283 192.141 68.2855C191.884 68.2889 191.638 68.3845 191.449 68.5542C191.26 68.7239 191.142 68.9556 191.117 69.2052L188.8 96.8025C188.787 96.9216 188.8 97.042 188.839 97.1556C188.878 97.2691 188.942 97.3731 189.026 97.4604C189.109 97.5478 189.212 97.6163 189.325 97.6615C189.438 97.7067 189.561 97.7274 189.683 97.7222Z" fill="white"/>
<path d="M189.848 82.6628H192.03C192.152 82.6618 192.27 82.6164 192.36 82.5355C192.45 82.4545 192.506 82.3439 192.517 82.2249L192.696 80.0289C192.702 79.973 192.696 79.9165 192.679 79.863C192.661 79.8096 192.632 79.7605 192.593 79.719C192.554 79.6775 192.507 79.6446 192.454 79.6226C192.401 79.6005 192.344 79.5897 192.286 79.5909H190.078C189.956 79.592 189.839 79.6374 189.749 79.7183C189.659 79.7992 189.603 79.9099 189.592 80.0289L189.438 82.2374C189.435 82.2921 189.443 82.3468 189.462 82.3983C189.481 82.4498 189.51 82.497 189.549 82.5369C189.587 82.5767 189.634 82.6085 189.685 82.6302C189.736 82.6518 189.792 82.663 189.848 82.6628Z" fill="white"/>
<path opacity="0.4" d="M116.011 76.3438H172.658C173.368 76.3302 174.049 76.0621 174.57 75.5903C175.092 75.1186 175.418 74.4761 175.487 73.7849C175.52 73.4585 175.483 73.1289 175.376 72.8178C175.27 72.5067 175.098 72.2211 174.87 71.98C174.643 71.7388 174.366 71.5474 174.057 71.4185C173.749 71.2897 173.416 71.2261 173.08 71.2322H116.44C115.73 71.2443 115.05 71.511 114.528 71.9817C114.007 72.4524 113.68 73.0942 113.611 73.7849C113.578 74.111 113.616 74.4403 113.721 74.7513C113.827 75.0622 113.999 75.3479 114.226 75.5894C114.452 75.831 114.728 76.0231 115.036 76.153C115.344 76.283 115.676 76.348 116.011 76.3438Z" fill="white"/>
<path d="M106.238 85.5595H171.883C172.593 85.5488 173.274 85.2825 173.796 84.8115C174.318 84.3406 174.644 83.698 174.712 83.0068C174.747 82.6803 174.711 82.3502 174.606 82.0383C174.501 81.7265 174.33 81.44 174.103 81.198C173.876 80.956 173.599 80.7639 173.29 80.6346C172.981 80.5053 172.648 80.4417 172.312 80.4479H106.642C105.93 80.4588 105.248 80.726 104.726 81.1982C104.204 81.6705 103.879 82.3145 103.813 83.0068C103.779 83.3348 103.817 83.666 103.924 83.9785C104.032 84.2909 104.206 84.5774 104.436 84.8189C104.665 85.0604 104.944 85.2513 105.255 85.379C105.566 85.5067 105.901 85.5682 106.238 85.5595Z" fill="#F9F9F9"/>
<path opacity="0.4" d="M171.327 89.6638H133.707C132.262 89.6638 131.09 90.8081 131.09 92.2196C131.09 93.6311 132.262 94.7754 133.707 94.7754H171.327C172.772 94.7754 173.944 93.6311 173.944 92.2196C173.944 90.8081 172.772 89.6638 171.327 89.6638Z" fill="#0E2D7B"/>
<path opacity="0.3" d="M214.15 116.498H221.786L222.406 109.04H214.778L214.15 116.498Z" fill="#0E2D7B"/>
<path opacity="0.3" d="M202.924 116.498H210.553L211.173 109.04H203.545L202.924 116.498Z" fill="#0E2D7B"/>
<path d="M191.691 116.498H199.32L199.947 109.04H192.312L191.691 116.498Z" fill="white"/>
<path opacity="0.3" d="M180.467 116.498H188.096L188.716 109.04H181.088L180.467 116.498Z" fill="#0E2D7B"/>
<path d="M213.234 127.478H220.87L221.49 120.02H213.862L213.234 127.478Z" fill="white"/>
<path opacity="0.3" d="M202.01 127.478H209.639L210.259 120.02H202.631L202.01 127.478Z" fill="#0E2D7B"/>
<path opacity="0.3" d="M190.777 127.478H198.406L199.027 120.02H191.398L190.777 127.478Z" fill="#0E2D7B"/>
<path opacity="0.3" d="M179.545 127.478H187.18L187.801 120.02H180.172L179.545 127.478Z" fill="#0E2D7B"/>
<path opacity="0.3" d="M212.32 138.452H219.949L220.576 130.994H212.941L212.32 138.452Z" fill="#0E2D7B"/>
<path opacity="0.3" d="M201.094 138.452H208.723L209.343 130.994H201.715L201.094 138.452Z" fill="#0E2D7B"/>
<path d="M189.861 138.452H197.49L198.111 130.994H190.482L189.861 138.452Z" fill="white"/>
<path opacity="0.3" d="M178.629 138.452H186.258L186.885 130.994H179.25L178.629 138.452Z" fill="#0E2D7B"/>
<path opacity="0.3" d="M157.817 123.949H155.276L154.854 129.011H157.394L157.817 123.949Z" fill="#0E2D7B"/>
<path opacity="0.3" d="M161.567 123.949H159.02L158.598 129.011H161.145L161.567 123.949Z" fill="#0E2D7B"/>
<path d="M165.311 123.949H162.764L162.342 129.011H164.889L165.311 123.949Z" fill="white"/>
<path opacity="0.3" d="M169.056 123.949H166.515L166.086 129.011H168.633L169.056 123.949Z" fill="#0E2D7B"/>
<path d="M158.438 116.492H155.897L155.475 121.559H158.022L158.438 116.492Z" fill="white"/>
<path opacity="0.3" d="M162.188 116.492H159.641L159.219 121.559H161.766L162.188 116.492Z" fill="#0E2D7B"/>
<path opacity="0.3" d="M165.932 116.492H163.385L162.963 121.559H165.51L165.932 116.492Z" fill="#0E2D7B"/>
<path opacity="0.3" d="M169.676 116.492H167.135L166.713 121.559H169.254L169.676 116.492Z" fill="#0E2D7B"/>
<path opacity="0.3" d="M159.065 109.04H156.518L156.096 114.108H158.643L159.065 109.04Z" fill="#0E2D7B"/>
<path opacity="0.3" d="M162.809 109.04H160.262L159.84 114.108H162.387L162.809 109.04Z" fill="#0E2D7B"/>
<path opacity="0.3" d="M166.553 109.04H164.012L163.59 114.108H166.131L166.553 109.04Z" fill="#0E2D7B"/>
<path opacity="0.3" d="M170.304 109.04H167.756L167.334 114.108H169.881L170.304 109.04Z" fill="#0E2D7B"/>
<path opacity="0.3" d="M139.526 123.949H136.978L136.562 129.011H139.103L139.526 123.949Z" fill="#0E2D7B"/>
<path d="M143.27 123.949H140.729L140.307 129.011H142.847L143.27 123.949Z" fill="white"/>
<path opacity="0.3" d="M147.02 123.949H144.473L144.051 129.011H146.598L147.02 123.949Z" fill="#0E2D7B"/>
<path opacity="0.3" d="M150.765 123.949H148.217L147.795 129.011H150.342L150.765 123.949Z" fill="#0E2D7B"/>
<path d="M140.147 116.492H137.606L137.184 121.559H139.724L140.147 116.492Z" fill="white"/>
<path opacity="0.3" d="M143.897 116.492H141.35L140.928 121.559H143.475L143.897 116.492Z" fill="#0E2D7B"/>
<path d="M147.641 116.492H145.094L144.672 121.559H147.219L147.641 116.492Z" fill="white"/>
<path d="M151.385 116.492H148.838L148.422 121.559H150.963L151.385 116.492Z" fill="white"/>
<path opacity="0.3" d="M140.774 109.04H138.227L137.805 114.108H140.345L140.774 109.04Z" fill="#0E2D7B"/>
<path d="M144.518 109.04H141.971L141.549 114.108H144.096L144.518 109.04Z" fill="white"/>
<path d="M148.263 109.04H145.715L145.293 114.108H147.84L148.263 109.04Z" fill="white"/>
<path opacity="0.3" d="M152.006 109.04H149.465L149.043 114.108H151.584L152.006 109.04Z" fill="#0E2D7B"/>
<path d="M121.235 123.949H118.688L118.266 129.011H120.813L121.235 123.949Z" fill="white"/>
<path opacity="0.3" d="M124.979 123.949H122.438L122.016 129.011H124.556L124.979 123.949Z" fill="#0E2D7B"/>
<path d="M128.729 123.949H126.182L125.76 129.011H128.301L128.729 123.949Z" fill="white"/>
<path opacity="0.3" d="M132.474 123.949H129.926L129.504 129.011H132.051L132.474 123.949Z" fill="#0E2D7B"/>
<path d="M121.856 116.492H119.316L118.887 121.559H121.434L121.856 116.492Z" fill="white"/>
<path d="M125.6 116.492H123.059L122.637 121.559H125.178L125.6 116.492Z" fill="white"/>
<path opacity="0.3" d="M129.35 116.492H126.803L126.381 121.559H128.928L129.35 116.492Z" fill="#0E2D7B"/>
<path opacity="0.3" d="M133.095 116.492H130.547L130.125 121.559H132.672L133.095 116.492Z" fill="#0E2D7B"/>
<path d="M122.477 109.04H119.936L119.514 114.108H122.054L122.477 109.04Z" fill="white"/>
<path opacity="0.3" d="M126.227 109.04H123.68L123.258 114.108H125.805L126.227 109.04Z" fill="#0E2D7B"/>
<path opacity="0.3" d="M129.97 109.04H127.422L127 114.108H129.547L129.97 109.04Z" fill="#0E2D7B"/>
<path opacity="0.3" d="M133.714 109.04H131.173L130.744 114.108H133.291L133.714 109.04Z" fill="#0E2D7B"/>
<path d="M102.942 123.949H100.395L99.9727 129.011H102.52L102.942 123.949Z" fill="white"/>
<path opacity="0.3" d="M106.686 123.949H104.139L103.717 129.011H106.264L106.686 123.949Z" fill="#0E2D7B"/>
<path d="M110.432 123.949H107.891L107.469 129.011H110.01L110.432 123.949Z" fill="white"/>
<path opacity="0.3" d="M114.182 123.949H111.635L111.213 129.011H113.76L114.182 123.949Z" fill="#0E2D7B"/>
<path opacity="0.3" d="M103.563 116.492H101.016L100.594 121.559H103.141L103.563 116.492Z" fill="#0E2D7B"/>
<path opacity="0.3" d="M107.307 116.492H104.766L104.344 121.559H106.885L107.307 116.492Z" fill="#0E2D7B"/>
<path d="M111.059 116.492H108.512L108.09 121.559H110.637L111.059 116.492Z" fill="white"/>
<path opacity="0.3" d="M114.802 116.492H112.254L111.832 121.559H114.379L114.802 116.492Z" fill="#0E2D7B"/>
<path d="M104.186 109.04H101.645L101.223 114.108H103.763L104.186 109.04Z" fill="white"/>
<path opacity="0.3" d="M107.934 109.04H105.387L104.965 114.108H107.512L107.934 109.04Z" fill="#0E2D7B"/>
<path d="M111.679 109.04H109.131L108.709 114.108H111.256L111.679 109.04Z" fill="white"/>
<path d="M115.423 109.04H112.876L112.453 114.108H115L115.423 109.04Z" fill="white"/>
<path d="M167.539 136.706C168.22 136.067 168.282 135.05 167.677 134.434C167.073 133.818 166.031 133.837 165.35 134.476C164.669 135.115 164.607 136.132 165.212 136.748C165.817 137.363 166.859 137.344 167.539 136.706Z" fill="white"/>
<path d="M160.278 136.706C160.958 136.067 161.02 135.05 160.416 134.434C159.811 133.818 158.769 133.837 158.088 134.476C157.407 135.115 157.346 136.132 157.95 136.748C158.555 137.364 159.597 137.345 160.278 136.706Z" fill="white"/>
<path d="M150.272 135.587C150.25 135.792 150.273 135.999 150.339 136.195C150.406 136.391 150.514 136.571 150.657 136.723C150.799 136.875 150.973 136.996 151.167 137.077C151.362 137.158 151.571 137.198 151.782 137.194C152.229 137.187 152.657 137.019 152.986 136.723C153.314 136.426 153.519 136.022 153.561 135.587C153.582 135.381 153.558 135.174 153.491 134.979C153.425 134.784 153.317 134.604 153.174 134.452C153.031 134.301 152.858 134.18 152.664 134.098C152.471 134.017 152.262 133.976 152.051 133.979C151.604 133.986 151.175 134.154 150.847 134.45C150.519 134.747 150.314 135.152 150.272 135.587Z" fill="white"/>
<path d="M143.007 135.587C142.987 135.792 143.01 135.999 143.077 136.194C143.144 136.39 143.252 136.569 143.395 136.721C143.537 136.873 143.711 136.993 143.904 137.075C144.098 137.156 144.307 137.197 144.518 137.194C144.965 137.187 145.393 137.019 145.721 136.723C146.05 136.426 146.254 136.022 146.297 135.587C146.318 135.381 146.294 135.174 146.227 134.979C146.16 134.784 146.052 134.604 145.91 134.452C145.767 134.301 145.593 134.18 145.4 134.098C145.206 134.017 144.997 133.976 144.786 133.979C144.34 133.986 143.911 134.154 143.583 134.45C143.255 134.747 143.05 135.152 143.007 135.587Z" fill="white"/>
<path d="M135.744 135.587C135.723 135.792 135.747 135.999 135.813 136.194C135.88 136.39 135.988 136.569 136.131 136.721C136.273 136.873 136.447 136.993 136.641 137.075C136.834 137.156 137.043 137.197 137.254 137.194C137.701 137.187 138.129 137.019 138.458 136.723C138.786 136.426 138.991 136.022 139.033 135.587C139.054 135.381 139.03 135.174 138.963 134.979C138.897 134.784 138.788 134.604 138.646 134.452C138.503 134.301 138.33 134.18 138.136 134.098C137.943 134.017 137.734 133.976 137.523 133.979C137.076 133.986 136.647 134.154 136.319 134.45C135.991 134.747 135.786 135.152 135.744 135.587Z" fill="white"/>
<path d="M128.48 135.587C128.459 135.792 128.483 135.999 128.55 136.194C128.616 136.39 128.725 136.569 128.867 136.721C129.01 136.873 129.183 136.993 129.377 137.075C129.571 137.156 129.78 137.197 129.99 137.194C130.437 137.187 130.866 137.019 131.194 136.723C131.522 136.426 131.727 136.022 131.77 135.587C131.79 135.381 131.766 135.174 131.7 134.979C131.633 134.784 131.525 134.604 131.382 134.452C131.24 134.301 131.066 134.18 130.872 134.098C130.679 134.017 130.47 133.976 130.259 133.979C129.812 133.986 129.384 134.154 129.055 134.45C128.727 134.747 128.522 135.152 128.48 135.587Z" fill="white"/>
<path d="M121.214 135.587C121.194 135.792 121.217 135.999 121.284 136.194C121.351 136.39 121.459 136.569 121.602 136.721C121.744 136.873 121.918 136.993 122.111 137.075C122.305 137.156 122.514 137.197 122.725 137.194C123.172 137.187 123.6 137.019 123.928 136.723C124.257 136.426 124.461 136.022 124.504 135.587C124.525 135.381 124.501 135.174 124.434 134.979C124.367 134.784 124.259 134.604 124.117 134.452C123.974 134.301 123.8 134.18 123.607 134.098C123.413 134.017 123.204 133.976 122.993 133.979C122.547 133.986 122.118 134.154 121.79 134.45C121.462 134.747 121.257 135.152 121.214 135.587Z" fill="white"/>
<path d="M113.951 135.587C113.93 135.792 113.954 135.999 114.02 136.194C114.087 136.39 114.195 136.569 114.338 136.721C114.48 136.873 114.654 136.993 114.848 137.075C115.041 137.156 115.25 137.197 115.461 137.194C115.908 137.187 116.336 137.019 116.665 136.723C116.993 136.426 117.198 136.022 117.24 135.587C117.261 135.381 117.237 135.174 117.17 134.979C117.104 134.784 116.996 134.604 116.853 134.452C116.71 134.301 116.537 134.18 116.343 134.098C116.15 134.017 115.941 133.976 115.73 133.979C115.283 133.986 114.854 134.154 114.526 134.45C114.198 134.747 113.993 135.152 113.951 135.587Z" fill="white"/>
<path opacity="0.3" d="M106.687 135.586C106.666 135.791 106.69 135.999 106.757 136.194C106.823 136.389 106.932 136.569 107.074 136.721C107.217 136.872 107.391 136.993 107.584 137.075C107.778 137.156 107.987 137.197 108.197 137.194C108.644 137.187 109.073 137.019 109.401 136.722C109.729 136.426 109.934 136.021 109.977 135.586C109.998 135.381 109.975 135.174 109.909 134.978C109.843 134.782 109.734 134.602 109.592 134.45C109.449 134.298 109.275 134.177 109.081 134.096C108.887 134.015 108.677 133.975 108.466 133.979C108.019 133.986 107.591 134.154 107.263 134.45C106.934 134.747 106.729 135.151 106.687 135.586Z" fill="#0E2D7B"/>
<path d="M99.4233 135.586C99.4025 135.791 99.4263 135.999 99.493 136.194C99.5598 136.389 99.668 136.569 99.8105 136.721C99.9531 136.872 100.127 136.993 100.32 137.075C100.514 137.156 100.723 137.197 100.934 137.194C101.381 137.187 101.809 137.019 102.137 136.722C102.466 136.426 102.67 136.021 102.713 135.586C102.735 135.381 102.712 135.174 102.645 134.978C102.579 134.782 102.471 134.602 102.328 134.45C102.185 134.298 102.011 134.177 101.817 134.096C101.623 134.015 101.414 133.975 101.202 133.979C100.756 133.986 100.327 134.154 99.9988 134.45C99.6706 134.747 99.4657 135.151 99.4233 135.586Z" fill="white"/>
<path d="M107.097 74.5982C106.719 75.1675 106.271 75.8995 105.861 76.5627C105.452 77.2259 105.023 77.9266 104.62 78.6211C103.813 80.0038 103.02 81.399 102.297 82.8129C100.836 85.5339 99.6345 88.38 98.7062 91.3155L98.4182 92.3666L98.3798 92.498C98.3798 92.5418 98.3798 92.5981 98.3798 92.5793C98.3798 92.5606 98.3798 92.5793 98.3798 92.5793C98.3779 92.5439 98.3779 92.5084 98.3798 92.473L98.3414 92.2728C98.315 92.1703 98.2808 92.0699 98.239 91.9724C98.1913 91.8421 98.1313 91.7165 98.0598 91.5971C97.9053 91.3563 97.708 91.1445 97.4774 90.9714C97.0486 90.6961 96.9078 90.7399 96.9462 90.7712C97.3881 90.909 97.8536 90.96 98.3158 90.9214C99.0422 90.9067 99.767 90.8461 100.485 90.7399C103.717 90.2145 106.919 89.5296 110.079 88.6878L111.916 92.6794C110.39 93.6356 108.806 94.5006 107.173 95.2696C105.517 96.0704 103.806 96.7602 102.053 97.3343C101.094 97.635 100.118 97.8794 99.1286 98.0663C98.5664 98.1695 97.9976 98.2343 97.4262 98.2602C96.7291 98.3038 96.0292 98.2702 95.3398 98.1601C94.2906 98 93.2987 97.5872 92.4534 96.9589C91.8824 96.5273 91.4021 95.992 91.039 95.3822C90.8611 95.0788 90.7112 94.7606 90.591 94.4313C90.4891 94.1324 90.4079 93.8273 90.3478 93.5178L90.2838 93.0798L90.2518 92.6857C90.239 92.4398 90.239 92.1934 90.2518 91.9474C90.2518 91.7034 90.2902 91.5157 90.3158 91.3218L90.3478 91.0965V90.9151L90.5974 89.4886C90.9662 87.6519 91.4688 85.8434 92.1014 84.0768C92.7017 82.3574 93.3938 80.67 94.175 79.0215C94.9366 77.3823 95.775 75.7932 96.671 74.2416C97.119 73.4595 97.5734 72.6899 98.0598 71.9329C98.5462 71.1759 99.0262 70.4564 99.615 69.6243L107.097 74.5982Z" fill="#FFC799"/>
<path d="M109.338 89.0006L112.109 86.2979L114.874 92.3103C114.874 92.3103 112.263 93.7306 109.933 92.6982L109.338 89.0006Z" fill="#FFC799"/>
<path d="M116.218 84.1394L118.259 89.2197L114.874 92.3104L112.115 86.2979L116.218 84.1394Z" fill="#FFC799"/>
<path d="M127.058 51.2615C126.994 51.6745 127.167 52.0436 127.442 52.0811C127.717 52.1187 127.993 51.8246 128.082 51.4117C128.172 50.9988 127.973 50.6296 127.698 50.5921C127.423 50.5546 127.122 50.8486 127.058 51.2615Z" fill="black"/>
<path d="M127.129 52.0372C127.436 53.3691 127.929 54.6533 128.595 55.8537C128.276 56.0122 127.926 56.1005 127.569 56.1123C127.212 56.1242 126.856 56.0594 126.527 55.9225L127.129 52.0372Z" fill="#FFF4EB"/>
<path d="M125.888 48.7526C125.917 48.7648 125.949 48.7711 125.981 48.7711C126.013 48.7711 126.044 48.7648 126.074 48.7526C126.35 48.6052 126.658 48.5239 126.973 48.5152C127.288 48.5065 127.6 48.5707 127.885 48.7026C127.913 48.7202 127.945 48.7319 127.979 48.737C128.012 48.7421 128.047 48.7405 128.079 48.7323C128.112 48.7241 128.143 48.7095 128.17 48.6893C128.197 48.6692 128.219 48.6439 128.235 48.615C128.252 48.5861 128.262 48.5542 128.266 48.5213C128.269 48.4884 128.266 48.4551 128.256 48.4235C128.246 48.3919 128.229 48.3626 128.207 48.3374C128.185 48.3123 128.158 48.2918 128.128 48.2771C127.773 48.104 127.38 48.0176 126.983 48.0252C126.586 48.0329 126.197 48.1343 125.85 48.3209C125.805 48.3429 125.769 48.3772 125.745 48.4196C125.72 48.462 125.71 48.5104 125.714 48.5588C125.718 48.6071 125.737 48.6532 125.768 48.691C125.799 48.7289 125.841 48.7569 125.888 48.7714V48.7526Z" fill="black"/>
<path d="M113.279 52.2375C113.548 56.079 113.414 63.0362 110.412 65.2072C110.412 65.2072 110.969 69.1363 118.092 70.0122C125.926 70.9695 122.323 66.6713 122.323 66.6713C118.182 65.1447 118.687 62.0602 119.807 59.2386L113.279 52.2375Z" fill="#FFC799"/>
<path d="M107.898 66.934C107.942 66.7921 107.955 66.6431 107.937 66.496C107.732 64.0623 109.46 62.7422 112.474 62.5294C115.674 62.2979 120.193 62.6358 122.97 64.9257C122.33 65.5513 122.746 68.0539 122.746 68.0539L107.898 66.934Z" fill="#0E2D7B"/>
<path d="M94.8678 218.36H94.919C95.013 218.311 95.0892 218.235 95.1373 218.142C95.1854 218.049 95.203 217.944 95.1878 217.841C95.1846 217.759 95.1636 217.678 95.1261 217.605C95.0885 217.532 95.0354 217.467 94.9702 217.415C94.3622 216.915 92.6086 217.134 92.5382 217.14C92.5141 217.143 92.4915 217.153 92.4733 217.168C92.4551 217.184 92.442 217.205 92.4358 217.228C92.4281 217.25 92.4277 217.274 92.4345 217.296C92.4414 217.319 92.4553 217.338 92.4742 217.353C92.8838 217.678 94.2406 218.573 94.8678 218.36ZM92.871 217.334C93.4662 217.29 94.4454 217.284 94.791 217.578C94.8291 217.609 94.8606 217.647 94.8837 217.69C94.9067 217.733 94.9209 217.78 94.9254 217.828C94.9254 218.06 94.8294 218.103 94.7974 218.122C94.471 218.279 93.511 217.803 92.871 217.334Z" fill="#4674EA"/>
<path d="M93.4388 217.177C94.0788 216.971 94.7188 216.614 94.8148 216.251C94.839 216.163 94.8319 216.069 94.7947 215.985C94.7576 215.901 94.6925 215.832 94.61 215.788C94.53 215.736 94.4397 215.701 94.345 215.685C94.2502 215.668 94.153 215.672 94.0596 215.694C93.2852 215.851 92.4788 217.127 92.4468 217.177C92.4356 217.196 92.4297 217.218 92.4297 217.24C92.4297 217.262 92.4356 217.283 92.4468 217.302C92.4584 217.322 92.4753 217.338 92.4956 217.349C92.5159 217.36 92.5388 217.366 92.562 217.365C92.8616 217.341 93.1565 217.278 93.4388 217.177ZM94.0276 215.957H94.1108C94.1717 215.942 94.2351 215.94 94.2969 215.951C94.3587 215.962 94.4175 215.985 94.4692 216.02C94.6036 216.107 94.5844 216.176 94.5716 216.208C94.4692 216.539 93.4772 217.002 92.8052 217.121C93.0992 216.633 93.5213 216.232 94.0276 215.957Z" fill="#4674EA"/>
<path d="M133.761 226.912C134.439 226.912 135.092 226.819 135.309 226.524C135.366 226.446 135.396 226.352 135.396 226.255C135.396 226.159 135.366 226.065 135.309 225.986C135.265 225.916 135.208 225.855 135.14 225.807C135.072 225.759 134.994 225.724 134.913 225.705C134.029 225.467 132.186 226.493 132.109 226.537C132.088 226.551 132.07 226.571 132.059 226.594C132.048 226.617 132.043 226.643 132.045 226.668C132.052 226.693 132.064 226.715 132.082 226.732C132.101 226.75 132.123 226.762 132.148 226.768C132.68 226.861 133.22 226.909 133.761 226.912ZM134.599 225.911C134.678 225.901 134.757 225.901 134.836 225.911C134.887 225.923 134.936 225.944 134.979 225.974C135.022 226.004 135.058 226.042 135.085 226.087C135.169 226.237 135.137 226.312 135.085 226.356C134.842 226.687 133.505 226.693 132.525 226.562C133.158 226.217 133.854 225.996 134.573 225.911H134.599Z" fill="#4674EA"/>
<path d="M132.14 226.762H132.192C132.832 226.487 134.112 225.367 133.99 224.785C133.99 224.648 133.868 224.479 133.523 224.441C133.399 224.43 133.274 224.442 133.155 224.479C133.036 224.515 132.926 224.575 132.832 224.654C132.16 225.192 132.019 226.581 132.012 226.643C132.01 226.664 132.014 226.685 132.023 226.704C132.032 226.722 132.046 226.738 132.064 226.75C132.087 226.762 132.114 226.767 132.14 226.762ZM133.42 224.666H133.497C133.721 224.666 133.734 224.779 133.74 224.804C133.798 225.154 132.94 226.055 132.288 226.412C132.347 225.825 132.591 225.27 132.985 224.823C133.109 224.723 133.266 224.669 133.427 224.673L133.42 224.666Z" fill="#4674EA"/>
<path d="M126.33 226.644H131.61L132.141 214.694H126.861L126.33 226.644Z" fill="#FFC799"/>
<path d="M86.8535 215.745L91.7431 217.059L98.0151 205.853L93.1191 204.539L86.8535 215.745Z" fill="#FFC799"/>
<path d="M92.4799 216.539L87.1999 213.893C87.1062 213.847 86.9993 213.834 86.8969 213.855C86.7946 213.877 86.7028 213.932 86.6367 214.011L83.5711 217.628C83.4962 217.716 83.4428 217.82 83.4149 217.931C83.3869 218.042 83.3852 218.158 83.4099 218.27C83.4345 218.382 83.4849 218.488 83.5572 218.578C83.6294 218.668 83.7217 218.741 83.8271 218.791C85.6895 219.68 86.6431 220.043 88.9471 221.188C90.3807 221.901 94.6303 224.992 96.7743 225.567C98.9183 226.143 99.7503 224.109 98.9247 223.69C96.214 222.329 94.1276 220.019 93.0815 217.221C92.9745 216.929 92.76 216.686 92.4799 216.539Z" fill="#0E2D7B"/>
<path d="M131.578 226.049H125.818C125.713 226.048 125.612 226.083 125.53 226.146C125.448 226.21 125.392 226.3 125.37 226.399L124.327 230.992C124.3 231.102 124.3 231.217 124.326 231.327C124.352 231.438 124.403 231.541 124.476 231.629C124.549 231.717 124.641 231.788 124.746 231.835C124.851 231.883 124.966 231.907 125.082 231.905C127.162 231.874 130.17 231.755 132.762 231.755C135.815 231.755 138.458 231.918 142.042 231.918C144.211 231.918 144.813 229.772 143.904 229.578C139.77 228.696 136.397 228.602 132.832 226.45C132.459 226.208 132.025 226.07 131.578 226.049Z" fill="#0E2D7B"/>
<path d="M108.889 75.5617C108.338 76.9444 107.73 78.2958 107.122 79.5658C106.066 81.7619 105.023 83.6764 104.255 84.9965C103.577 86.1915 103.135 86.8734 103.135 86.8734L91.6152 81.2801C91.6152 81.2801 96.2616 68.2228 101.113 66.7651C106.073 65.3448 111.359 69.3365 108.889 75.5617Z" fill="#4674EA"/>
<path opacity="0.5" d="M108.889 75.5617C108.338 76.9444 107.73 78.2958 107.122 79.5658C106.066 81.7619 105.023 83.6764 104.255 84.9965C103.577 86.1915 103.135 86.8734 103.135 86.8734L91.6152 81.2801C91.6152 81.2801 96.2616 68.2228 101.113 66.7651C106.073 65.3448 111.359 69.3365 108.889 75.5617Z" fill="black"/>
<path opacity="0.2" d="M103.775 76.8505C104.78 77.57 105.497 79.5157 106.009 81.7993C105.369 83.0506 104.729 84.1455 104.255 84.9964C103.577 86.1914 103.135 86.8734 103.135 86.8734L101.811 86.2477C101.84 83.0208 102.507 79.8297 103.775 76.8505Z" fill="black"/>
<path d="M133.281 83.8891C133.281 85.641 133.236 87.5742 133.134 89.7077C132.878 95.4949 132.231 102.709 130.99 111.674H102.753C102.561 107.439 105.281 86.7609 101.102 66.7901C104.226 66.2051 107.386 65.8164 110.561 65.6264C114.557 65.401 118.564 65.401 122.561 65.6264C125.301 65.9014 128.016 66.3803 130.682 67.0592C130.682 67.0592 133.287 69.9309 133.281 83.8891Z" fill="#4674EA"/>
<path opacity="0.5" d="M133.281 83.8891C133.281 85.641 133.236 87.5742 133.134 89.7077C132.878 95.4949 132.231 102.709 130.99 111.674H102.753C102.561 107.439 105.281 86.7609 101.102 66.7901C104.226 66.2051 107.386 65.8164 110.561 65.6264C114.557 65.401 118.564 65.401 122.561 65.6264C125.301 65.9014 128.016 66.3803 130.682 67.0592C130.682 67.0592 133.287 69.9309 133.281 83.8891Z" fill="black"/>
<path d="M134.181 71.9016C134.412 72.3333 134.866 73.0466 135.288 73.6972C135.711 74.3479 136.191 75.0361 136.671 75.7056C137.631 77.0507 138.629 78.3896 139.672 79.6847C141.659 82.2421 143.876 84.6207 146.296 86.7921C146.879 87.2926 147.461 87.7618 148.044 88.1685L148.261 88.3186L148.37 88.3937L148.421 88.4313C148.298 88.3837 148.169 88.3501 148.037 88.3312C147.837 88.2808 147.625 88.2985 147.436 88.3812C147.333 88.4938 147.82 88.3812 148.287 88.0371C148.856 87.649 149.393 87.2181 149.893 86.7483C152.214 84.3799 154.353 81.8475 156.293 79.1717L160.325 81.0486C159.76 82.824 159.065 84.5573 158.245 86.2352C157.844 87.0694 157.398 87.9036 156.908 88.7378C156.413 89.6019 155.868 90.4374 155.276 91.2404C154.634 92.1233 153.905 92.9426 153.1 93.6867C152.624 94.1279 152.107 94.5258 151.557 94.8754C150.864 95.3263 150.104 95.6703 149.304 95.8953C148.239 96.1908 147.115 96.2209 146.034 95.9828C145.469 95.842 144.925 95.6318 144.415 95.3572L144.229 95.2633L144.14 95.2133L143.967 95.1132L143.615 94.913C142.717 94.3839 141.847 93.8096 141.01 93.1924C137.947 90.8427 135.157 88.1719 132.69 85.2279C131.48 83.7952 130.309 82.3374 129.221 80.8046C128.671 80.0413 128.133 79.2655 127.615 78.4459C127.036 77.5558 126.512 76.6323 126.047 75.6805L134.181 71.9016Z" fill="#FFC799"/>
<path d="M156.365 79.1092L159.399 74.7296L163.079 80.0226C163.079 80.0226 160.141 82.4439 157.664 82.1873L156.365 79.1092Z" fill="#FFC799"/>
<path d="M165.261 72.6587L166.157 77.7828L163.078 80.0414L159.398 74.7484L165.261 72.6587Z" fill="#FFC799"/>
<path d="M122.522 72.3083C122.688 77.2446 133.082 88.6064 133.082 88.6064L144.064 81.6117C144.064 81.6117 140.583 75.2425 136.058 70.6315C129.242 63.6743 122.323 66.3896 122.522 72.3083Z" fill="#4674EA"/>
<path opacity="0.5" d="M122.522 72.3083C122.688 77.2446 133.082 88.6064 133.082 88.6064L144.064 81.6117C144.064 81.6117 140.583 75.2425 136.058 70.6315C129.242 63.6743 122.323 66.3896 122.522 72.3083Z" fill="black"/>
<path opacity="0.2" d="M132.135 214.694L131.866 220.856H126.586L126.855 214.694H132.135Z" fill="black"/>
<path opacity="0.2" d="M93.1193 204.539L98.0153 205.859L94.7833 211.634L89.8809 210.314L93.1193 204.539Z" fill="black"/>
<path d="M113.152 48.3022C112.685 53.4075 112.147 56.3668 114.355 59.3512C117.677 63.8371 124.416 62.4794 126.439 57.6119C128.256 53.2323 128.717 45.6244 123.968 42.8591C122.924 42.2442 121.736 41.9005 120.518 41.8607C119.3 41.8209 118.091 42.0864 117.007 42.6318C115.924 43.1772 115 43.9846 114.326 44.977C113.651 45.9695 113.247 47.1141 113.152 48.3022Z" fill="#FFC799"/>
<path d="M122.88 51.8371C123.769 50.6421 126.854 46.8757 126.08 43.6098C125.267 40.1938 120.742 38.7548 118.982 38.6046C120.16 39.7996 116.742 38.7548 115.008 39.3554C116.55 40.7193 112.23 39.3053 111.027 40.882C114.169 41.7892 109.318 42.7589 108.467 43.9226C109.984 44.1354 110.105 44.6734 110.323 45.468C109.772 46.1374 110.086 57.9497 114.016 59.5138C117.715 60.9653 124.416 57.03 122.88 51.8371Z" fill="black"/>
<path d="M125.241 40.1187C125.939 40.7005 124.537 40.8945 122.822 40.1187L123.405 45.1676C125.088 46.7255 128.672 48.7714 129.459 45.0488C130.246 41.3262 126.925 40.3189 125.241 40.1187Z" fill="black"/>
<path d="M121.089 50.786C120.884 51.7876 121.021 52.8274 121.479 53.7454C122.119 54.9466 123.194 54.6025 123.687 53.4763C124.129 52.469 124.327 50.6234 123.406 49.7975C122.484 48.9717 121.358 49.5848 121.089 50.786Z" fill="#FFC799"/>
<path d="M120.959 111.674C120.959 111.674 123.448 150.733 118.725 165.136C111.263 187.972 97.9188 211.252 97.9188 211.252L88.3828 208.449C88.3828 208.449 98.866 183.849 102.316 164.654C105.42 147.392 102.738 125.795 102.738 111.693L120.959 111.674Z" fill="#0E2D7B"/>
<path opacity="0.2" d="M121.382 120.402C118.714 119.645 116.64 119.933 116.096 122.248C114.688 128.298 118.912 144.258 121.018 151.559C121.875 141.048 121.677 128.535 121.382 120.402Z" fill="black"/>
<path d="M100.628 208.581C100.666 208.581 98.1379 211.465 98.1379 211.465L87.7188 208.4L89.0436 204.958L100.628 208.581Z" fill="#4674EA"/>
<path d="M130.995 111.674C130.995 111.674 138.95 144.627 139.507 160.368C140.147 178.024 133.837 219.661 133.837 219.661H124.877C124.877 219.661 123.776 177.699 123.379 161.62C122.944 144.101 112.416 111.674 112.416 111.674H130.995Z" fill="#0E2D7B"/>
<path d="M135.552 216.183C135.596 216.183 135.052 219.811 135.052 219.811H124.16L123.865 216.571L135.552 216.183Z" fill="#4674EA"/>
</svg>
