<svg width="20" height="20" viewBox="0 0 20 20" fill="none" xmlns="http://www.w3.org/2000/svg">
<path d="M16.875 3.75H3.125C2.77982 3.75 2.5 4.02982 2.5 4.375V15.625C2.5 15.9702 2.77982 16.25 3.125 16.25H16.875C17.2202 16.25 17.5 15.9702 17.5 15.625V4.375C17.5 4.02982 17.2202 3.75 16.875 3.75Z" stroke-width="2" stroke-linecap="round" stroke-linejoin="round"/>
<path d="M6.1875 6.5625C6.1875 7.04575 5.79575 7.4375 5.3125 7.4375C4.82925 7.4375 4.4375 7.04575 4.4375 6.5625C4.4375 6.07925 4.82925 5.6875 5.3125 5.6875C5.79575 5.6875 6.1875 6.07925 6.1875 6.5625Z"  stroke-width="1"/>
<path d="M9.3125 6.5625C9.3125 7.04575 8.92075 7.4375 8.4375 7.4375C7.95425 7.4375 7.5625 7.04575 7.5625 6.5625C7.5625 6.07925 7.95425 5.6875 8.4375 5.6875C8.92075 5.6875 9.3125 6.07925 9.3125 6.5625Z"  stroke-width="1"/>
</svg>
