<svg width="20" height="20" viewBox="0 0 20 20" fill="none" xmlns="http://www.w3.org/2000/svg">
<path d="M10 10L17.5 2.5" stroke-width="2" stroke-linecap="round" stroke-linejoin="round"/>
<path d="M15.3031 4.69713C13.9745 3.3712 12.1967 2.59221 10.3213 2.51428C8.44593 2.43634 6.60961 3.06514 5.17563 4.27627C3.74165 5.48739 2.81448 7.19262 2.57754 9.0546C2.3406 10.9166 2.81115 12.7997 3.8961 14.3313C4.98105 15.863 6.60137 16.9317 8.4365 17.3259C10.2716 17.7201 12.1879 17.4112 13.8062 16.4603C15.4244 15.5094 16.6269 13.9857 17.1755 12.1907C17.7242 10.3956 17.5792 8.46007 16.7692 6.76687" stroke-width="2" stroke-linecap="round" stroke-linejoin="round"/>
<path d="M12.6514 7.34827C12.0315 6.72832 11.2139 6.34521 10.3407 6.26553C9.46761 6.18584 8.59416 6.41461 7.87221 6.91208C7.15025 7.40956 6.62543 8.14427 6.38897 8.98854C6.1525 9.8328 6.21933 10.7332 6.57786 11.5333C6.93638 12.3334 7.56392 12.9826 8.35141 13.368C9.1389 13.7535 10.0366 13.8508 10.8883 13.6431C11.7401 13.4353 12.4922 12.9357 13.0139 12.231C13.5355 11.5264 13.7938 10.6612 13.7437 9.78584" stroke-width="2" stroke-linecap="round" stroke-linejoin="round"/>
</svg>
