<svg width="20" height="20" viewBox="0 0 20 20" fill="none" xmlns="http://www.w3.org/2000/svg">
<path d="M10 12.5C11.7259 12.5 13.125 11.1009 13.125 9.375C13.125 7.64911 11.7259 6.25 10 6.25C8.27411 6.25 6.875 7.64911 6.875 9.375C6.875 11.1009 8.27411 12.5 10 12.5Z" stroke-width="2" stroke-linecap="round" stroke-linejoin="round"/>
<path d="M16.25 3.125H3.75C3.40482 3.125 3.125 3.40482 3.125 3.75V16.25C3.125 16.5952 3.40482 16.875 3.75 16.875H16.25C16.5952 16.875 16.875 16.5952 16.875 16.25V3.75C16.875 3.40482 16.5952 3.125 16.25 3.125Z" stroke-width="2" stroke-linecap="round" stroke-linejoin="round"/>
<path d="M4.51367 16.875C4.79723 15.6322 5.49439 14.5225 6.49099 13.7277C7.48759 12.9329 8.72455 12.5 9.99928 12.5C11.274 12.5 12.511 12.9329 13.5076 13.7277C14.5042 14.5225 15.2013 15.6322 15.4849 16.875" stroke-width="2" stroke-linecap="round" stroke-linejoin="round"/>
</svg>
