<svg width="20" height="20" viewBox="0 0 20 20" fill="none" xmlns="http://www.w3.org/2000/svg">
<path d="M4.16602 7.5H1.66602V5" stroke="#1B42A6" stroke-width="2" stroke-linecap="round" stroke-linejoin="round"/>
<path d="M14.8607 4.51364C14.2223 3.87524 13.4645 3.36883 12.6303 3.02333C11.7962 2.67783 10.9022 2.5 9.99939 2.5C9.09655 2.5 8.20255 2.67783 7.36844 3.02333C6.53433 3.36883 3.76237 4.91804 1.66602 7.5" stroke="#1B42A6" stroke-width="2" stroke-linecap="round" stroke-linejoin="round"/>
<path d="M15.834 12.5H18.334V15" stroke="#1B42A6" stroke-width="2" stroke-linecap="round" stroke-linejoin="round"/>
<path d="M5.13867 15.6947C5.77707 16.3331 6.53497 16.8395 7.36908 17.185C8.2032 17.5305 9.09719 17.7083 10 17.7083C10.9029 17.7083 11.7969 17.5305 12.631 17.185C13.4651 16.8395 14.5834 16.25 15.4167 15.4167C16.25 14.5833 18.3334 12.5 18.3334 12.5" stroke="#1B42A6" stroke-width="2" stroke-linecap="round" stroke-linejoin="round"/>
<path d="M5.97777 8.67523C5.94001 8.67523 5.9066 8.66042 5.87756 8.63079C5.84851 8.60116 5.83398 8.5656 5.83398 8.52412C5.83398 8.4856 5.84706 8.45153 5.8732 8.4219C5.90225 8.39227 5.9371 8.37745 5.97777 8.37745H7.59862C7.63928 8.37745 7.67269 8.39227 7.69883 8.4219C7.72788 8.45153 7.7424 8.4856 7.7424 8.52412C7.7424 8.62486 7.709 8.7093 7.64219 8.77745L6.70105 9.71523V9.72412C6.70105 9.72708 6.7025 9.72856 6.70541 9.72856H6.83176C7.13967 9.72856 7.37495 9.80412 7.53762 9.95523C7.70319 10.1063 7.78597 10.3256 7.78597 10.613C7.78597 10.9508 7.68721 11.2115 7.48969 11.3952C7.29507 11.576 7.01622 11.6663 6.65312 11.6663C6.42946 11.6663 6.21886 11.6308 6.02134 11.5597C5.91677 11.5212 5.86448 11.4441 5.86448 11.3286C5.86448 11.29 5.88046 11.2604 5.91241 11.2397C5.94436 11.2189 5.97777 11.216 6.01263 11.2308C6.22467 11.3226 6.43817 11.3686 6.65312 11.3686C6.90874 11.3686 7.10336 11.3049 7.23698 11.1775C7.3706 11.05 7.4374 10.8619 7.4374 10.613C7.4374 10.4026 7.36769 10.2471 7.22826 10.1463C7.09174 10.0426 6.87243 9.99079 6.57034 9.99079H6.38734C6.34958 9.99079 6.31762 9.97745 6.29148 9.95079C6.26534 9.92412 6.25227 9.89153 6.25227 9.85301C6.25227 9.76116 6.28422 9.68264 6.34812 9.61745L7.29362 8.68412V8.67967C7.29362 8.67671 7.29217 8.67523 7.28926 8.67523H5.97777Z" fill="#1B42A6"/>
<path d="M10.0827 9.73301C9.85321 9.73301 9.6644 9.8056 9.51626 9.95079C9.37102 10.093 9.2984 10.2752 9.2984 10.4975C9.2984 10.7197 9.36231 10.9212 9.49012 11.1019C9.61793 11.2797 9.81109 11.3686 10.0696 11.3686C10.3107 11.3686 10.4981 11.296 10.6317 11.1508C10.7682 11.0056 10.8365 10.7967 10.8365 10.5241C10.8365 10.2841 10.7668 10.093 10.6273 9.95079C10.4908 9.8056 10.3093 9.73301 10.0827 9.73301ZM10.0696 11.6663C9.31438 11.6663 8.93676 11.1775 8.93676 10.1997C8.93676 9.57449 9.0486 9.10782 9.27226 8.79967C9.49883 8.48856 9.81981 8.33301 10.2352 8.33301C10.3979 8.33301 10.5634 8.35375 10.7319 8.39523C10.7755 8.40708 10.8103 8.43227 10.8365 8.47079C10.8626 8.50634 10.8757 8.54782 10.8757 8.59523C10.8757 8.63375 10.8597 8.66486 10.8278 8.68856C10.7987 8.7093 10.7668 8.71375 10.7319 8.7019C10.5809 8.65449 10.4153 8.63079 10.2352 8.63079C9.96795 8.63079 9.75009 8.73449 9.58162 8.9419C9.41605 9.14634 9.3231 9.44264 9.30276 9.83079C9.30276 9.83375 9.30421 9.83523 9.30712 9.83523C9.31293 9.83523 9.31583 9.83375 9.31583 9.83079C9.49302 9.5819 9.77333 9.45745 10.1568 9.45745C10.4705 9.45745 10.7203 9.55523 10.9062 9.75079C11.0921 9.94338 11.185 10.2012 11.185 10.5241C11.185 10.8797 11.0834 11.1597 10.88 11.3641C10.6796 11.5656 10.4095 11.6663 10.0696 11.6663Z" fill="#1B42A6"/>
<path d="M13.8608 8.95079C13.7301 8.73153 13.5311 8.6219 13.2639 8.6219C12.9967 8.6219 12.7962 8.73153 12.6626 8.95079C12.5319 9.16708 12.4665 9.51671 12.4665 9.99967C12.4665 10.4826 12.5319 10.8337 12.6626 11.053C12.7962 11.2693 12.9967 11.3775 13.2639 11.3775C13.5311 11.3775 13.7301 11.2693 13.8608 11.053C13.9944 10.8337 14.0612 10.4826 14.0612 9.99967C14.0612 9.51671 13.9944 9.16708 13.8608 8.95079ZM14.1092 11.2797C13.9087 11.5375 13.627 11.6663 13.2639 11.6663C12.9008 11.6663 12.619 11.5375 12.4186 11.2797C12.2182 11.0219 12.118 10.5952 12.118 9.99967C12.118 9.40412 12.2182 8.97745 12.4186 8.71967C12.619 8.4619 12.9008 8.33301 13.2639 8.33301C13.627 8.33301 13.9087 8.4619 14.1092 8.71967C14.3096 8.97745 14.4098 9.40412 14.4098 9.99967C14.4098 10.5952 14.3096 11.0219 14.1092 11.2797Z" fill="#1B42A6"/>
<path d="M16.2882 8.71967C16.2098 8.63967 16.114 8.59967 16.0007 8.59967C15.8874 8.59967 15.7915 8.63967 15.7131 8.71967C15.6347 8.79967 15.5955 8.89745 15.5955 9.01301C15.5955 9.12856 15.6347 9.22782 15.7131 9.31079C15.7915 9.39079 15.8874 9.43079 16.0007 9.43079C16.114 9.43079 16.2098 9.39079 16.2882 9.31079C16.3667 9.22782 16.4059 9.12856 16.4059 9.01301C16.4059 8.89745 16.3667 8.79967 16.2882 8.71967ZM16.4712 9.49745C16.3434 9.63079 16.1866 9.69745 16.0007 9.69745C15.8148 9.69745 15.6565 9.63079 15.5258 9.49745C15.3979 9.36412 15.334 9.20264 15.334 9.01301C15.334 8.82338 15.3979 8.66338 15.5258 8.53301C15.6565 8.39967 15.8148 8.33301 16.0007 8.33301C16.1866 8.33301 16.3434 8.39967 16.4712 8.53301C16.602 8.66338 16.6673 8.82338 16.6673 9.01301C16.6673 9.20264 16.602 9.36412 16.4712 9.49745Z" fill="#1B42A6"/>
<path d="M5.97777 8.67523C5.94001 8.67523 5.9066 8.66042 5.87756 8.63079C5.84851 8.60116 5.83398 8.5656 5.83398 8.52412C5.83398 8.4856 5.84706 8.45153 5.8732 8.4219C5.90225 8.39227 5.9371 8.37745 5.97777 8.37745H7.59862C7.63928 8.37745 7.67269 8.39227 7.69883 8.4219C7.72788 8.45153 7.7424 8.4856 7.7424 8.52412C7.7424 8.62486 7.709 8.7093 7.64219 8.77745L6.70105 9.71523V9.72412C6.70105 9.72708 6.7025 9.72856 6.70541 9.72856H6.83176C7.13967 9.72856 7.37495 9.80412 7.53762 9.95523C7.70319 10.1063 7.78597 10.3256 7.78597 10.613C7.78597 10.9508 7.68721 11.2115 7.48969 11.3952C7.29507 11.576 7.01622 11.6663 6.65312 11.6663C6.42946 11.6663 6.21886 11.6308 6.02134 11.5597C5.91677 11.5212 5.86448 11.4441 5.86448 11.3286C5.86448 11.29 5.88046 11.2604 5.91241 11.2397C5.94436 11.2189 5.97777 11.216 6.01263 11.2308C6.22467 11.3226 6.43817 11.3686 6.65312 11.3686C6.90874 11.3686 7.10336 11.3049 7.23698 11.1775C7.3706 11.05 7.4374 10.8619 7.4374 10.613C7.4374 10.4026 7.36769 10.2471 7.22826 10.1463C7.09174 10.0426 6.87243 9.99079 6.57034 9.99079H6.38734C6.34958 9.99079 6.31762 9.97745 6.29148 9.95079C6.26534 9.92412 6.25227 9.89153 6.25227 9.85301C6.25227 9.76116 6.28422 9.68264 6.34812 9.61745L7.29362 8.68412V8.67967C7.29362 8.67671 7.29217 8.67523 7.28926 8.67523H5.97777Z" stroke="#1B42A6" stroke-width="0.8" stroke-linejoin="round"/>
<path d="M10.0827 9.73301C9.85321 9.73301 9.6644 9.8056 9.51626 9.95079C9.37102 10.093 9.2984 10.2752 9.2984 10.4975C9.2984 10.7197 9.36231 10.9212 9.49012 11.1019C9.61793 11.2797 9.81109 11.3686 10.0696 11.3686C10.3107 11.3686 10.4981 11.296 10.6317 11.1508C10.7682 11.0056 10.8365 10.7967 10.8365 10.5241C10.8365 10.2841 10.7668 10.093 10.6273 9.95079C10.4908 9.8056 10.3093 9.73301 10.0827 9.73301ZM10.0696 11.6663C9.31438 11.6663 8.93676 11.1775 8.93676 10.1997C8.93676 9.57449 9.0486 9.10782 9.27226 8.79967C9.49883 8.48856 9.81981 8.33301 10.2352 8.33301C10.3979 8.33301 10.5634 8.35375 10.7319 8.39523C10.7755 8.40708 10.8103 8.43227 10.8365 8.47079C10.8626 8.50634 10.8757 8.54782 10.8757 8.59523C10.8757 8.63375 10.8597 8.66486 10.8278 8.68856C10.7987 8.7093 10.7668 8.71375 10.7319 8.7019C10.5809 8.65449 10.4153 8.63079 10.2352 8.63079C9.96795 8.63079 9.75009 8.73449 9.58162 8.9419C9.41605 9.14634 9.3231 9.44264 9.30276 9.83079C9.30276 9.83375 9.30421 9.83523 9.30712 9.83523C9.31293 9.83523 9.31583 9.83375 9.31583 9.83079C9.49302 9.5819 9.77333 9.45745 10.1568 9.45745C10.4705 9.45745 10.7203 9.55523 10.9062 9.75079C11.0921 9.94338 11.185 10.2012 11.185 10.5241C11.185 10.8797 11.0834 11.1597 10.88 11.3641C10.6796 11.5656 10.4095 11.6663 10.0696 11.6663Z" stroke="#1B42A6" stroke-width="0.8" stroke-linejoin="round"/>
<path d="M13.8608 8.95079C13.7301 8.73153 13.5311 8.6219 13.2639 8.6219C12.9967 8.6219 12.7962 8.73153 12.6626 8.95079C12.5319 9.16708 12.4665 9.51671 12.4665 9.99967C12.4665 10.4826 12.5319 10.8337 12.6626 11.053C12.7962 11.2693 12.9967 11.3775 13.2639 11.3775C13.5311 11.3775 13.7301 11.2693 13.8608 11.053C13.9944 10.8337 14.0612 10.4826 14.0612 9.99967C14.0612 9.51671 13.9944 9.16708 13.8608 8.95079ZM14.1092 11.2797C13.9087 11.5375 13.627 11.6663 13.2639 11.6663C12.9008 11.6663 12.619 11.5375 12.4186 11.2797C12.2182 11.0219 12.118 10.5952 12.118 9.99967C12.118 9.40412 12.2182 8.97745 12.4186 8.71967C12.619 8.4619 12.9008 8.33301 13.2639 8.33301C13.627 8.33301 13.9087 8.4619 14.1092 8.71967C14.3096 8.97745 14.4098 9.40412 14.4098 9.99967C14.4098 10.5952 14.3096 11.0219 14.1092 11.2797Z" stroke="#1B42A6" stroke-width="0.8" stroke-linejoin="round"/>
<path d="M16.2882 8.71967C16.2098 8.63967 16.114 8.59967 16.0007 8.59967C15.8874 8.59967 15.7915 8.63967 15.7131 8.71967C15.6347 8.79967 15.5955 8.89745 15.5955 9.01301C15.5955 9.12856 15.6347 9.22782 15.7131 9.31079C15.7915 9.39079 15.8874 9.43079 16.0007 9.43079C16.114 9.43079 16.2098 9.39079 16.2882 9.31079C16.3667 9.22782 16.4059 9.12856 16.4059 9.01301C16.4059 8.89745 16.3667 8.79967 16.2882 8.71967ZM16.4712 9.49745C16.3434 9.63079 16.1866 9.69745 16.0007 9.69745C15.8148 9.69745 15.6565 9.63079 15.5258 9.49745C15.3979 9.36412 15.334 9.20264 15.334 9.01301C15.334 8.82338 15.3979 8.66338 15.5258 8.53301C15.6565 8.39967 15.8148 8.33301 16.0007 8.33301C16.1866 8.33301 16.3434 8.39967 16.4712 8.53301C16.602 8.66338 16.6673 8.82338 16.6673 9.01301C16.6673 9.20264 16.602 9.36412 16.4712 9.49745Z" stroke="#1B42A6" stroke-width="0.8" stroke-linejoin="round"/>
</svg>
