<svg width="8" height="13" viewBox="0 0 8 13" fill="none" xmlns="http://www.w3.org/2000/svg">
<path d="M7.229 12.904L7.765 12.367C7.79539 12.3368 7.8195 12.3009 7.83595 12.2613C7.85241 12.2218 7.86089 12.1793 7.86089 12.1365C7.86089 12.0936 7.85241 12.0512 7.83595 12.0117C7.8195 11.9721 7.79539 11.9362 7.765 11.906L2.86501 6.99899L7.765 2.09199C7.79539 2.06179 7.8195 2.02587 7.83595 1.98631C7.85241 1.94676 7.86089 1.90433 7.86089 1.86149C7.86089 1.81865 7.85241 1.77623 7.83595 1.73667C7.8195 1.69711 7.79539 1.66119 7.765 1.63099L7.229 1.09399C7.1988 1.0636 7.16288 1.03949 7.12332 1.02303C7.08376 1.00658 7.04135 0.998108 6.9985 0.998108C6.95566 0.998108 6.91323 1.00658 6.87367 1.02303C6.83411 1.03949 6.79821 1.0636 6.76801 1.09399L1.09399 6.76799C1.06361 6.7982 1.0395 6.83411 1.02304 6.87367C1.00659 6.91322 0.998123 6.95565 0.998123 6.99849C0.998123 7.04133 1.00659 7.08376 1.02304 7.12331C1.0395 7.16287 1.06361 7.19879 1.09399 7.22899L6.76801 12.903C6.79814 12.9334 6.834 12.9576 6.87352 12.9742C6.91304 12.9907 6.95545 12.9993 6.99829 12.9994C7.04114 12.9995 7.08358 12.9911 7.12317 12.9747C7.16276 12.9583 7.19873 12.9343 7.229 12.904Z" fill="#1B1C1D"/>
</svg>
