<svg width="21" height="20" viewBox="0 0 21 20" fill="none" xmlns="http://www.w3.org/2000/svg">
<path fill-rule="evenodd" clip-rule="evenodd" d="M2.59766 5H4.3295H18.1842" fill="#1565C0"/>
<path d="M2.59766 5H4.3295H18.1842" stroke="#1B1C1D" stroke-width="2" stroke-linecap="round" stroke-linejoin="round"/>
<path d="M17.4525 4.99999C17.4525 4.44771 17.0048 3.99999 16.4525 3.99999C15.9002 3.99999 15.4525 4.44771 15.4525 4.99999H17.4525ZM5.32959 4.99999C5.32959 4.44771 4.88187 3.99999 4.32959 3.99999C3.77731 3.99999 3.32959 4.44771 3.32959 4.99999H5.32959ZM5.92736 4.99999C5.92736 5.55227 6.37507 5.99999 6.92736 5.99999C7.47964 5.99999 7.92736 5.55227 7.92736 4.99999H5.92736ZM12.8547 4.99999C12.8547 5.55227 13.3024 5.99999 13.8547 5.99999C14.407 5.99999 14.8547 5.55227 14.8547 4.99999H12.8547ZM15.4525 4.99999V16.6667H17.4525V4.99999H15.4525ZM15.4525 16.6667C15.4525 16.999 15.1613 17.3333 14.7207 17.3333V19.3333C16.1929 19.3333 17.4525 18.1752 17.4525 16.6667H15.4525ZM14.7207 17.3333H6.06143V19.3333H14.7207V17.3333ZM6.06143 17.3333C5.62074 17.3333 5.32959 16.999 5.32959 16.6667H3.32959C3.32959 18.1752 4.58918 19.3333 6.06143 19.3333V17.3333ZM5.32959 16.6667V4.99999H3.32959V16.6667H5.32959ZM7.92736 4.99999V3.33332H5.92736V4.99999H7.92736ZM7.92736 3.33332C7.92736 3.00094 8.21851 2.66666 8.6592 2.66666V0.666656C7.18695 0.666656 5.92736 1.82475 5.92736 3.33332H7.92736ZM8.6592 2.66666H12.1229V0.666656H8.6592V2.66666ZM12.1229 2.66666C12.5636 2.66666 12.8547 3.00094 12.8547 3.33332H14.8547C14.8547 1.82475 13.5951 0.666656 12.1229 0.666656V2.66666ZM12.8547 3.33332V4.99999H14.8547V3.33332H12.8547Z" fill="#1B1C1D"/>
<path d="M8.65918 9.16666V14.1667" stroke="#1B1C1D" stroke-width="2" stroke-linecap="round" stroke-linejoin="round"/>
<path d="M12.1228 9.16666V14.1667" stroke="#1B1C1D" stroke-width="2" stroke-linecap="round" stroke-linejoin="round"/>
</svg>
