<svg width="64" height="64" viewBox="0 0 64 64" fill="none" xmlns="http://www.w3.org/2000/svg">
<path d="M0 8C0 3.58172 3.58172 0 8 0H56C60.4183 0 64 3.58172 64 8V56C64 60.4183 60.4183 64 56 64H8C3.58172 64 0 60.4183 0 56V8Z" fill="#EDF6FF"/>
<path d="M42 23H22C20.8954 23 20 23.8954 20 25V39C20 40.1046 20.8954 41 22 41H42C43.1046 41 44 40.1046 44 39V25C44 23.8954 43.1046 23 42 23Z" stroke="#0067CF" stroke-width="2" stroke-linecap="round" stroke-linejoin="round"/>
<path d="M20 31H27.1012C27.3316 31 27.5549 31.0796 27.7333 31.2254C27.9117 31.3711 28.0342 31.5741 28.08 31.7999C28.2646 32.7033 28.7555 33.5153 29.4698 34.0984C30.1841 34.6815 31.0779 35 32 35C32.9221 35 33.8159 34.6815 34.5302 34.0984C35.2445 33.5153 35.7354 32.7033 35.92 31.7999C35.9658 31.5741 36.0883 31.3711 36.2667 31.2254C36.4451 31.0796 36.6684 31 36.8988 31H44" stroke="#0067CF" stroke-width="2" stroke-linecap="round" stroke-linejoin="round"/>
<path d="M20 27H44" stroke="#0067CF" stroke-width="2" stroke-linecap="round" stroke-linejoin="round"/>
</svg>
