<svg width="32" height="32" viewBox="0 0 32 32" fill="none" xmlns="http://www.w3.org/2000/svg">
<path d="M0 16C0 7.16344 7.16344 0 16 0C24.8366 0 32 7.16344 32 16C32 24.8366 24.8366 32 16 32C7.16344 32 0 24.8366 0 16Z" fill="#ECF1FD"/>
<path d="M13.2012 18.0996H18.8012" stroke="#4674EA" stroke-width="2" stroke-linecap="round" stroke-linejoin="round"/>
<path d="M13.2012 15.2998H18.8012" stroke="#4674EA" stroke-width="2" stroke-linecap="round" stroke-linejoin="round"/>
<path d="M18.8002 8.2998H22.3C22.4857 8.2998 22.6637 8.37355 22.795 8.50483C22.9262 8.63611 23 8.81415 23 8.9998V23.6998C23 23.8855 22.9262 24.0635 22.795 24.1948C22.6637 24.3261 22.4857 24.3998 22.3 24.3998H9.7C9.51435 24.3998 9.3363 24.3261 9.20503 24.1948C9.07375 24.0635 9 23.8855 9 23.6998V8.9998C9 8.81415 9.07375 8.63611 9.20503 8.50483C9.3363 8.37355 9.51435 8.2998 9.7 8.2998H13.1998" stroke="#4674EA" stroke-width="2" stroke-linecap="round" stroke-linejoin="round"/>
<path d="M12.5 11.0994V10.3994C12.5 9.47116 12.8687 8.58092 13.5251 7.92454C14.1815 7.26816 15.0717 6.89941 16 6.89941C16.9283 6.89941 17.8185 7.26816 18.4749 7.92454C19.1313 8.58092 19.5 9.47116 19.5 10.3994V11.0994H12.5Z" stroke="#4674EA" stroke-width="2" stroke-linecap="round" stroke-linejoin="round"/>
</svg>
