<svg width="49" height="49" viewBox="0 0 49 49" fill="none" xmlns="http://www.w3.org/2000/svg">
<path d="M3.0625 41.3398H45.9375" stroke="#525252" stroke-width="2" stroke-linecap="round" stroke-linejoin="round"/>
<path d="M27.5605 41.3398V7.65234C27.5605 7.24623 27.3992 6.85675 27.1121 6.56959C26.8249 6.28242 26.4354 6.12109 26.0293 6.12109H7.6543C7.24818 6.12109 6.8587 6.28242 6.57154 6.56959C6.28437 6.85675 6.12305 7.24623 6.12305 7.65234V41.3398" stroke="#525252" stroke-width="2" stroke-linecap="round" stroke-linejoin="round"/>
<path d="M42.873 41.3398V19.9023C42.873 19.4962 42.7117 19.1068 42.4246 18.8196C42.1374 18.5324 41.7479 18.3711 41.3418 18.3711H27.5605" stroke="#525252" stroke-width="2" stroke-linecap="round" stroke-linejoin="round"/>
<path d="M12.248 13.7773H18.373" stroke="#525252" stroke-width="2" stroke-linecap="round" stroke-linejoin="round"/>
<path d="M15.3105 26.0273H21.4355" stroke="#525252" stroke-width="2" stroke-linecap="round" stroke-linejoin="round"/>
<path d="M12.248 33.6836H18.373" stroke="#525252" stroke-width="2" stroke-linecap="round" stroke-linejoin="round"/>
<path d="M33.6855 33.6836H36.748" stroke="#525252" stroke-width="2" stroke-linecap="round" stroke-linejoin="round"/>
<path d="M33.6855 26.0273H36.748" stroke="#525252" stroke-width="2" stroke-linecap="round" stroke-linejoin="round"/>
</svg>
