<svg width="320" height="239" viewBox="0 0 320 239" fill="none" xmlns="http://www.w3.org/2000/svg">
<path d="M320 210.029H0V210.19H320V210.029Z" fill="#EDEDED"/>
<path d="M287.935 220.352H266.738V220.512H287.935V220.352Z" fill="#EDEDED"/>
<path d="M211.98 222.097H206.418V222.257H211.98V222.097Z" fill="#EDEDED"/>
<path d="M266.098 214.398H253.816V214.559H266.098V214.398Z" fill="#EDEDED"/>
<path d="M61.2158 215.476H33.5742V215.636H61.2158V215.476Z" fill="#EDEDED"/>
<path d="M70.9692 215.476H66.918V215.636H70.9692V215.476Z" fill="#EDEDED"/>
<path d="M144.096 218.183H84.1406V218.343H144.096V218.183Z" fill="#EDEDED"/>
<path d="M151.679 181.418H28.1011C27.133 181.417 26.2052 181.03 25.5212 180.343C24.8373 179.656 24.4531 178.726 24.4531 177.755V3.63093C24.4616 2.66612 24.8494 1.7436 25.5324 1.06376C26.2155 0.383915 27.1385 0.00165277 28.1011 0H151.679C152.648 0 153.577 0.385923 154.263 1.07287C154.948 1.75982 155.333 2.69152 155.333 3.66301V177.755C155.333 178.727 154.948 179.658 154.263 180.345C153.577 181.032 152.648 181.418 151.679 181.418ZM28.1011 0.128302C27.1755 0.130001 26.2883 0.499776 25.6343 1.15646C24.9804 1.81315 24.6131 2.70309 24.6131 3.63093V177.755C24.6131 178.683 24.9804 179.573 25.6343 180.23C26.2883 180.886 27.1755 181.256 28.1011 181.258H151.679C152.605 181.256 153.493 180.887 154.148 180.23C154.803 179.574 155.171 178.684 155.173 177.755V3.63093C155.171 2.7025 154.803 1.81257 154.148 1.15607C153.493 0.499568 152.605 0.129998 151.679 0.128302H28.1011Z" fill="#EDEDED"/>
<path d="M290.117 181.418H166.533C165.565 181.417 164.636 181.03 163.951 180.344C163.266 179.657 162.881 178.726 162.879 177.755V3.63093C162.889 2.66554 163.278 1.74302 163.962 1.06336C164.646 0.383691 165.57 0.00163475 166.533 0H290.117C291.079 0.00333872 292 0.386347 292.682 1.06601C293.364 1.74567 293.751 2.66723 293.759 3.63093V177.755C293.759 178.725 293.376 179.654 292.693 180.341C292.011 181.027 291.084 181.415 290.117 181.418ZM166.533 0.128302C165.607 0.129998 164.719 0.499568 164.064 1.15607C163.409 1.81257 163.041 2.7025 163.039 3.63093V177.755C163.041 178.684 163.409 179.574 164.064 180.23C164.719 180.887 165.607 181.256 166.533 181.258H290.117C291.044 181.256 291.931 180.887 292.586 180.23C293.241 179.574 293.61 178.684 293.612 177.755V3.63093C293.61 2.7025 293.241 1.81257 292.586 1.15607C291.931 0.499568 291.044 0.129998 290.117 0.128302H166.533Z" fill="#EDEDED"/>
<path d="M105.272 6.89648H59.6719V161.955H105.272V6.89648Z" fill="#F9F9F9"/>
<path d="M98.4844 6.89648H95.822L79.918 161.955H82.5804L98.4844 6.89648Z" fill="#F9F9F9"/>
<path d="M104.467 7.49316H59.3789V8.85957H104.467V7.49316Z" fill="#EDEDED"/>
<path d="M104.467 160.595H59.3789V163.52H104.467V160.595Z" fill="#EDEDED"/>
<path d="M103.718 163.392H61.1133V163.52H103.718V163.392Z" fill="#EDEDED"/>
<path d="M61.1122 7.49233H103.717V163.391H106.271V5.57422H58.5586V163.391H61.1122V7.49233Z" fill="#EDEDED"/>
<path d="M156.018 6.89648H110.418V161.955H156.018V6.89648Z" fill="#F9F9F9"/>
<path d="M143.368 6.89648H128.834L112.93 161.955H127.464L143.368 6.89648Z" fill="#F9F9F9"/>
<path d="M156.493 7.49316H110.125V8.85957H156.493V7.49316Z" fill="#EDEDED"/>
<path d="M156.493 160.595H110.125V163.52H156.493V160.595Z" fill="#EDEDED"/>
<path d="M154.464 163.392H111.859V163.52H154.464V163.392Z" fill="#EDEDED"/>
<path d="M111.858 7.49233H154.463V163.391H157.01V5.57422H109.305V163.391H111.858V7.49233Z" fill="#EDEDED"/>
<path d="M205.48 6.89648H161.16V161.955H205.48V6.89648Z" fill="#F9F9F9"/>
<path d="M186.273 6.89648H183.611L167.707 161.955H170.369L186.273 6.89648Z" fill="#F9F9F9"/>
<path d="M205.959 7.49316H160.871V8.85957H205.959V7.49316Z" fill="#EDEDED"/>
<path d="M205.959 160.595H160.871V163.52H205.959V160.595Z" fill="#EDEDED"/>
<path d="M205.21 163.392H162.605V163.52H205.21V163.392Z" fill="#EDEDED"/>
<path d="M162.604 7.49233H205.203V163.391H207.756V5.57422H160.051V163.391H162.604V7.49233Z" fill="#EDEDED"/>
<path d="M257.502 6.89648H211.902V161.955H257.502V6.89648Z" fill="#F9F9F9"/>
<path d="M253.042 6.89648H238.508L222.598 161.955H237.138L253.042 6.89648Z" fill="#F9F9F9"/>
<path d="M256.697 7.49316H211.609V8.85957H256.697V7.49316Z" fill="#EDEDED"/>
<path d="M256.697 160.595H211.609V163.52H256.697V160.595Z" fill="#EDEDED"/>
<path d="M213.344 7.49233H255.949V163.391H258.502V5.57422H210.797V163.391H213.344V7.49233Z" fill="#EDEDED"/>
<path d="M255.949 163.392H213.344V163.52H255.949V163.392Z" fill="#EDEDED"/>
<path d="M94.3616 126.287H74.5664V160.601H94.3616V126.287Z" fill="#EDEDED"/>
<path d="M90.5592 121.488V130.097H89.004H79.9288H78.3672V121.488H90.5592Z" fill="#EDEDED"/>
<path d="M90.5593 130.098H93.0938V127.557H90.5593V130.098Z" fill="#F9F9F9"/>
<path d="M85.657 130.098H88.1914V127.557H85.657V130.098Z" fill="#F9F9F9"/>
<path d="M80.7508 130.098H83.2852V127.557H80.7508V130.098Z" fill="#F9F9F9"/>
<path d="M75.8406 130.098H78.375V127.557H75.8406V130.098Z" fill="#DBDBDB"/>
<path d="M90.5593 134.71H93.0938V132.17H90.5593V134.71Z" fill="#DBDBDB"/>
<path d="M85.657 134.71H88.1914V132.17H85.657V134.71Z" fill="#DBDBDB"/>
<path d="M80.7508 134.71H83.2852V132.17H80.7508V134.71Z" fill="#F9F9F9"/>
<path d="M75.8406 134.71H78.375V132.17H75.8406V134.71Z" fill="#F9F9F9"/>
<path d="M90.5593 139.329H93.0938V136.789H90.5593V139.329Z" fill="#DBDBDB"/>
<path d="M85.657 139.329H88.1914V136.789H85.657V139.329Z" fill="#F9F9F9"/>
<path d="M80.7508 139.329H83.2852V136.789H80.7508V139.329Z" fill="#F9F9F9"/>
<path d="M85.657 126.107H88.1914V123.567H85.657V126.107Z" fill="#F9F9F9"/>
<path d="M80.7508 126.107H83.2852V123.567H80.7508V126.107Z" fill="#DBDBDB"/>
<path d="M75.8406 139.329H78.375V136.789H75.8406V139.329Z" fill="#DBDBDB"/>
<path d="M90.5593 143.947H93.0938V141.407H90.5593V143.947Z" fill="#F9F9F9"/>
<path d="M85.657 143.947H88.1914V141.407H85.657V143.947Z" fill="#DBDBDB"/>
<path d="M80.7508 143.947H83.2852V141.407H80.7508V143.947Z" fill="#DBDBDB"/>
<path d="M75.8406 143.947H78.375V141.407H75.8406V143.947Z" fill="#F9F9F9"/>
<path d="M90.5593 148.566H93.0938V146.026H90.5593V148.566Z" fill="#DBDBDB"/>
<path d="M85.657 148.566H88.1914V146.026H85.657V148.566Z" fill="#F9F9F9"/>
<path d="M80.7508 148.566H83.2852V146.026H80.7508V148.566Z" fill="#F9F9F9"/>
<path d="M75.8406 148.566H78.375V146.026H75.8406V148.566Z" fill="#DBDBDB"/>
<path d="M90.5593 153.179H93.0938V150.638H90.5593V153.179Z" fill="#DBDBDB"/>
<path d="M85.657 153.179H88.1914V150.638H85.657V153.179Z" fill="#F9F9F9"/>
<path d="M80.7508 153.179H83.2852V150.638H80.7508V153.179Z" fill="#DBDBDB"/>
<path d="M75.8406 153.179H78.375V150.638H75.8406V153.179Z" fill="#F9F9F9"/>
<path d="M90.5593 157.798H93.0938V155.257H90.5593V157.798Z" fill="#F9F9F9"/>
<path d="M85.657 157.798H88.1914V155.257H85.657V157.798Z" fill="#F9F9F9"/>
<path d="M80.7508 157.798H83.2852V155.257H80.7508V157.798Z" fill="#DBDBDB"/>
<path d="M75.8406 157.798H78.375V155.257H75.8406V157.798Z" fill="#DBDBDB"/>
<path d="M233.816 138.783H216.082V160.594H233.816V138.783Z" fill="#DBDBDB"/>
<path d="M217.625 141.209H221.747H222.886H224.019V143.48H222.886H221.747H217.625V141.209Z" fill="#EDEDED"/>
<path d="M217.625 145.615H221.747H222.886H224.019V147.893H222.886H221.747H217.625V145.615Z" fill="#F9F9F9"/>
<path d="M217.625 150.023H221.747H222.886H224.019V152.301H222.886H221.747H217.625V150.023Z" fill="#EDEDED"/>
<path d="M217.625 154.43H221.747H223.5H224.019V156.707H223.5H221.747H217.625V154.43Z" fill="#F9F9F9"/>
<path d="M225.875 141.209H230.003H231.136H232.269V143.48H231.136H230.003H225.875V141.209Z" fill="#F9F9F9"/>
<path d="M225.875 145.615H230.003H231.603H232.269V147.893H231.603H230.003H225.875V145.615Z" fill="#F9F9F9"/>
<path d="M225.875 150.023H230.003H231.136H232.269V152.301H231.136H230.003H225.875V150.023Z" fill="#EDEDED"/>
<path d="M225.875 154.43H230.003H231.136H232.269V156.707H231.136H230.003H225.875V154.43Z" fill="#F9F9F9"/>
<path d="M148.357 147.047H132.242V160.602H148.357V147.047Z" fill="#DBDBDB"/>
<path d="M145.267 150.806H147.328V148.74H145.267V150.806Z" fill="#F9F9F9"/>
<path d="M141.275 150.806H143.336V148.74H141.275V150.806Z" fill="#F9F9F9"/>
<path d="M137.275 150.806H139.336V148.74H137.275V150.806Z" fill="#F9F9F9"/>
<path d="M133.279 150.806H135.34V148.74H133.279V150.806Z" fill="#F9F9F9"/>
<path d="M145.267 154.559H147.328V152.493H145.267V154.559Z" fill="#F9F9F9"/>
<path d="M141.275 154.559H143.336V152.493H141.275V154.559Z" fill="#F9F9F9"/>
<path d="M137.275 154.559H139.336V152.493H137.275V154.559Z" fill="#F9F9F9"/>
<path d="M133.279 154.559H135.34V152.493H133.279V154.559Z" fill="#EDEDED"/>
<path d="M145.267 158.317H147.328V156.252H145.267V158.317Z" fill="#EDEDED"/>
<path d="M141.275 158.317H143.336V156.252H141.275V158.317Z" fill="#EDEDED"/>
<path d="M137.275 158.317H139.336V156.252H137.275V158.317Z" fill="#F9F9F9"/>
<path d="M133.279 158.317H135.34V156.252H133.279V158.317Z" fill="#EDEDED"/>
<path d="M130.061 137.026H113.945V160.602H130.061V137.026Z" fill="#DBDBDB"/>
<path d="M129.03 138.059H122.969V143.883H129.03V138.059Z" fill="#F9F9F9"/>
<path d="M121.037 138.059H114.977V143.883H121.037V138.059Z" fill="#F9F9F9"/>
<path d="M129.03 145.57H122.969V151.395H129.03V145.57Z" fill="#F9F9F9"/>
<path d="M121.037 145.57H114.977V151.395H121.037V145.57Z" fill="#F9F9F9"/>
<path d="M129.03 153.083H122.969V158.908H129.03V153.083Z" fill="#F9F9F9"/>
<path d="M121.037 153.083H114.977V158.908H121.037V153.083Z" fill="#F9F9F9"/>
<path d="M160 239C228.533 239 284.089 235.749 284.089 231.738C284.089 227.728 228.533 224.477 160 224.477C91.467 224.477 35.9102 227.728 35.9102 231.738C35.9102 235.749 91.467 239 160 239Z" fill="#F9F9F9"/>
<path d="M284.525 15.7871V157.073L267.565 174.073H169.383V15.7871H284.525Z" fill="#4674EA"/>
<path opacity="0.8" d="M284.525 15.7871V157.073L267.565 174.073H169.383V15.7871H284.525Z" fill="white"/>
<path opacity="0.2" d="M267.566 174.073V157.573H284.526L267.899 174.24" fill="black"/>
<path opacity="0.1" d="M212.956 29.5087H181.199C180.752 29.5087 180.324 29.3309 180.009 29.0145C179.693 28.6981 179.516 28.269 179.516 27.8215C179.515 27.5994 179.558 27.3793 179.642 27.1739C179.726 26.9685 179.85 26.7817 180.006 26.6244C180.163 26.467 180.349 26.3422 180.553 26.257C180.758 26.1718 180.977 26.1279 181.199 26.1279H212.956C213.403 26.1296 213.831 26.3088 214.146 26.6262C214.462 26.9437 214.639 27.3735 214.639 27.8215C214.639 28.269 214.462 28.6981 214.146 29.0145C213.83 29.3309 213.402 29.5087 212.956 29.5087Z" fill="black"/>
<path opacity="0.1" d="M270.553 43.1991H193.996C193.774 43.1991 193.555 43.1553 193.35 43.0701C193.145 42.9849 192.96 42.86 192.803 42.7027C192.647 42.5453 192.523 42.3586 192.439 42.1531C192.355 41.9477 192.312 41.7276 192.313 41.5055C192.313 41.0581 192.49 40.6289 192.806 40.3125C193.121 39.9961 193.549 39.8184 193.996 39.8184H270.553C270.999 39.8184 271.427 39.9961 271.743 40.3125C272.058 40.6289 272.236 41.0581 272.236 41.5055C272.236 41.9536 272.059 42.3834 271.743 42.7008C271.428 43.0182 271 43.1974 270.553 43.1991Z" fill="black"/>
<path opacity="0.1" d="M270.556 49.8514H181.199C180.752 49.8514 180.324 49.6737 180.009 49.3573C179.693 49.0409 179.516 48.6117 179.516 48.1643C179.515 47.9422 179.558 47.7221 179.642 47.5167C179.726 47.3112 179.85 47.1245 180.006 46.9671C180.163 46.8098 180.349 46.6849 180.553 46.5997C180.758 46.5146 180.977 46.4707 181.199 46.4707H270.556C271.003 46.4724 271.431 46.6516 271.746 46.969C272.062 47.2864 272.239 47.7162 272.239 48.1643C272.239 48.6117 272.062 49.0409 271.746 49.3573C271.43 49.6737 271.002 49.8514 270.556 49.8514Z" fill="black"/>
<path opacity="0.1" d="M270.556 57.37H181.199C180.977 57.37 180.758 57.3262 180.553 57.241C180.349 57.1558 180.163 57.0309 180.006 56.8736C179.85 56.7162 179.726 56.5295 179.642 56.324C179.558 56.1186 179.515 55.8985 179.516 55.6764C179.516 55.229 179.693 54.7998 180.009 54.4834C180.324 54.167 180.752 53.9893 181.199 53.9893H270.556C271.002 53.9893 271.43 54.167 271.746 54.4834C272.062 54.7998 272.239 55.229 272.239 55.6764C272.239 56.1245 272.062 56.5543 271.746 56.8717C271.431 57.1891 271.003 57.3683 270.556 57.37Z" fill="black"/>
<path opacity="0.1" d="M270.556 64.8821H181.199C180.752 64.8821 180.324 64.7044 180.009 64.388C179.693 64.0716 179.516 63.6424 179.516 63.195C179.516 62.7475 179.693 62.3184 180.009 62.002C180.324 61.6856 180.752 61.5078 181.199 61.5078H270.556C271.002 61.5078 271.43 61.6856 271.746 62.002C272.062 62.3184 272.239 62.7475 272.239 63.195C272.239 63.6424 272.062 64.0716 271.746 64.388C271.43 64.7044 271.002 64.8821 270.556 64.8821Z" fill="black"/>
<path opacity="0.1" d="M270.556 72.3997H181.199C180.752 72.3997 180.324 72.222 180.009 71.9056C179.693 71.5892 179.516 71.16 179.516 70.7126C179.515 70.4908 179.558 70.271 179.642 70.0659C179.726 69.8608 179.85 69.6745 180.007 69.5177C180.163 69.3608 180.349 69.2366 180.554 69.1521C180.758 69.0676 180.978 69.0246 181.199 69.0254H270.556C271.002 69.0254 271.43 69.2032 271.746 69.5196C272.062 69.836 272.239 70.2651 272.239 70.7126C272.239 71.16 272.062 71.5892 271.746 71.9056C271.43 72.222 271.002 72.3997 270.556 72.3997Z" fill="black"/>
<path opacity="0.1" d="M270.556 79.9188H181.199C180.752 79.9188 180.324 79.7411 180.009 79.4247C179.693 79.1083 179.516 78.6791 179.516 78.2317C179.515 78.0096 179.558 77.7895 179.642 77.584C179.726 77.3786 179.85 77.1919 180.006 77.0345C180.163 76.8772 180.349 76.7523 180.553 76.6671C180.758 76.5819 180.977 76.5381 181.199 76.5381H270.556C271.003 76.5398 271.431 76.719 271.746 77.0364C272.062 77.3538 272.239 77.7836 272.239 78.2317C272.239 78.6791 272.062 79.1083 271.746 79.4247C271.43 79.7411 271.002 79.9188 270.556 79.9188Z" fill="black"/>
<path opacity="0.1" d="M270.562 84.0566H181.199C180.269 84.0566 179.516 84.812 179.516 85.7438V85.7502C179.516 86.682 180.269 87.4374 181.199 87.4374H270.562C271.492 87.4374 272.245 86.682 272.245 85.7502V85.7438C272.245 84.812 271.492 84.0566 270.562 84.0566Z" fill="black"/>
<path opacity="0.1" d="M270.556 94.9427H181.199C180.752 94.9427 180.324 94.7649 180.009 94.4485C179.693 94.1321 179.516 93.703 179.516 93.2555C179.516 92.8081 179.693 92.3789 180.009 92.0625C180.324 91.7461 180.752 91.5684 181.199 91.5684H270.556C271.002 91.5684 271.43 91.7461 271.746 92.0625C272.062 92.3789 272.239 92.8081 272.239 93.2555C272.239 93.703 272.062 94.1321 271.746 94.4485C271.43 94.7649 271.002 94.9427 270.556 94.9427Z" fill="black"/>
<path opacity="0.1" d="M270.556 102.468H181.199C180.752 102.468 180.324 102.29 180.009 101.974C179.693 101.658 179.516 101.228 179.516 100.781C179.515 100.559 179.558 100.339 179.642 100.134C179.726 99.9292 179.85 99.7429 180.007 99.586C180.163 99.4292 180.349 99.305 180.554 99.2205C180.758 99.136 180.978 99.0929 181.199 99.0938H270.556C271.002 99.0938 271.43 99.2715 271.746 99.5879C272.062 99.9043 272.239 100.333 272.239 100.781C272.239 101.228 272.062 101.658 271.746 101.974C271.43 102.29 271.002 102.468 270.556 102.468Z" fill="black"/>
<path opacity="0.1" d="M270.556 109.986H181.199C180.752 109.986 180.324 109.808 180.009 109.492C179.693 109.176 179.516 108.747 179.516 108.299C179.515 108.077 179.558 107.857 179.642 107.651C179.726 107.446 179.85 107.259 180.006 107.102C180.163 106.945 180.349 106.82 180.553 106.735C180.758 106.649 180.977 106.605 181.199 106.605H270.556C271.003 106.607 271.431 106.786 271.746 107.104C272.062 107.421 272.239 107.851 272.239 108.299C272.239 108.747 272.062 109.176 271.746 109.492C271.43 109.808 271.002 109.986 270.556 109.986Z" fill="black"/>
<path opacity="0.1" d="M270.556 117.505H181.199C180.977 117.505 180.758 117.461 180.553 117.376C180.349 117.291 180.163 117.166 180.006 117.008C179.85 116.851 179.726 116.664 179.642 116.459C179.558 116.253 179.515 116.033 179.516 115.811C179.516 115.364 179.693 114.935 180.009 114.618C180.324 114.302 180.752 114.124 181.199 114.124H270.556C271.002 114.124 271.43 114.302 271.746 114.618C272.062 114.935 272.239 115.364 272.239 115.811C272.239 116.259 272.062 116.689 271.746 117.006C271.431 117.324 271.003 117.503 270.556 117.505Z" fill="black"/>
<path opacity="0.1" d="M219.356 125.017H181.199C180.752 125.017 180.324 124.839 180.009 124.523C179.693 124.206 179.516 123.777 179.516 123.33C179.516 122.882 179.693 122.453 180.009 122.137C180.324 121.82 180.752 121.643 181.199 121.643H219.356C219.802 121.643 220.23 121.82 220.546 122.137C220.862 122.453 221.039 122.882 221.039 123.33C221.039 123.777 220.862 124.206 220.546 124.523C220.23 124.839 219.802 125.017 219.356 125.017Z" fill="black"/>
<path d="M257.215 209.908C257.215 209.908 253.004 200.708 257.81 191.631C262.617 182.554 264.018 180.418 260.953 178.564C257.887 176.71 256.473 185.819 256.473 185.819C256.473 185.819 253.913 179.545 256.018 172.989C258.124 166.433 259.494 155.732 256.582 154.584C253.67 153.436 256.025 167.921 253.497 172.861C252.208 169.393 251.375 165.773 251.02 162.09C250.674 156.816 251.218 148.4 248.914 146.238C246.61 144.076 245.145 145.597 247.404 157.208C248.762 164.162 249.514 171.222 249.65 178.307C249.65 178.307 244.652 163.039 241.33 162.596C238.009 162.154 237.983 167.087 240.857 171.379C243.73 175.67 249.234 183.343 250.137 187.32C250.137 187.32 244.658 175.837 239.724 179.353C234.79 182.868 244.018 189.816 248.127 192.324C252.236 194.832 255.097 210.543 255.097 210.543L257.215 209.908Z" fill="#4674EA"/>
<path opacity="0.2" d="M257.215 209.908C257.215 209.908 253.004 200.708 257.81 191.631C262.617 182.554 264.018 180.418 260.953 178.564C257.887 176.71 256.473 185.819 256.473 185.819C256.473 185.819 253.913 179.545 256.018 172.989C258.124 166.433 259.494 155.732 256.582 154.584C253.67 153.436 256.025 167.921 253.497 172.861C252.208 169.393 251.375 165.773 251.02 162.09C250.674 156.816 251.218 148.4 248.914 146.238C246.61 144.076 245.145 145.597 247.404 157.208C248.762 164.162 249.514 171.222 249.65 178.307C249.65 178.307 244.652 163.039 241.33 162.596C238.009 162.154 237.983 167.087 240.857 171.379C243.73 175.67 249.234 183.343 250.137 187.32C250.137 187.32 244.658 175.837 239.724 179.353C234.79 182.868 244.018 189.816 248.127 192.324C252.236 194.832 255.097 210.543 255.097 210.543L257.215 209.908Z" fill="black"/>
<path d="M253.886 213.686C253.886 213.686 257.988 204.416 253.073 195.416C248.158 186.415 246.73 184.298 249.777 182.393C252.823 180.488 254.334 189.584 254.334 189.584C254.334 189.584 256.842 183.278 254.634 176.754C252.426 170.23 250.954 159.549 253.854 158.362C256.753 157.175 254.57 171.693 257.156 176.587C258.405 173.105 259.192 169.473 259.498 165.784C259.786 160.505 259.14 152.095 261.418 149.901C263.697 147.707 265.188 149.182 263.063 160.851C261.79 167.822 261.124 174.89 261.073 181.976C261.073 181.976 265.886 166.638 269.233 166.144C272.58 165.65 272.631 170.589 269.815 174.92C266.999 179.25 261.559 187.012 260.695 190.957C260.695 190.957 266.039 179.41 271.012 182.842C275.985 186.274 266.846 193.363 262.769 195.929C258.692 198.495 255.998 214.263 255.998 214.263L253.886 213.686Z" fill="#4674EA"/>
<path d="M272.793 207.078H238.938L241.677 231.366H270.054L272.793 207.078Z" fill="#535353"/>
<path d="M113.058 36.0498H78.9668C77.6536 36.0498 76.3943 36.5727 75.4658 37.5034C74.5373 38.4341 74.0156 39.6964 74.0156 41.0126V74.235C74.0156 75.5512 74.5373 76.8135 75.4658 77.7443C76.3943 78.675 77.6536 79.1978 78.9668 79.1978H89.8749L82.5312 89.2017L95.2264 79.1978H113.049C114.362 79.1978 115.621 78.675 116.55 77.7443C117.478 76.8135 118 75.5512 118 74.235V41.0126C118 39.6981 117.479 38.4373 116.553 37.5068C115.627 36.5764 114.37 36.0524 113.058 36.0498Z" fill="#4674EA"/>
<path opacity="0.6" d="M113.058 36.0498H78.9668C77.6536 36.0498 76.3943 36.5727 75.4658 37.5034C74.5373 38.4341 74.0156 39.6964 74.0156 41.0126V74.235C74.0156 75.5512 74.5373 76.8135 75.4658 77.7443C76.3943 78.675 77.6536 79.1978 78.9668 79.1978H89.8749L82.5312 89.2017L95.2264 79.1978H113.049C114.362 79.1978 115.621 78.675 116.55 77.7443C117.478 76.8135 118 75.5512 118 74.235V41.0126C118 39.6981 117.479 38.4373 116.553 37.5068C115.627 36.5764 114.37 36.0524 113.058 36.0498Z" fill="white"/>
<path d="M96.0175 73.1382C104.566 73.1382 111.496 66.1919 111.496 57.6233C111.496 49.0546 104.566 42.1084 96.0175 42.1084C87.469 42.1084 80.5391 49.0546 80.5391 57.6233C80.5391 66.1919 87.469 73.1382 96.0175 73.1382Z" fill="#4674EA"/>
<path opacity="0.2" d="M108.928 60.6695C110.612 53.5191 106.194 46.3544 99.0605 44.6667C91.9269 42.9791 84.7791 47.4075 83.0954 54.5579C81.4118 61.7083 85.8298 68.873 92.9634 70.5606C100.097 72.2483 107.245 67.8199 108.928 60.6695Z" fill="black"/>
<path d="M94.3683 63.977C94.1885 63.9808 94.0096 63.9491 93.8421 63.8836C93.6745 63.8181 93.5215 63.7201 93.3917 63.5952L87.757 58.0647C87.498 57.8128 87.3494 57.4682 87.3439 57.1066C87.3384 56.7449 87.4765 56.3959 87.7277 56.1363C87.9789 55.8767 88.3228 55.7278 88.6835 55.7223C89.0443 55.7167 89.3925 55.8551 89.6515 56.107L94.2706 60.6391L102.259 51.7021C102.504 51.4547 102.834 51.3109 103.182 51.3004C103.529 51.29 103.868 51.4136 104.127 51.6459C104.386 51.8782 104.547 52.2014 104.575 52.5488C104.604 52.8962 104.498 53.2413 104.28 53.513L95.3448 63.5071C95.2216 63.6453 95.0713 63.7566 94.9033 63.8341C94.7353 63.9115 94.5532 63.9535 94.3683 63.9574V63.977Z" fill="white"/>
<path d="M59.4572 216.779L77.8956 214.957V194.114H85.2044V214.95L103.72 216.779C104.607 216.865 105.43 217.279 106.029 217.941C106.628 218.603 106.959 219.465 106.958 220.358V223.136H56.2188V220.358C56.2178 219.465 56.549 218.603 57.1478 217.941C57.7466 217.279 58.5699 216.865 59.4572 216.779Z" fill="#535353"/>
<path opacity="0.1" d="M59.4572 216.779L77.8956 214.957V194.114H85.2044V214.95L103.72 216.779C104.607 216.865 105.43 217.279 106.029 217.941C106.628 218.603 106.959 219.465 106.958 220.358V223.136H56.2188V220.358C56.2178 219.465 56.549 218.603 57.1478 217.941C57.7466 217.279 58.5699 216.865 59.4572 216.779Z" fill="white"/>
<path d="M105.007 231.366C107.648 231.366 109.788 229.221 109.788 226.574C109.788 223.928 107.648 221.782 105.007 221.782C102.367 221.782 100.227 223.928 100.227 226.574C100.227 229.221 102.367 231.366 105.007 231.366Z" fill="#535353"/>
<path d="M58.1714 231.366C60.8118 231.366 62.9522 229.221 62.9522 226.574C62.9522 223.928 60.8118 221.782 58.1714 221.782C55.5311 221.782 53.3906 223.928 53.3906 226.574C53.3906 229.221 55.5311 231.366 58.1714 231.366Z" fill="#535353"/>
<path d="M83.8138 199.695H79.257C78.556 199.695 77.8837 199.416 77.388 198.919C76.8923 198.422 76.6138 197.749 76.6138 197.046V176.556H86.457V197.046C86.457 197.749 86.1786 198.422 85.6829 198.919C85.1872 199.416 84.5149 199.695 83.8138 199.695Z" fill="#535353"/>
<path opacity="0.2" d="M83.8138 199.695H79.257C78.556 199.695 77.8837 199.416 77.388 198.919C76.8923 198.422 76.6138 197.749 76.6138 197.046V176.556H86.457V197.046C86.457 197.749 86.1786 198.422 85.6829 198.919C85.1872 199.416 84.5149 199.695 83.8138 199.695Z" fill="white"/>
<path d="M56.0256 136.397C56.0256 136.397 61.504 170.641 72.32 176.562H61.3248C61.3248 176.562 50.4448 164.887 47.168 136.397H56.0256Z" fill="#535353"/>
<path opacity="0.1" d="M56.0256 136.397C56.0256 136.397 61.504 170.641 72.32 176.562H61.3248C61.3248 176.562 50.4448 164.887 47.168 136.397H56.0256Z" fill="white"/>
<path d="M60.8016 171.719H103.63C104.479 171.719 105.293 172.057 105.893 172.658C106.493 173.26 106.83 174.076 106.83 174.926V179.218H57.6016V174.926C57.6016 174.076 57.9387 173.26 58.5388 172.658C59.1389 172.057 59.9529 171.719 60.8016 171.719Z" fill="#4674EA"/>
<path d="M107.572 175.466H56.8137C56.1033 175.466 55.5273 176.043 55.5273 176.755V177.923C55.5273 178.635 56.1033 179.212 56.8137 179.212H107.572C108.283 179.212 108.859 178.635 108.859 177.923V176.755C108.859 176.043 108.283 175.466 107.572 175.466Z" fill="#535353"/>
<path opacity="0.6" d="M107.572 175.466H56.8137C56.1033 175.466 55.5273 176.043 55.5273 176.755V177.923C55.5273 178.635 56.1033 179.212 56.8137 179.212H107.572C108.283 179.212 108.859 178.635 108.859 177.923V176.755C108.859 176.043 108.283 175.466 107.572 175.466Z" fill="white"/>
<path d="M45.87 143.364H63.4636C68.622 143.364 71.9692 139.22 70.9452 134.107L69.5756 127.282C68.5516 122.15 63.5404 118.031 58.3884 118.031H40.7948C35.6364 118.031 32.2892 122.175 33.3132 127.282L34.6828 134.107C35.7068 139.207 40.7116 143.364 45.87 143.364Z" fill="#4674EA"/>
<path d="M139.228 200.722L135.196 202.307L132.297 196.828L129.66 191.844L134.127 189.162L136.828 195.276L139.228 200.722Z" fill="#FFF4EB"/>
<path opacity="0.2" d="M136.828 195.276L132.297 196.828L129.66 191.844L134.127 189.162L136.828 195.276Z" fill="black"/>
<path d="M135.989 192.286L130.504 195.237C130.504 195.237 109.775 158.703 106.588 159.011C103.4 159.319 73.1604 178.628 63.938 171.495C54.7156 164.361 63.6884 142.884 63.6884 142.884C63.6884 142.884 82.7668 137.418 84.8084 141.601C85.3465 142.853 85.804 144.139 86.178 145.45C86.5812 146.765 86.8884 147.874 86.8884 147.874C87.4708 147.637 106.312 139.894 114.722 144.025C123.304 148.272 135.989 192.286 135.989 192.286Z" fill="#535353"/>
<path opacity="0.3" d="M135.989 192.286L130.504 195.237C130.504 195.237 109.775 158.703 106.588 159.011C103.4 159.319 73.1604 178.628 63.938 171.495C54.7156 164.361 63.6884 142.884 63.6884 142.884C63.6884 142.884 82.7668 137.418 84.8084 141.601C85.3465 142.853 85.804 144.139 86.178 145.45C86.5812 146.765 86.8884 147.874 86.8884 147.874C87.4708 147.637 106.312 139.894 114.722 144.025C123.304 148.272 135.989 192.286 135.989 192.286Z" fill="white"/>
<path d="M106.188 222.077L101.887 221.583L101.862 215.502L101.855 209.921L107.059 209.677L106.598 216.239L106.188 222.077Z" fill="#FFF4EB"/>
<path opacity="0.2" d="M106.588 216.375L101.852 215.618V209.979L107.055 209.703L106.588 216.375Z" fill="black"/>
<path d="M127.82 193.421L135.846 189.393L136.684 192.805L130.604 195.949L127.82 193.421Z" fill="#4674EA"/>
<path d="M78.1836 171.552C78.1836 171.552 79.502 171.404 99.7836 167.639C99.7836 167.639 100.244 193.633 101.204 213.013L107.451 213.211C107.451 213.211 116.411 170.23 115.355 163.713C114.299 157.195 106.593 156.342 106.593 156.342C106.593 156.342 93.2108 166.792 78.1836 171.552Z" fill="#535353"/>
<path opacity="0.4" d="M78.1836 171.552C78.1836 171.552 79.502 171.404 99.7836 167.639C99.7836 167.639 100.244 193.633 101.204 213.013L107.451 213.211C107.451 213.211 116.411 170.23 115.355 163.713C114.299 157.195 106.593 156.342 106.593 156.342C106.593 156.342 93.2108 166.792 78.1836 171.552Z" fill="white"/>
<path opacity="0.3" d="M78.1836 171.552C78.1836 171.552 79.502 171.404 99.7836 167.639C99.7836 167.639 100.244 193.633 101.204 213.013L107.451 213.211C107.451 213.211 116.411 170.23 115.355 163.713C114.299 157.195 106.593 156.342 106.593 156.342C106.593 156.342 93.2108 166.792 78.1836 171.552Z" fill="black"/>
<path d="M100.059 211.281L108.577 211.082L107.412 214.597L100.5 214.662L100.059 211.281Z" fill="#4674EA"/>
<path opacity="0.3" d="M86.9122 147.887L75.8594 151.832C75.8594 151.832 81.6706 147.483 86.2018 145.462C86.605 146.777 86.9122 147.887 86.9122 147.887Z" fill="black"/>
<path d="M62.4062 141.562L62.8158 144.635L83.5327 140.228L83.0527 136.597L62.4062 141.562Z" fill="#535353"/>
<path opacity="0.2" d="M62.4062 141.562L62.8158 144.635L83.5327 140.228L83.0527 136.597L62.4062 141.562Z" fill="black"/>
<path d="M69.2703 139.33L68.2383 139.521L69.2131 144.788L70.2451 144.596L69.2703 139.33Z" fill="#535353"/>
<path d="M78.3054 137.996L73.7852 139.018L74.5576 142.453L79.0779 141.432L78.3054 137.996Z" fill="white"/>
<path d="M81.2122 135.851L80.1836 136.04L81.1455 141.289L82.1741 141.1L81.2122 135.851Z" fill="#535353"/>
<path opacity="0.3" d="M69.2703 139.33L68.2383 139.521L69.2131 144.788L70.2451 144.596L69.2703 139.33Z" fill="white"/>
<path opacity="0.3" d="M81.2122 135.851L80.1836 136.04L81.1455 141.289L82.1741 141.1L81.2122 135.851Z" fill="white"/>
<path d="M147.238 207.894C146.566 207.687 145.86 207.606 145.158 207.656C145.158 207.656 142.554 206.566 139.398 201.376L136.71 201.729C136.258 201.797 135.837 202.003 135.505 202.318C135.174 202.634 134.946 203.044 134.854 203.493C134.835 203.621 134.835 203.75 134.854 203.878C134.97 204.529 135.128 205.172 135.328 205.802C136.017 207.888 136.831 209.929 137.766 211.916L138.202 211.736L136.813 207.849C136.352 206.521 137.958 207.643 138.81 208.927C139.661 210.21 140.87 211.454 143.744 210.364C147.085 209.055 148.41 208.362 147.238 207.894Z" fill="#535353"/>
<path d="M138.727 199.997C138.727 199.997 143.04 206.566 145.159 207.657C145.159 207.657 142.784 209.581 139.616 206.489C135.527 202.518 134.842 203.878 134.842 203.878C134.805 203.1 134.842 202.321 134.951 201.55C135.277 200.042 138.727 199.997 138.727 199.997Z" fill="#FFF4EB"/>
<path d="M112.64 229.724C112.027 229.37 111.355 229.131 110.656 229.019C110.656 229.019 108.384 227.344 106.56 221.558L103.866 221.263C103.408 221.219 102.949 221.32 102.551 221.549C102.153 221.779 101.837 222.128 101.645 222.546C101.587 222.661 101.549 222.784 101.53 222.911C101.485 223.567 101.485 224.225 101.53 224.881C101.703 227.07 102.011 229.247 102.451 231.399L102.918 231.328L102.502 227.21C102.368 225.811 103.667 227.287 104.192 228.736C104.717 230.186 105.594 231.681 108.64 231.302C112.198 230.821 113.645 230.462 112.64 229.724Z" fill="#535353"/>
<path d="M106.239 220.038C106.239 220.038 108.876 227.447 110.674 229.019C110.674 229.019 107.916 230.302 105.554 226.568C102.514 221.738 101.535 222.899 101.535 222.899C101.678 222.136 101.893 221.389 102.175 220.666C102.854 219.255 106.239 220.038 106.239 220.038Z" fill="#FFF4EB"/>
<path d="M57.8947 89.1694L52.4803 90.26C52.2687 90.4386 52.0189 90.5657 51.7502 90.6313C51.4815 90.697 51.2012 90.6994 50.9315 90.6385C49.3187 89.9969 46.9955 88.1173 46.7011 87.4309C46.2659 86.4622 46.7011 83.6204 47.8403 83.1072C48.9795 82.594 52.9027 87.3411 52.9027 87.3411L58.7203 86.026L57.8947 89.1694Z" fill="#FFF4EB"/>
<path d="M74.9697 107.209C74.9697 107.209 74.4769 89.6256 72.4481 88.8751C70.4193 88.1245 55.1681 90.2222 55.1681 90.2222L54.7969 86.2064C54.7969 86.2064 72.5441 83.4672 75.9809 85.0902C79.4177 86.7132 80.5505 112.919 79.9233 117.967L74.9697 107.209Z" fill="#4674EA"/>
<path opacity="0.6" d="M74.9697 107.209C74.9697 107.209 74.4769 89.6256 72.4481 88.8751C70.4193 88.1245 55.1681 90.2222 55.1681 90.2222L54.7969 86.2064C54.7969 86.2064 72.5441 83.4672 75.9809 85.0902C79.4177 86.7132 80.5505 112.919 79.9233 117.967L74.9697 107.209Z" fill="white"/>
<path d="M55.4296 90.6069L54.3672 86.1933L55.8904 85.6416L56.8568 90.7416L55.4296 90.6069Z" fill="#4674EA"/>
<path opacity="0.7" d="M55.4296 90.6069L54.3672 86.1933L55.8904 85.6416L56.8568 90.7416L55.4296 90.6069Z" fill="white"/>
<path d="M74.8811 105.016C74.8811 105.016 73.5179 110.366 66.9515 112.072C60.3851 113.779 53.1211 109.32 53.1211 109.32L54.5675 122.086L62.6059 142.197L83.1499 136.828C83.1499 136.828 81.9211 113.432 74.8811 105.016Z" fill="#4674EA"/>
<path opacity="0.7" d="M74.8811 105.016C74.8811 105.016 73.5179 110.366 66.9515 112.072C60.3851 113.779 53.1211 109.32 53.1211 109.32L54.5675 122.086L62.6059 142.197L83.1499 136.828C83.1499 136.828 81.9211 113.432 74.8811 105.016Z" fill="white"/>
<path opacity="0.6" d="M78.4529 126.229L80.8577 125.469C81.124 125.385 81.2717 125.1 81.1877 124.833L79.7551 120.281C79.6711 120.015 79.3871 119.866 79.1208 119.951L76.716 120.711C76.4497 120.795 76.302 121.08 76.386 121.347L77.8186 125.899C77.9026 126.165 78.1866 126.314 78.4529 126.229Z" fill="#4674EA"/>
<path opacity="0.2" d="M77.961 124.842L80.6953 123.978L79.5149 120.227L76.7806 121.092L77.961 124.842Z" fill="black"/>
<path d="M77.8699 118.871L77.2656 119.062L77.9608 121.271L78.565 121.08L77.8699 118.871Z" fill="#535353"/>
<path d="M60.9153 85.0322C55.8529 85.0322 52.5121 90.4081 53.6961 98.9337C54.8801 107.459 59.6225 109.916 59.6225 109.916L59.3217 107.857C64.5864 109.055 70.0143 109.358 75.3793 108.755C75.3793 108.755 72.9345 101.801 73.7281 94.6998C73.7281 94.6998 75.3345 85.0194 60.9153 85.0322Z" fill="#535353"/>
<path opacity="0.2" d="M70.9694 110.34L73.0366 118.038L69.4014 115.26C69.4014 115.26 72.9406 123.369 73.8814 128.09C73.8814 128.09 70.8222 120.052 68.1854 115.645L66.643 120.058L60.4414 113.727C60.4414 113.727 65.9198 109.519 70.9694 110.34Z" fill="black"/>
<path d="M67.9485 112.823L61.6381 113.015C64.4349 109.429 59.3789 103.181 59.3789 103.181L65.6125 104.534C67.0973 110.718 69.6637 110.904 69.6637 110.904L67.9485 112.823Z" fill="#FFF4EB"/>
<path opacity="0.2" d="M67.3533 108.973C64.9454 108.771 62.7058 107.654 61.0941 105.849C60.5962 104.922 60.0225 104.038 59.3789 103.206L65.6125 104.566C65.9426 106.122 66.5311 107.612 67.3533 108.973Z" fill="black"/>
<path d="M65.6094 87.6427C71.0429 88.0982 72.5533 91.1582 72.4829 96.8099C72.3997 103.866 70.4286 108.723 63.7598 106.657C54.6974 103.854 56.579 86.8858 65.6094 87.6427Z" fill="#FFF4EB"/>
<path d="M68.9919 96.2266C69.3599 97.0772 69.8283 97.8806 70.3871 98.6194C70.2082 98.8297 69.9753 98.987 69.7135 99.0741C69.4518 99.1612 69.1712 99.1747 68.9023 99.1133L68.9919 96.2266Z" fill="#FFF4EB"/>
<path d="M65.3125 95.3156L66.4901 94.9307C66.4901 94.9307 65.8629 95.8673 65.3125 95.3156Z" fill="#535353"/>
<path d="M65.7214 95.1814C65.5025 95.0735 65.2518 95.0492 65.0163 95.1129C64.7808 95.1767 64.5764 95.3241 64.4414 95.5278C64.6423 95.436 64.8606 95.3884 65.0814 95.3884C65.3022 95.3884 65.5205 95.436 65.7214 95.5278V95.1814Z" fill="#535353"/>
<path d="M63.5353 92.5829C63.4747 92.5813 63.4173 92.556 63.3753 92.5123C63.353 92.4913 63.3352 92.4659 63.3231 92.4378C63.3109 92.4097 63.3047 92.3794 63.3047 92.3487C63.3047 92.3181 63.3109 92.2877 63.3231 92.2596C63.3352 92.2315 63.353 92.2061 63.3753 92.1851C63.7321 91.8722 64.1567 91.6468 64.6154 91.5265C65.0741 91.4063 65.5544 91.3946 66.0185 91.4923C66.0787 91.5051 66.1314 91.5413 66.1651 91.593C66.1987 91.6447 66.2104 91.7077 66.1977 91.7681C66.1849 91.8285 66.1488 91.8814 66.0972 91.9151C66.0456 91.9488 65.9827 91.9605 65.9225 91.9478C65.5352 91.8685 65.1352 91.8775 64.7519 91.9741C64.3686 92.0707 64.0118 92.2524 63.7081 92.5059C63.6866 92.5306 63.66 92.5502 63.6302 92.5635C63.6003 92.5768 63.5679 92.5834 63.5353 92.5829Z" fill="#535353"/>
<path d="M72.0568 92.6792C72.0061 92.6812 71.9563 92.6653 71.916 92.6343C71.6599 92.399 71.3547 92.224 71.0225 92.1219C70.6904 92.0198 70.3397 91.9932 69.996 92.0441C69.9666 92.0521 69.9359 92.0543 69.9057 92.0504C69.8754 92.0465 69.8463 92.0366 69.8198 92.0215C69.7934 92.0063 69.7702 91.986 69.7515 91.9618C69.7329 91.9377 69.7192 91.91 69.7112 91.8806C69.7032 91.8511 69.7011 91.8203 69.705 91.79C69.7089 91.7597 69.7187 91.7304 69.7338 91.7039C69.749 91.6774 69.7692 91.6542 69.7933 91.6355C69.8175 91.6168 69.845 91.6031 69.8744 91.5951C70.2893 91.5215 70.7154 91.544 71.1202 91.6607C71.5251 91.7775 71.898 91.9854 72.2104 92.2687C72.2578 92.3076 72.2883 92.3635 72.2955 92.4245C72.3026 92.4855 72.2859 92.5469 72.2488 92.5958C72.2257 92.6239 72.1962 92.6461 72.1628 92.6606C72.1294 92.6751 72.0931 92.6815 72.0568 92.6792Z" fill="#535353"/>
<path d="M58.8812 96.3291C58.8812 96.3291 61.7932 92.0695 61.6972 88.5797C61.6972 88.5797 72.8396 85.0642 72.462 96.0725C72.462 96.0725 74.318 86.4499 64.9932 85.4299C55.6684 84.4099 54.5868 98.151 59.0732 102.642C59.0732 102.642 57.0956 98.9978 58.8812 96.3291Z" fill="#535353"/>
<path d="M59.6956 97.5545C59.6956 96.9193 59.4443 96.31 58.9968 95.8603C58.5493 95.4105 57.9421 95.157 57.3084 95.1553C55.606 95.2002 54.518 98.6002 58.6396 99.787C59.2284 99.9538 59.6188 99.3956 59.6956 97.5545Z" fill="#FFF4EB"/>
<path d="M68.9495 100.718C68.551 101.254 68.1937 101.82 67.8807 102.411C67.7719 102.373 67.6567 102.341 67.5479 102.296C66.0439 101.763 65.5191 101.013 65.3975 100.371C65.3402 100.045 65.3644 99.7102 65.4679 99.396C65.5212 99.2153 65.5987 99.0427 65.6983 98.8828C66.4803 99.6278 67.4151 100.193 68.4375 100.538C68.7447 100.653 68.9495 100.718 68.9495 100.718Z" fill="#535353"/>
<path d="M68.4344 100.524L68.108 101.018C66.6872 100.511 65.7592 99.9661 65.4648 99.3823C65.5182 99.2016 65.5957 99.029 65.6952 98.8691C66.4772 99.6141 67.4121 100.179 68.4344 100.524Z" fill="white"/>
<path d="M67.5449 102.296C66.0409 101.763 65.5161 101.013 65.3945 100.371C65.9635 100.581 66.4902 100.892 66.9497 101.288C67.2477 101.554 67.4557 101.906 67.5449 102.296Z" fill="#FFF4EB"/>
<path d="M65.4615 88.047C65.4615 88.047 62.5239 96.8292 56.9047 96.2262C51.2855 95.6232 60.9175 85.0126 60.9175 85.0126C60.9175 85.0126 70.3959 82.2991 74.5239 87.5787C78.6519 92.8583 72.4823 96.0594 72.4823 96.0594C72.4823 96.0594 73.4039 89.1696 65.4615 88.047Z" fill="#535353"/>
<path d="M60.9798 95.5207C60.9473 95.5192 60.9159 95.5088 60.8888 95.4908C60.8617 95.4727 60.8401 95.4476 60.8262 95.4181C60.8116 95.3772 60.8134 95.3322 60.8313 95.2927C60.8492 95.2532 60.8818 95.2222 60.9222 95.2064C65.4022 93.4936 65.2998 87.4698 65.2998 87.4057C65.2979 87.3847 65.3006 87.3635 65.3076 87.3437C65.3145 87.3238 65.3257 87.3057 65.3402 87.2905C65.3548 87.2753 65.3724 87.2634 65.3919 87.2556C65.4115 87.2478 65.4324 87.2443 65.4534 87.2453C65.495 87.2466 65.5347 87.2629 65.5653 87.2911C65.5958 87.3194 65.6152 87.3578 65.6198 87.3992C65.6198 87.4634 65.7222 93.7117 61.0374 95.5079L60.9798 95.5207Z" fill="#535353"/>
<path d="M70.8281 95.8482L72.0057 95.4697C72.0057 95.4697 71.3721 96.3999 70.8281 95.8482Z" fill="#535353"/>
<path d="M71.2409 95.7129C71.0215 95.6042 70.7699 95.5802 70.534 95.6452C70.298 95.7102 70.0941 95.8599 69.9609 96.0657C70.1588 95.967 70.3758 95.9124 70.5967 95.9058C70.8177 95.8991 71.0375 95.9406 71.2409 96.0272V95.7129Z" fill="#535353"/>
<path d="M62.5286 110.423L67.2838 112.848L67.207 117.678L60.4102 113.707L62.5286 110.423Z" fill="#4674EA"/>
<path d="M68.0078 109.512L68.2894 112.443L71.3934 115.734L70.971 110.32L68.0078 109.512Z" fill="#4674EA"/>
<path d="M46.0363 76.3397L44.0523 71.2076C44.0886 70.9333 44.0606 70.6542 43.9706 70.3926C43.8806 70.1309 43.7311 69.8938 43.5339 69.7001C42.1515 68.6673 39.2971 67.7307 38.5803 67.8397C37.5371 67.9937 35.3803 69.8861 35.5659 71.1242C35.7515 72.3623 41.8443 73.1257 41.8443 73.1257L43.8667 78.7518L46.0363 76.3397Z" fill="#FFF4EB"/>
<path d="M54.5807 122.085C54.5807 122.085 58.4207 119.025 56.8911 112.264L52.7631 93.5576L45.6719 74.2354L42.2031 75.9931C42.2031 75.9931 48.0271 94.8726 48.5647 96.1492C48.8399 96.7908 49.9343 106.587 51.4255 113.149C52.7951 119.192 54.5807 122.085 54.5807 122.085Z" fill="#4674EA"/>
<path opacity="0.6" d="M54.5807 122.085C54.5807 122.085 58.4207 119.025 56.8911 112.264L52.7631 93.5576L45.6719 74.2354L42.2031 75.9931C42.2031 75.9931 48.0271 94.8726 48.5647 96.1492C48.8399 96.7908 49.9343 106.587 51.4255 113.149C52.7951 119.192 54.5807 122.085 54.5807 122.085Z" fill="white"/>
<path d="M41.5938 75.4418L45.645 73.4082L46.5281 74.7618L41.7922 76.8659L41.5938 75.4418Z" fill="#4674EA"/>
<path opacity="0.7" d="M41.5938 75.4418L45.645 73.4082L46.5281 74.7618L41.7922 76.8659L41.5938 75.4418Z" fill="white"/>
<path opacity="0.6" d="M62.5286 110.423L67.2838 112.848L67.207 117.678L60.4102 113.707L62.5286 110.423Z" fill="white"/>
<path opacity="0.6" d="M68.0078 109.512L68.2894 112.443L71.3934 115.734L70.971 110.32L68.0078 109.512Z" fill="white"/>
<path d="M203.046 100.338H183.871V115.272H203.046V100.338Z" fill="white"/>
<path opacity="0.1" d="M203.048 100.338H198.133V115.272H203.048V100.338Z" fill="black"/>
<path d="M182.77 128.462H204.446V101.358H197.464L182.77 108.409V128.462Z" fill="#4674EA"/>
<path opacity="0.2" d="M204.447 101.358H197.465V128.462H204.447V101.358Z" fill="black"/>
<path opacity="0.7" d="M195.154 113.752H185.004V118.627H195.154V113.752Z" fill="white"/>
<path opacity="0.7" d="M195.154 120.257H185.004V120.956H195.154V120.257Z" fill="white"/>
<path opacity="0.7" d="M203.771 122.304H198.133V126.441H203.771V122.304Z" fill="white"/>
<path d="M194.897 99.5234H175.723V115.272H194.897V99.5234Z" fill="white"/>
<path opacity="0.1" d="M194.9 99.5234H189.984V115.272H194.9V99.5234Z" fill="black"/>
<path d="M174.625 128.462H196.302V101.358H189.319L174.625 108.409V128.462Z" fill="#4674EA"/>
<path opacity="0.2" d="M196.299 101.358H189.316V128.462H196.299V101.358Z" fill="black"/>
<path opacity="0.7" d="M187.006 113.752H176.855V118.627H187.006V113.752Z" fill="white"/>
<path opacity="0.7" d="M187.006 120.257H176.855V120.956H187.006V120.257Z" fill="white"/>
<path opacity="0.7" d="M195.623 122.304H189.984V126.441H195.623V122.304Z" fill="white"/>
<path d="M161.156 231.366H165.079L172.119 133.055H166.916L161.156 231.366Z" fill="#535353"/>
<path opacity="0.1" d="M161.156 231.366H165.079L171.774 137.937L172.119 133.216H166.916L166.641 137.937L161.156 231.366Z" fill="white"/>
<path opacity="0.2" d="M166.645 137.706H171.777L172.123 133.216H166.92L166.645 137.706Z" fill="black"/>
<path d="M132.382 231.366H136.305L136.945 133.055H131.742L132.382 231.366Z" fill="#535353"/>
<path opacity="0.1" d="M131.738 133.216L131.847 149.074L132.378 231.366H136.301L136.839 149.074L136.941 133.216H131.738Z" fill="white"/>
<path opacity="0.2" d="M131.738 133.216L131.847 149.254H136.839L136.941 133.216H131.738Z" fill="black"/>
<path d="M90.7578 231.366H94.681L101.721 133.055H96.5178L90.7578 231.366Z" fill="#535353"/>
<path opacity="0.1" d="M90.7578 231.366H94.681L101.382 137.937L101.721 133.216H96.5178L96.2426 137.937L90.7578 231.366Z" fill="white"/>
<path opacity="0.2" d="M96.2422 137.706H101.381L101.721 133.216H96.5174L96.2422 137.706Z" fill="black"/>
<path d="M206.011 231.366H209.934L204.168 133.055H198.965L206.011 231.366Z" fill="#535353"/>
<path opacity="0.1" d="M198.965 133.216L199.317 137.937L206.011 231.366H209.928L204.45 137.937L204.168 133.216H198.965Z" fill="white"/>
<path opacity="0.2" d="M204.168 133.216H198.965L199.317 137.706H204.45L204.168 133.216Z" fill="black"/>
<path d="M206.911 135.519H93.7841C93.6026 135.519 93.4229 135.483 93.2551 135.413C93.0874 135.343 92.935 135.241 92.8066 135.113C92.6783 134.984 92.5765 134.831 92.507 134.663C92.4375 134.495 92.4017 134.315 92.4017 134.133V130.598H208.293V134.133C208.293 134.315 208.257 134.495 208.188 134.663C208.118 134.831 208.016 134.984 207.888 135.113C207.76 135.241 207.607 135.343 207.44 135.413C207.272 135.483 207.092 135.519 206.911 135.519Z" fill="#4674EA"/>
<path opacity="0.4" d="M206.911 135.519H93.7841C93.6026 135.519 93.4229 135.483 93.2551 135.413C93.0874 135.343 92.935 135.241 92.8066 135.113C92.6783 134.984 92.5765 134.831 92.507 134.663C92.4375 134.495 92.4017 134.315 92.4017 134.133V130.598H208.293V134.133C208.293 134.315 208.257 134.495 208.188 134.663C208.118 134.831 208.016 134.984 207.888 135.113C207.76 135.241 207.607 135.343 207.44 135.413C207.272 135.483 207.092 135.519 206.911 135.519Z" fill="white"/>
<path opacity="0.2" d="M92.4017 133.055L208.293 133.055V130.591H92.4017V133.055Z" fill="black"/>
<path d="M89.9708 131.233H210.72C210.901 131.234 211.082 131.199 211.25 131.129C211.418 131.06 211.57 130.958 211.699 130.829C211.828 130.7 211.929 130.547 211.999 130.379C212.068 130.21 212.103 130.03 212.102 129.848C212.102 129.48 211.956 129.128 211.697 128.868C211.438 128.608 211.086 128.462 210.72 128.462H89.9708C89.6036 128.462 89.2513 128.608 88.9911 128.867C88.7308 129.127 88.5837 129.479 88.582 129.848C88.582 130.03 88.618 130.211 88.6879 130.379C88.7577 130.548 88.8601 130.701 88.9892 130.83C89.1182 130.958 89.2714 131.06 89.4398 131.13C89.6083 131.199 89.7888 131.234 89.9708 131.233Z" fill="#4674EA"/>
<path opacity="0.4" d="M89.9708 131.233H210.72C210.901 131.234 211.082 131.199 211.25 131.129C211.418 131.06 211.57 130.958 211.699 130.829C211.828 130.7 211.929 130.547 211.999 130.379C212.068 130.21 212.103 130.03 212.102 129.848C212.102 129.48 211.956 129.128 211.697 128.868C211.438 128.608 211.086 128.462 210.72 128.462H89.9708C89.6036 128.462 89.2513 128.608 88.9911 128.867C88.7308 129.127 88.5837 129.479 88.582 129.848C88.582 130.03 88.618 130.211 88.6879 130.379C88.7577 130.548 88.8601 130.701 88.9892 130.83C89.1182 130.958 89.2714 131.06 89.4398 131.13C89.6083 131.199 89.7888 131.234 89.9708 131.233Z" fill="white"/>
<path d="M184.775 128.45V126.281H186.228L184.775 125.434H185.863L184.41 124.485H183.034V123.394H184.634L183.034 122.759V120.392H184.634V118.846H186.228L184.634 118.307V117.204H185.773L184.839 116.274L184.033 115.459H159.303V116.569H157.671L159.489 117.39V118.307H156.154V120.014H154.676L156.154 120.758V122.663H157.204V123.574H159.303V126.281H158.125L159.092 127.25V128.462L184.775 128.45Z" fill="#4674EA"/>
<path opacity="0.7" d="M184.775 128.45V126.281H186.228L184.775 125.434H185.863L184.41 124.485H183.034V123.394H184.634L183.034 122.759V120.392H184.634V118.846H186.228L184.634 118.307V117.204H185.773L184.839 116.274L184.033 115.459H159.303V116.569H157.671L159.489 117.39V118.307H156.154V120.014H154.676L156.154 120.758V122.663H157.204V123.574H159.303V126.281H158.125L159.092 127.25V128.462L184.775 128.45Z" fill="white"/>
<path opacity="0.1" d="M184.775 128.45V126.281H186.228L184.775 125.434H185.863L184.41 124.485H183.034V123.394H184.634L183.034 122.759V120.392H184.634V118.846H186.228L184.634 118.307V117.204H185.773L184.839 116.274L184.033 115.459H171.009V116.569H169.377L171.188 117.39V118.307H167.853V120.014H166.375L167.853 120.758V122.663H168.903V123.574H171.009V126.281H169.831L170.791 127.25V128.462L184.775 128.45Z" fill="black"/>
<path opacity="0.1" d="M159.488 118.307H171.187L159.488 117.884V118.307Z" fill="black"/>
<path opacity="0.1" d="M159.301 123.573H171.006L171.058 124.394L159.301 123.573Z" fill="black"/>
<path opacity="0.1" d="M157.203 122.662H168.902L157.203 123.073V122.662Z" fill="black"/>
<path opacity="0.1" d="M159.301 126.28H171.006L159.301 125.851V126.28Z" fill="black"/>
<path opacity="0.1" d="M159.09 127.25H170.789V127.699L159.09 127.25Z" fill="black"/>
<path opacity="0.1" d="M156.152 120.013H167.852L156.152 119.641V120.013Z" fill="black"/>
<path opacity="0.1" d="M159.301 116.569H171.006L159.301 116.158V116.569Z" fill="black"/>
<path opacity="0.1" d="M184.634 117.203H172.762L184.634 117.569V117.203Z" fill="black"/>
<path opacity="0.1" d="M171.188 118.307H184.634L172.442 118.704L171.188 118.307Z" fill="black"/>
<path opacity="0.1" d="M167.852 120.014L184.632 120.392V120.014H167.852Z" fill="black"/>
<path opacity="0.1" d="M167.852 120.758H176.152L167.852 121.162V120.758Z" fill="black"/>
<path opacity="0.1" d="M183.033 122.759L171.008 122.663L183.033 122.394V122.759Z" fill="black"/>
<path opacity="0.1" d="M183.032 123.394H170.789L183.032 123.804V123.394Z" fill="black"/>
<path opacity="0.1" d="M184.775 125.434H171.188V125.851L184.775 125.434Z" fill="black"/>
<path opacity="0.1" d="M184.773 126.281H174.93L184.773 126.557V126.281Z" fill="black"/>
<path d="M153.286 125.652V127.712C153.286 128.238 152.646 128.456 152.141 128.456H111.104C110.579 128.456 109.945 128.238 109.945 127.712V125.652H153.286Z" fill="#535353"/>
<path opacity="0.4" d="M153.286 125.652V127.712C153.286 128.238 152.646 128.456 152.141 128.456H111.104C110.579 128.456 109.945 128.238 109.945 127.712V125.652H153.286Z" fill="white"/>
<path opacity="0.2" d="M153.285 125.652V127.712C153.285 128.238 152.645 128.456 152.139 128.456H125.074C124.549 128.456 123.922 128.238 123.922 127.712V125.652H153.285Z" fill="black"/>
<path d="M160.151 104.277L155.262 126.493C155.178 126.853 154.976 127.175 154.688 127.408C154.401 127.64 154.044 127.77 153.675 127.776H126.993C126.827 127.772 126.664 127.73 126.517 127.653C126.37 127.575 126.243 127.465 126.145 127.33C126.048 127.195 125.983 127.04 125.956 126.875C125.929 126.711 125.94 126.543 125.988 126.384L130.865 104.341C130.965 104.005 131.177 103.713 131.466 103.515C131.755 103.316 132.103 103.223 132.452 103.251H159.14C159.857 103.225 160.305 103.552 160.151 104.277Z" fill="#535353"/>
<path opacity="0.4" d="M160.151 104.277L155.262 126.492C155.178 126.853 154.976 127.175 154.688 127.407C154.401 127.64 154.044 127.769 153.675 127.775H127.895C127.729 127.772 127.566 127.729 127.419 127.652C127.272 127.575 127.145 127.464 127.048 127.329C126.95 127.195 126.886 127.039 126.858 126.875C126.831 126.711 126.842 126.542 126.891 126.383L131.774 104.341C131.873 104.004 132.085 103.711 132.374 103.513C132.663 103.314 133.012 103.221 133.361 103.25H159.14C159.857 103.225 160.305 103.552 160.151 104.277Z" fill="white"/>
<path opacity="0.2" d="M146.996 115.567C146.996 117.492 144.961 119.012 143.469 119.012C141.978 119.012 141.095 117.466 141.549 115.567C142.004 113.669 143.469 112.187 144.916 112.129C144.493 114.053 145.402 115.567 146.887 115.567H146.996Z" fill="black"/>
</svg>
