<svg width="53" height="53" viewBox="0 0 53 53" fill="none" xmlns="http://www.w3.org/2000/svg">
<path d="M15.7344 23.1875C19.8506 23.1875 23.1875 19.8506 23.1875 15.7344C23.1875 11.6181 19.8506 8.28125 15.7344 8.28125C11.6181 8.28125 8.28125 11.6181 8.28125 15.7344C8.28125 19.8506 11.6181 23.1875 15.7344 23.1875Z" stroke="#525252" stroke-width="2" stroke-linecap="round" stroke-linejoin="round"/>
<path d="M37.2656 23.1875C41.3819 23.1875 44.7188 19.8506 44.7188 15.7344C44.7188 11.6181 41.3819 8.28125 37.2656 8.28125C33.1494 8.28125 29.8125 11.6181 29.8125 15.7344C29.8125 19.8506 33.1494 23.1875 37.2656 23.1875Z" stroke="#525252" stroke-width="2" stroke-linecap="round" stroke-linejoin="round"/>
<path d="M15.7344 44.7188C19.8506 44.7188 23.1875 41.3819 23.1875 37.2656C23.1875 33.1494 19.8506 29.8125 15.7344 29.8125C11.6181 29.8125 8.28125 33.1494 8.28125 37.2656C8.28125 41.3819 11.6181 44.7188 15.7344 44.7188Z" stroke="#525252" stroke-width="2" stroke-linecap="round" stroke-linejoin="round"/>
<path d="M37.2656 44.7188C41.3819 44.7188 44.7188 41.3819 44.7188 37.2656C44.7188 33.1494 41.3819 29.8125 37.2656 29.8125C33.1494 29.8125 29.8125 33.1494 29.8125 37.2656C29.8125 41.3819 33.1494 44.7188 37.2656 44.7188Z" stroke="#525252" stroke-width="2" stroke-linecap="round" stroke-linejoin="round"/>
</svg>
