<svg width="20" height="20" viewBox="0 0 20 20" fill="none" xmlns="http://www.w3.org/2000/svg">
<path d="M10 13.124C13.1066 13.124 15.625 10.6056 15.625 7.49902C15.625 4.39242 13.1066 1.87402 10 1.87402C6.8934 1.87402 4.375 4.39242 4.375 7.49902C4.375 10.6056 6.8934 13.124 10 13.124Z" stroke="#1B42A6" stroke-width="2" stroke-linecap="round" stroke-linejoin="round"/>
<path d="M15.7452 13.2444C14.2215 14.7681 12.1549 15.6241 10 15.6241C7.84512 15.6241 5.77849 14.7681 4.25476 13.2444C2.73102 11.7207 1.875 9.65403 1.875 7.49915C1.875 5.34427 2.73102 3.27764 4.25476 1.75391" stroke="#1B42A6" stroke-width="2" stroke-linecap="round" stroke-linejoin="round"/>
<path d="M7.5 18.124H12.5" stroke="#1B42A6" stroke-width="2" stroke-linecap="round" stroke-linejoin="round"/>
<path d="M10 15.624V18.124" stroke="#1B42A6" stroke-width="2" stroke-linecap="round" stroke-linejoin="round"/>
</svg>
