<svg width="36" height="36" viewBox="0 0 36 36" fill="none" xmlns="http://www.w3.org/2000/svg">
<path d="M21.3742 29.2492V22.4991C21.3742 22.2007 21.2557 21.9146 21.0447 21.7036C20.8337 21.4926 20.5475 21.3741 20.2492 21.3741H15.7492C15.4508 21.3741 15.1647 21.4926 14.9537 21.7036C14.7427 21.9146 14.6242 22.2007 14.6242 22.4991V29.2492C14.6242 29.5476 14.5057 29.8337 14.2947 30.0447C14.0838 30.2556 13.7977 30.3742 13.4993 30.3742L6.75014 30.3751C6.60239 30.3751 6.45609 30.346 6.31958 30.2895C6.18307 30.233 6.05904 30.1501 5.95455 30.0456C5.85007 29.9412 5.76719 29.8172 5.71065 29.6807C5.6541 29.5442 5.625 29.3979 5.625 29.2501V16.2479C5.625 16.0911 5.65775 15.9361 5.72115 15.7928C5.78455 15.6494 5.87721 15.5209 5.99317 15.4155L17.2424 5.18716C17.4495 4.99888 17.7193 4.89454 17.9992 4.89453C18.2791 4.89452 18.5489 4.99884 18.756 5.18711L30.0068 15.4155C30.1228 15.5209 30.2154 15.6494 30.2788 15.7928C30.3422 15.9361 30.375 16.0912 30.375 16.2479V29.2501C30.375 29.3979 30.3459 29.5442 30.2894 29.6807C30.2328 29.8172 30.1499 29.9412 30.0454 30.0457C29.941 30.1501 29.8169 30.233 29.6804 30.2895C29.5439 30.346 29.3976 30.3751 29.2499 30.3751L22.499 30.3742C22.2007 30.3742 21.9146 30.2556 21.7036 30.0447C21.4927 29.8337 21.3742 29.5476 21.3742 29.2492V29.2492Z" stroke="black" stroke-width="2" stroke-linecap="round" stroke-linejoin="round"/>
</svg>
