<svg width="16" height="16" viewBox="0 0 16 16" fill="none" xmlns="http://www.w3.org/2000/svg">
<path d="M9.08556 2.91368L13.0856 6.91368L4.39856 15.6007L0.832558 15.9927C0.720809 16.0051 0.607707 15.9921 0.501619 15.9549C0.395531 15.9177 0.299172 15.8571 0.21967 15.7776C0.140168 15.6981 0.079558 15.6017 0.0423232 15.4956C0.00508829 15.3895 -0.00781843 15.2764 0.0045578 15.1647L0.404558 11.5957L9.08556 2.91368ZM15.5606 2.31368L13.6816 0.43968C13.5423 0.30029 13.3769 0.189715 13.1948 0.114273C13.0128 0.0388305 12.8176 0 12.6206 0C12.4235 0 12.2284 0.0388305 12.0463 0.114273C11.8643 0.189715 11.6989 0.30029 11.5596 0.43968L9.79256 2.20668L13.7926 6.20668L15.5606 4.43968C15.6999 4.30038 15.8105 4.13498 15.886 3.95293C15.9614 3.77088 16.0002 3.57574 16.0002 3.37868C16.0002 3.18162 15.9614 2.98648 15.886 2.80443C15.8105 2.62238 15.6999 2.45698 15.5606 2.31768V2.31368Z" fill="#1B1C1D"/>
</svg>
