<svg width="25" height="25" viewBox="0 0 25 25" fill="none" xmlns="http://www.w3.org/2000/svg">
<path d="M9.0514 21.0934H4.6875C4.4803 21.0934 4.28159 21.0111 4.13507 20.8646C3.98856 20.7181 3.90625 20.5193 3.90625 20.3121V15.9482C3.90625 15.8456 3.92646 15.7441 3.96572 15.6493C4.00498 15.5545 4.06253 15.4684 4.13507 15.3958L15.8538 3.67706C16.0003 3.53055 16.199 3.44824 16.4062 3.44824C16.6135 3.44824 16.8122 3.53055 16.9587 3.67706L21.3226 8.04096C21.4691 8.18747 21.5514 8.38619 21.5514 8.59339C21.5514 8.80059 21.4691 8.9993 21.3226 9.14581L9.60382 20.8646C9.53128 20.9371 9.44515 20.9947 9.35037 21.0339C9.25558 21.0732 9.15399 21.0934 9.0514 21.0934Z" stroke="white" stroke-width="2" stroke-linecap="round" stroke-linejoin="round"/>
<path d="M13.2812 6.25L18.75 11.7188" stroke="white" stroke-width="2" stroke-linecap="round" stroke-linejoin="round"/>
<path d="M9.32422 21.0439L3.95508 15.6748" stroke="white" stroke-width="2" stroke-linecap="round" stroke-linejoin="round"/>
</svg>
