<svg width="40" height="40" viewBox="0 0 40 40" fill="none" xmlns="http://www.w3.org/2000/svg">
<path d="M13.75 26.25L7.5 32.5" stroke="#525252" stroke-width="2" stroke-linecap="round" stroke-linejoin="round"/>
<path d="M24.1161 4.63369L14.375 14.3748C14.375 14.3748 10.04 12.2073 5.40643 15.9452C5.2696 16.0553 5.15748 16.193 5.07734 16.3494C4.99721 16.5057 4.95086 16.6771 4.94131 16.8525C4.93175 17.0279 4.95921 17.2033 5.02189 17.3674C5.08456 17.5315 5.18107 17.6806 5.30512 17.8049L22.1639 34.6638C22.2902 34.7903 22.4422 34.8883 22.6096 34.9511C22.7769 35.0139 22.9559 35.04 23.1342 35.0277C23.3126 35.0154 23.4862 34.9649 23.6434 34.8797C23.8005 34.7945 23.9376 34.6765 24.0452 34.5338C25.3567 32.7907 27.4165 29.2078 25.625 25.6248L35.3661 15.8837C35.6005 15.6493 35.7322 15.3313 35.7322 14.9998C35.7322 14.6683 35.6005 14.3503 35.3661 14.1159L25.8839 4.63369C25.6494 4.39927 25.3315 4.26758 25 4.26758C24.6685 4.26758 24.3505 4.39927 24.1161 4.63369V4.63369Z" stroke="#525252" stroke-width="2" stroke-linecap="round" stroke-linejoin="round"/>
</svg>
