<svg width="32" height="32" viewBox="0 0 32 32" fill="none" xmlns="http://www.w3.org/2000/svg">
<path d="M11 21L6 26" stroke="white" stroke-width="2" stroke-linecap="round" stroke-linejoin="round"/>
<path d="M19.293 3.70711L11.5001 11.5C11.5001 11.5 8.03209 9.766 4.32524 12.7563C4.21578 12.8444 4.12608 12.9546 4.06197 13.0796C3.99787 13.2047 3.96079 13.3418 3.95314 13.4821C3.9455 13.6225 3.96746 13.7628 4.01761 13.8941C4.06775 14.0254 4.14495 14.1446 4.24419 14.2441L17.7313 27.7312C17.8323 27.8324 17.9538 27.9108 18.0877 27.961C18.2217 28.0113 18.3648 28.0322 18.5075 28.0223C18.6502 28.0124 18.7891 27.9721 18.9148 27.9039C19.0405 27.8358 19.1502 27.7414 19.2363 27.6272C20.2854 26.2327 21.9333 23.3664 20.5001 20.5L28.293 12.7071C28.4805 12.5196 28.5859 12.2652 28.5859 12C28.5859 11.7348 28.4805 11.4804 28.293 11.2929L20.7072 3.70711C20.5197 3.51957 20.2653 3.41422 20.0001 3.41422C19.7349 3.41422 19.4805 3.51957 19.293 3.70711V3.70711Z" stroke="white" stroke-width="2" stroke-linecap="round" stroke-linejoin="round"/>
</svg>
