<svg width="32" height="32" viewBox="0 0 32 32" fill="none" xmlns="http://www.w3.org/2000/svg">
<path d="M16 28C22.6274 28 28 22.6274 28 16C28 9.37258 22.6274 4 16 4C9.37258 4 4 9.37258 4 16C4 22.6274 9.37258 28 16 28Z" stroke="white" stroke-width="2" stroke-linecap="round" stroke-linejoin="round"/>
<path d="M21.1973 19C20.6701 19.9118 19.9124 20.6688 19.0001 21.1952C18.0879 21.7215 17.0532 21.9986 16 21.9986C14.9468 21.9986 13.9122 21.7215 12.9999 21.1952C12.0876 20.6689 11.3299 19.9119 10.8027 19.0001" stroke="white" stroke-width="2" stroke-linecap="round" stroke-linejoin="round"/>
<path d="M12.9375 13.5C12.9375 14.2939 12.2939 14.9375 11.5 14.9375C10.7061 14.9375 10.0625 14.2939 10.0625 13.5C10.0625 12.7061 10.7061 12.0625 11.5 12.0625C12.2939 12.0625 12.9375 12.7061 12.9375 13.5Z" fill="white" stroke="white" stroke-width="0.125"/>
<path d="M21.9375 13.5C21.9375 14.2939 21.2939 14.9375 20.5 14.9375C19.7061 14.9375 19.0625 14.2939 19.0625 13.5C19.0625 12.7061 19.7061 12.0625 20.5 12.0625C21.2939 12.0625 21.9375 12.7061 21.9375 13.5Z" fill="white" stroke="white" stroke-width="0.125"/>
</svg>
