<svg width="46" height="46" viewBox="0 0 46 46" fill="none" xmlns="http://www.w3.org/2000/svg">
<path d="M23 40.25C32.5269 40.25 40.25 32.5269 40.25 23C40.25 13.4731 32.5269 5.75 23 5.75C13.4731 5.75 5.75 13.4731 5.75 23C5.75 32.5269 13.4731 40.25 23 40.25Z" stroke="#525252" stroke-width="2" stroke-linecap="round" stroke-linejoin="round"/>
<path d="M30.4714 27.3125C29.7137 28.6232 28.6244 29.7114 27.3131 30.468C26.0017 31.2246 24.5144 31.6229 23.0004 31.6229C21.4864 31.6229 19.9991 31.2247 18.6877 30.4681C17.3764 29.7115 16.2871 28.6233 15.5293 27.3126" stroke="#525252" stroke-width="2" stroke-linecap="round" stroke-linejoin="round"/>
<path d="M16.5312 21.5625C17.7221 21.5625 18.6875 20.5971 18.6875 19.4062C18.6875 18.2154 17.7221 17.25 16.5312 17.25C15.3404 17.25 14.375 18.2154 14.375 19.4062C14.375 20.5971 15.3404 21.5625 16.5312 21.5625Z" fill="#525252"/>
<path d="M29.4688 21.5625C30.6596 21.5625 31.625 20.5971 31.625 19.4062C31.625 18.2154 30.6596 17.25 29.4688 17.25C28.2779 17.25 27.3125 18.2154 27.3125 19.4062C27.3125 20.5971 28.2779 21.5625 29.4688 21.5625Z" fill="#525252"/>
</svg>
