<svg width="21" height="20" viewBox="0 0 21 20" fill="none" xmlns="http://www.w3.org/2000/svg">
<path fill-rule="evenodd" clip-rule="evenodd" d="M2.59778 5H4.32962H18.1844" fill="#1565C0"/>
<path d="M2.59778 5H4.32962H18.1844" stroke="#B71C1C" stroke-width="2" stroke-linecap="round" stroke-linejoin="round"/>
<path d="M17.4525 4.99996C17.4525 4.44767 17.0048 3.99996 16.4525 3.99996C15.9002 3.99996 15.4525 4.44767 15.4525 4.99996H17.4525ZM5.32959 4.99996C5.32959 4.44767 4.88187 3.99996 4.32959 3.99996C3.77731 3.99996 3.32959 4.44767 3.32959 4.99996H5.32959ZM5.92736 4.99996C5.92736 5.55224 6.37507 5.99996 6.92736 5.99996C7.47964 5.99996 7.92736 5.55224 7.92736 4.99996H5.92736ZM12.8547 4.99996C12.8547 5.55224 13.3024 5.99996 13.8547 5.99996C14.407 5.99996 14.8547 5.55224 14.8547 4.99996H12.8547ZM15.4525 4.99996V16.6666H17.4525V4.99996H15.4525ZM15.4525 16.6666C15.4525 16.999 15.1613 17.3333 14.7207 17.3333V19.3333C16.1929 19.3333 17.4525 18.1752 17.4525 16.6666H15.4525ZM14.7207 17.3333H6.06143V19.3333H14.7207V17.3333ZM6.06143 17.3333C5.62074 17.3333 5.32959 16.999 5.32959 16.6666H3.32959C3.32959 18.1752 4.58918 19.3333 6.06143 19.3333V17.3333ZM5.32959 16.6666V4.99996H3.32959V16.6666H5.32959ZM7.92736 4.99996V3.33329H5.92736V4.99996H7.92736ZM7.92736 3.33329C7.92736 3.00091 8.21851 2.66663 8.6592 2.66663V0.666626C7.18695 0.666626 5.92736 1.82472 5.92736 3.33329H7.92736ZM8.6592 2.66663H12.1229V0.666626H8.6592V2.66663ZM12.1229 2.66663C12.5636 2.66663 12.8547 3.00091 12.8547 3.33329H14.8547C14.8547 1.82472 13.5951 0.666626 12.1229 0.666626V2.66663ZM12.8547 3.33329V4.99996H14.8547V3.33329H12.8547Z" fill="#B71C1C"/>
<path d="M8.65918 9.16663V14.1666" stroke="#B71C1C" stroke-width="2" stroke-linecap="round" stroke-linejoin="round"/>
<path d="M12.1229 9.16663V14.1666" stroke="#B71C1C" stroke-width="2" stroke-linecap="round" stroke-linejoin="round"/>
</svg>
