<svg width="64" height="64" viewBox="0 0 64 64" fill="none" xmlns="http://www.w3.org/2000/svg">
<circle cx="32" cy="32" r="32" fill="#FFF1E5"/>
<path d="M32 29V34" stroke="#EF6C00" stroke-width="2" stroke-linecap="round" stroke-linejoin="round"/>
<path d="M30.269 20.9981L19.272 39.9971C19.096 40.3011 19.0032 40.6461 19.0029 40.9974C19.0026 41.3486 19.0949 41.6938 19.2703 41.9981C19.4458 42.3024 19.6983 42.5551 20.0025 42.7308C20.3066 42.9065 20.6517 42.999 21.0029 42.999H42.997C43.3483 42.999 43.6933 42.9065 43.9975 42.7308C44.3016 42.5551 44.5541 42.3024 44.7296 41.9981C44.9051 41.6938 44.9973 41.3486 44.997 40.9974C44.9967 40.6461 44.9039 40.3011 44.7279 39.9971L33.7309 20.9981C33.5552 20.6946 33.3028 20.4426 32.999 20.2674C32.6952 20.0922 32.3507 20 32 20C31.6493 20 31.3047 20.0922 31.0009 20.2674C30.6971 20.4426 30.4447 20.6946 30.269 20.9981V20.9981Z" stroke="#EF6C00" stroke-width="2" stroke-linecap="round" stroke-linejoin="round"/>
<path d="M33.4375 38.5C33.4375 39.2939 32.7939 39.9375 32 39.9375C31.2061 39.9375 30.5625 39.2939 30.5625 38.5C30.5625 37.7061 31.2061 37.0625 32 37.0625C32.7939 37.0625 33.4375 37.7061 33.4375 38.5Z" fill="#EF6C00" stroke="#EF6C00" stroke-width="0.125"/>
</svg>
